<?xml version="1.0" standalone="no"?>
<!DOCTYPE svg PUBLIC "-//W3C//DTD SVG 20010904//EN"
 "http://www.w3.org/TR/2001/REC-SVG-20010904/DTD/svg10.dtd">
<svg version="1.0" xmlns="http://www.w3.org/2000/svg"
 width="800.000000pt" height="150.000000pt" viewBox="0 0 800.000000 150.000000"
 preserveAspectRatio="xMidYMid meet">

<g transform="translate(0.000000,150.000000) scale(0.100000,-0.100000)"
fill="#000000" stroke="none">
<path d="M6925 1178 c-32 -84 -60 -159 -63 -165 -2 -8 5 -13 20 -13 17 0 29 8
36 25 10 22 18 25 67 25 49 0 57 -3 67 -25 7 -16 19 -25 35 -25 12 0 23 2 23
4 0 6 -120 320 -124 323 -2 2 -29 -65 -61 -149z m89 -55 c7 -21 4 -23 -28 -23
-20 0 -36 2 -36 5 0 2 7 23 17 46 16 41 16 41 28 18 7 -13 16 -34 19 -46z"/>
<path d="M7437 1177 c-32 -84 -58 -156 -58 -162 0 -5 9 -11 21 -13 14 -2 23 4
30 22 9 24 14 26 67 26 51 0 60 -3 68 -22 9 -22 55 -39 55 -21 0 9 -107 289
-118 309 -4 8 -30 -47 -65 -139z m78 -23 c21 -51 20 -54 -21 -54 -30 0 -35 3
-29 18 4 9 12 29 17 45 5 15 12 27 14 27 2 0 11 -16 19 -36z"/>
<path d="M6692 1163 c3 -155 3 -158 26 -161 21 -3 22 0 22 52 l0 56 50 0 c47
0 50 2 50 25 0 23 -3 25 -50 25 l-50 0 0 55 0 55 50 0 c47 0 50 2 50 25 0 24
-2 25 -75 25 l-76 0 3 -157z"/>
<path d="M7162 1163 l3 -158 78 -3 c77 -3 77 -3 77 23 0 24 -3 25 -55 25 l-55
0 0 135 0 135 -25 0 -26 0 3 -157z"/>
<path d="M6500 1242 c0 -13 -8 -18 -27 -17 -26 0 -28 -3 -28 -40 0 -39 1 -40
38 -42 l37 -1 0 59 c0 33 -4 59 -10 59 -5 0 -10 -8 -10 -18z m-2 -61 c-3 -29
-25 -34 -41 -9 -8 12 -7 21 2 32 19 22 43 8 39 -23z"/>
<path d="M6547 1224 c-4 -4 -7 -12 -7 -18 0 -6 5 -5 12 2 7 7 18 12 25 12 19
0 16 -20 -4 -27 -53 -19 -51 -55 4 -51 33 2 34 3 31 43 -3 34 -6 40 -28 43
-14 2 -29 0 -33 -4z m43 -53 c0 -14 -18 -23 -30 -16 -6 4 -8 11 -5 16 8 12 35
12 35 0z"/>
<path d="M3892 1195 c-161 -35 -250 -144 -240 -292 8 -109 58 -185 148 -227
41 -19 60 -21 218 -18 154 2 177 0 211 -17 48 -25 95 -79 111 -127 20 -59 8
-164 -24 -219 -101 -171 -392 -180 -557 -16 -117 118 -158 274 -159 608 0 180
-7 226 -35 237 -7 2 -21 -1 -32 -9 -16 -12 -19 -36 -24 -252 -4 -131 -12 -267
-18 -302 -27 -139 -78 -231 -156 -277 -102 -59 -189 -53 -261 20 -74 74 -103
196 -124 516 -12 185 -22 244 -47 273 -52 57 -80 -13 -128 -318 -35 -227 -37
-235 -45 -230 -4 2 -11 57 -14 122 -21 333 -79 483 -185 483 -89 0 -136 -50
-186 -198 -45 -134 -70 -180 -100 -188 -51 -13 -100 42 -188 209 -86 165 -158
230 -224 202 -69 -29 -101 -115 -157 -420 -55 -295 -93 -407 -152 -454 -62
-49 -176 -10 -304 103 -91 80 -141 106 -203 106 -68 0 -109 -21 -169 -85 -66
-70 -93 -85 -158 -85 -61 0 -106 18 -163 63 -50 41 -94 57 -153 57 -37 0 -44
-3 -44 -20 0 -16 7 -20 33 -20 52 0 96 -17 151 -58 63 -48 102 -62 178 -62 74
0 124 24 173 85 67 81 132 103 208 71 18 -7 70 -45 118 -83 109 -88 141 -107
212 -128 55 -16 62 -16 103 0 52 20 88 60 121 134 29 64 41 116 88 369 55 297
92 392 153 392 37 0 80 -54 158 -197 39 -72 89 -148 115 -175 39 -42 51 -48
85 -48 22 0 50 7 62 16 28 19 65 91 87 169 23 80 69 170 97 189 33 23 72 20
107 -9 50 -43 72 -135 95 -410 15 -176 28 -235 52 -235 29 0 51 80 93 345 32
201 47 265 60 265 13 0 20 -50 31 -238 12 -207 24 -292 56 -394 45 -141 124
-211 238 -212 123 -1 212 58 270 176 59 121 67 168 74 423 l7 230 6 -215 c5
-172 11 -231 28 -295 62 -237 189 -365 393 -396 219 -34 384 76 413 275 l8 48
30 -57 c41 -75 143 -184 203 -217 168 -91 364 -72 469 44 80 88 136 269 153
490 l8 103 7 -95 c24 -297 65 -444 148 -528 47 -48 85 -64 159 -70 53 -3 76 0
117 17 89 39 135 104 175 246 21 75 22 98 20 384 -1 279 6 380 22 311 3 -14
10 -140 16 -280 13 -345 38 -480 109 -583 62 -91 192 -122 315 -77 69 26 110
72 170 187 53 102 75 130 122 149 74 31 139 8 213 -76 71 -82 98 -94 196 -94
93 0 125 13 203 79 63 54 86 56 168 18 47 -21 78 -28 150 -31 78 -4 92 -2 97
12 8 21 0 24 -98 29 -60 2 -95 10 -139 30 -62 29 -114 34 -149 15 -12 -6 -43
-30 -69 -54 -56 -49 -123 -70 -190 -59 -61 10 -85 25 -155 98 -81 83 -141 103
-235 77 -54 -15 -93 -60 -148 -169 -73 -145 -132 -191 -248 -191 -83 0 -137
30 -180 101 -64 105 -79 199 -92 565 -5 144 -14 273 -19 287 -14 36 -48 44
-75 18 -20 -21 -21 -29 -22 -334 -1 -241 -5 -328 -17 -383 -38 -174 -127 -261
-258 -252 -75 5 -129 41 -169 111 -61 106 -85 244 -100 580 -11 267 -28 332
-71 280 -11 -12 -15 -63 -16 -207 -4 -291 -25 -442 -80 -565 -74 -168 -225
-237 -400 -183 -212 66 -363 310 -363 586 0 40 2 75 5 78 3 3 32 -20 63 -51
62 -62 162 -119 257 -147 87 -26 223 -24 296 4 199 78 257 312 109 446 -51 46
-108 72 -198 91 -222 48 -448 -33 -518 -183 -10 -23 -21 -42 -24 -42 -3 0 -14
13 -23 29 -30 51 -118 141 -164 168 -50 29 -139 53 -193 52 -19 0 -64 -7 -98
-14z m226 -51 c66 -27 111 -66 170 -143 l57 -76 0 -145 c0 -80 5 -158 9 -174
9 -28 8 -28 -28 11 -20 22 -59 50 -87 62 -46 20 -64 22 -222 19 l-172 -3 -47
28 c-143 84 -143 298 0 392 82 54 229 67 320 29z m769 6 c82 -14 142 -40 193
-86 55 -50 70 -82 70 -151 0 -101 -70 -190 -177 -229 -59 -21 -209 -18 -285 6
-88 27 -176 86 -237 160 -28 33 -51 63 -51 66 0 2 11 27 25 54 74 146 249 214
462 180z"/>
</g>
</svg>
