<?xml version="1.0" standalone="no"?>
<!DOCTYPE svg PUBLIC "-//W3C//DTD SVG 20010904//EN"
 "http://www.w3.org/TR/2001/REC-SVG-20010904/DTD/svg10.dtd">
<svg version="1.0" xmlns="http://www.w3.org/2000/svg"
 width="466.000000pt" height="466.000000pt" viewBox="0 0 466.000000 466.000000"
 preserveAspectRatio="xMidYMid meet">

<g transform="translate(0.000000,466.000000) scale(0.100000,-0.100000)"
fill="#000000" stroke="none">
<path d="M3325 4233 c-270 -37 -492 -178 -554 -352 -10 -28 -21 -54 -24 -58
-10 -10 -8 -91 2 -97 5 -3 12 -21 15 -40 13 -70 96 -169 200 -240 18 -13 19
-18 7 -69 -7 -31 -25 -73 -41 -95 -24 -34 -27 -42 -15 -52 30 -25 149 13 276
87 55 31 59 32 136 26 146 -11 340 34 471 109 83 47 177 145 208 214 14 33 29
67 35 76 12 23 12 103 0 126 -5 9 -21 42 -35 72 -48 105 -179 208 -321 254
-112 35 -265 52 -360 39z m271 -83 c120 -30 199 -74 276 -150 55 -55 69 -76
83 -125 54 -183 -69 -348 -320 -432 -74 -25 -94 -27 -252 -28 -171 -1 -172 -2
-207 -29 -41 -31 -145 -81 -153 -73 -2 3 5 19 17 35 12 17 24 50 27 73 l4 44
-50 23 c-64 29 -146 103 -174 156 -16 31 -22 59 -22 116 0 98 26 153 114 240
74 73 161 122 267 150 99 27 284 27 390 0z"/>
<path d="M3764 3933 c4 -27 10 -64 13 -83 4 -26 0 -42 -15 -60 -17 -21 -24
-23 -48 -15 -25 9 -32 21 -53 88 -14 42 -28 77 -33 77 -24 0 11 -139 43 -171
25 -25 90 -26 112 -1 20 22 23 101 6 168 -15 60 -34 58 -25 -3z"/>
<path d="M3492 3857 c-16 -41 -42 -151 -42 -174 0 -2 7 -3 15 -3 8 0 17 14 20
34 5 25 15 37 40 49 l34 16 20 -34 c19 -34 46 -48 39 -22 -6 23 -87 175 -97
181 -5 4 -18 -18 -29 -47z m37 -58 c-21 -13 -29 -11 -24 6 16 51 17 51 28 27
8 -18 8 -26 -4 -33z"/>
<path d="M3285 3846 c-42 -12 -50 -32 -11 -29 20 1 25 -6 39 -70 21 -87 21
-87 2 -87 -8 0 -15 -7 -15 -16 0 -8 6 -14 13 -12 6 2 33 10 60 17 28 8 47 19
47 28 0 11 -7 13 -29 8 -29 -6 -30 -4 -45 46 -22 73 -21 97 6 101 12 2 23 9
26 16 5 15 -39 15 -93 -2z"/>
<path d="M3155 3808 c-3 -7 -6 -47 -7 -88 l-3 -75 -38 73 c-57 110 -71 98 -60
-51 9 -114 29 -133 25 -24 l-3 72 37 -62 c20 -35 42 -63 49 -63 9 0 15 23 21
77 l7 77 33 -67 c31 -60 54 -85 54 -57 0 19 -92 200 -101 200 -5 0 -12 -6 -14
-12z"/>
<path d="M2581 3187 c-6 -16 -14 -47 -17 -70 -6 -38 -18 -56 -35 -57 -4 0 -37
27 -73 60 -37 33 -73 60 -81 60 -32 0 -38 -38 -20 -143 9 -55 21 -110 25 -123
5 -12 4 -54 -2 -95 -5 -41 -8 -113 -4 -161 4 -55 2 -97 -5 -112 -10 -22 -141
-106 -166 -106 -20 0 -198 -86 -259 -125 -74 -48 -203 -172 -259 -250 -82
-114 -151 -287 -175 -438 -11 -67 -10 -208 3 -311 1 -14 -6 -22 -28 -27 -16
-4 -69 -17 -116 -29 -71 -18 -108 -22 -210 -19 -117 4 -129 6 -191 37 -194 95
-277 278 -205 451 30 74 24 94 -27 89 -39 -4 -79 -66 -102 -160 -15 -62 -15
-72 0 -139 24 -109 70 -191 146 -262 73 -69 145 -112 224 -134 72 -20 310 -29
384 -14 57 11 190 21 352 26 41 1 115 12 163 23 93 23 147 28 147 13 0 -22 92
-43 225 -53 84 -6 149 -16 162 -24 56 -35 158 4 158 61 0 22 -8 35 -33 51 -34
23 -124 41 -176 35 -18 -1 -36 5 -50 18 -12 11 -46 25 -76 31 -29 6 -55 12
-58 14 -2 3 8 42 24 88 21 65 27 101 27 163 l-1 79 43 43 c23 24 47 43 53 43
6 0 14 -26 17 -57 14 -118 46 -247 76 -310 24 -51 41 -71 77 -94 52 -33 78
-36 110 -13 41 28 24 82 -36 113 -32 17 -40 27 -52 73 -24 92 -12 215 32 317
21 50 19 49 133 6 73 -28 275 -75 323 -75 21 0 37 -11 65 -44 20 -25 37 -51
37 -58 1 -32 30 -52 77 -52 l48 -1 3 40 c3 30 -5 56 -30 105 -41 80 -90 130
-148 151 -59 22 -199 81 -227 97 -14 8 -30 38 -49 94 l-27 82 18 70 c22 87 31
337 17 450 -12 92 -5 113 71 206 58 71 70 133 36 180 -14 18 -32 30 -45 30
-33 0 -76 18 -97 41 -17 19 -54 24 -124 20 -31 -2 -32 -1 -46 61 -14 61 -15
62 -26 35z"/>
</g>
</svg>
