<?xml version="1.0" standalone="no"?>
<!DOCTYPE svg PUBLIC "-//W3C//DTD SVG 20010904//EN"
 "http://www.w3.org/TR/2001/REC-SVG-20010904/DTD/svg10.dtd">
<svg version="1.0" xmlns="http://www.w3.org/2000/svg"
 width="466.000000pt" height="466.000000pt" viewBox="0 0 466.000000 466.000000"
 preserveAspectRatio="xMidYMid meet">
<metadata>
Created by potrace 1.16, written by Peter Selinger 2001-2019
</metadata>
<g transform="translate(0.000000,466.000000) scale(0.100000,-0.100000)"
fill="#000000" stroke="none">
<path d="M2460 3909 c315 -24 614 -115 716 -217 65 -65 67 -84 39 -332 -14
-118 -25 -220 -25 -227 0 -6 10 -15 23 -19 12 -4 51 -20 86 -37 63 -29 65 -30
81 -11 9 10 30 32 47 48 30 27 34 28 80 18 26 -6 77 -16 113 -22 36 -6 69 -15
73 -20 5 -4 15 -56 23 -116 11 -85 12 -114 3 -131 -10 -19 -9 -26 6 -43 10
-11 25 -20 33 -20 8 0 12 -6 8 -15 -3 -8 -1 -15 5 -15 6 0 7 -5 3 -12 -4 -6
31 9 78 35 210 115 418 209 491 222 20 4 37 11 37 16 0 5 7 6 15 3 8 -4 15 -1
15 4 0 15 -81 25 -137 18 -104 -15 -238 -74 -427 -189 -93 -56 -100 -59 -112
-42 -10 13 -11 22 -3 31 8 10 6 47 -5 134 -8 67 -18 125 -20 129 -3 4 -38 13
-78 20 -40 7 -92 17 -115 22 -60 13 -58 13 -109 -35 l-47 -44 -76 35 c-42 19
-77 36 -78 37 -2 1 9 101 23 222 29 257 28 272 -44 343 -90 90 -287 161 -562
202 -69 10 -159 18 -200 18 -69 -2 -66 -3 40 -10z"/>
<path d="M1638 3861 c-126 -36 -217 -82 -261 -131 -36 -39 -62 -107 -53 -138
6 -22 39 -443 34 -446 -1 -1 -42 -17 -90 -35 -207 -79 -398 -229 -502 -394
-30 -49 -66 -156 -65 -195 0 -30 4 -24 16 33 37 176 182 346 399 470 44 25
115 59 159 76 44 17 84 34 88 39 5 4 1 102 -7 217 -21 282 -21 303 7 344 45
67 159 123 352 170 39 9 59 17 45 17 -14 1 -69 -12 -122 -27z"/>
<path d="M2393 3811 c-18 -22 -47 -44 -65 -50 -18 -5 -112 -19 -207 -31 -96
-12 -207 -28 -245 -36 -147 -30 -278 -84 -346 -142 -44 -38 -36 -55 43 -94
345 -170 1216 -169 1495 2 l33 20 -23 41 c-23 42 -94 101 -138 114 -34 11 -80
46 -80 62 0 7 -6 13 -14 13 -7 0 -44 21 -82 46 -115 76 -148 88 -249 92 l-90
3 -32 -40z"/>
<path d="M2018 3281 l-47 -14 0 -126 c0 -69 -3 -164 -7 -211 -3 -48 -2 -80 3
-73 6 8 14 9 23 3 8 -6 11 -10 7 -10 -5 0 1 -12 12 -26 12 -15 21 -33 21 -41
0 -8 4 -11 10 -8 6 3 7 -1 4 -9 -4 -11 0 -16 11 -16 12 0 15 -5 11 -17 -4 -10
-4 -15 -1 -11 3 3 21 -10 40 -28 19 -19 47 -36 62 -40 16 -3 34 -7 41 -10 7
-2 15 3 18 11 4 8 10 12 15 9 5 -3 15 8 21 23 7 15 18 34 25 41 7 7 14 19 15
25 1 14 5 30 8 37 6 17 22 102 24 128 0 12 4 22 8 22 4 0 5 11 4 24 -1 14 5
64 15 113 32 157 27 168 -81 189 -135 26 -211 30 -262 15z"/>
<path d="M1700 3166 c0 -7 31 -22 70 -35 96 -30 112 -69 59 -142 -24 -34 -24
-36 1 -49 14 -7 26 -7 39 -1 24 14 51 71 51 111 0 40 -27 98 -52 111 -29 15
-168 19 -168 5z"/>
<path d="M4275 2950 c-106 -37 -406 -182 -453 -218 l-24 -18 30 -60 c63 -123
79 -253 46 -365 -97 -334 -594 -603 -1219 -660 -216 -19 -361 -7 -745 66 -201
37 -226 41 -345 49 -78 5 -212 49 -360 120 -274 129 -459 325 -495 520 l-9 51
3 -51 c8 -141 166 -338 372 -466 200 -123 522 -234 829 -284 154 -25 681 -31
840 -9 683 93 1155 415 1155 786 0 84 -32 205 -70 268 -12 18 -20 34 -18 35 2
2 44 26 94 54 136 78 266 137 389 178 61 20 112 38 114 40 13 12 -36 -1 -134
-36z"/>
<path d="M3111 2525 c-13 -31 -22 -58 -20 -59 2 -2 48 -14 102 -26 73 -17 101
-20 110 -11 15 15 30 14 21 -1 -9 -15 107 74 125 96 22 27 2 37 -29 14 -31
-23 -123 -58 -152 -58 -12 0 -26 16 -40 45 -16 33 -28 45 -44 45 -12 0 -29 2
-36 5 -10 4 -21 -12 -37 -50z"/>
<path d="M1650 2284 c-35 -12 -57 -13 -99 -4 -53 10 -80 7 -47 -6 18 -7 22
-39 6 -49 -16 -10 -12 -25 5 -19 8 4 15 4 15 1 0 -14 -32 -14 -52 1 -13 9 -30
16 -38 16 -8 -1 -21 -2 -28 -3 -16 -1 40 -51 57 -51 6 0 11 -4 11 -8 0 -16 86
-51 155 -63 39 -7 154 -12 257 -13 181 -1 188 -2 203 -23 15 -22 58 -37 120
-41 15 -2 20 -9 20 -32 0 -16 -3 -30 -6 -30 -3 0 -4 -11 -1 -25 l4 -25 147 0
c164 0 321 17 521 56 178 35 274 79 385 176 5 5 -10 2 -33 -6 -78 -28 -224
-48 -367 -51 -150 -3 -348 12 -339 26 3 5 -10 9 -28 9 -55 0 -138 12 -138 20
0 11 95 50 122 50 13 0 30 5 38 11 11 8 -1 9 -45 5 -82 -8 -210 9 -282 39 -62
25 -132 28 -170 6 -16 -9 -16 -11 7 -20 20 -8 14 -9 -30 -5 -74 8 -229 43
-262 60 -33 17 -49 16 -108 -2z"/>
<path d="M2838 2237 c-61 -34 -66 -42 -44 -73 13 -18 26 -19 173 -16 87 1 187
5 223 9 54 5 61 7 40 15 -14 5 -38 8 -55 8 -63 -4 -75 0 -87 25 -9 19 -19 25
-45 25 -36 0 -43 13 -15 29 12 8 -2 10 -58 10 -65 0 -83 -5 -132 -32z"/>
</g>
</svg>
