<?xml version="1.0" standalone="no"?>
<!DOCTYPE svg PUBLIC "-//W3C//DTD SVG 20010904//EN"
 "http://www.w3.org/TR/2001/REC-SVG-20010904/DTD/svg10.dtd">
<svg version="1.0" xmlns="http://www.w3.org/2000/svg"
 width="466.000000pt" height="466.000000pt" viewBox="0 0 466.000000 466.000000"
 preserveAspectRatio="xMidYMid meet">

<g transform="translate(0.000000,466.000000) scale(0.100000,-0.100000)"
fill="#000000" stroke="none">
<path d="M3071 4110 c-60 -29 -65 -29 -82 -14 -27 24 -99 30 -137 10 -79 -41
-121 -118 -122 -222 0 -63 -4 -78 -34 -128 -42 -70 -62 -146 -47 -175 20 -36
68 -54 127 -48 77 8 116 -20 275 -202 17 -19 23 -21 30 -10 5 9 2 23 -8 38
-13 20 -13 30 -2 65 14 45 36 76 54 76 6 0 24 13 40 30 23 24 28 37 26 72 -4
49 -4 53 2 131 4 51 1 63 -19 87 -29 34 -30 59 -5 108 28 56 54 158 47 187 -5
21 -12 25 -44 25 -20 0 -65 -13 -101 -30z"/>
<path d="M1159 3907 c-37 -25 -50 -63 -37 -111 12 -45 -5 -56 -81 -56 -81 0
-96 -8 -87 -46 12 -46 106 -130 106 -94 0 6 7 10 15 10 10 0 15 -10 15 -32 0
-34 32 -97 56 -111 16 -9 19 -77 4 -77 -5 0 -10 -7 -10 -15 0 -21 -9 -19 -31
8 -24 29 -25 7 0 -24 10 -13 30 -46 45 -74 15 -27 40 -69 57 -92 17 -24 41
-73 54 -110 l24 -68 0 76 c1 51 5 80 14 88 8 6 17 7 21 3 4 -4 13 -7 19 -7 14
0 15 -88 3 -178 -7 -50 -6 -63 11 -85 25 -34 35 -61 27 -74 -8 -13 -65 66 -68
97 -3 28 -15 46 -17 24 -1 -8 -1 -17 0 -22 1 -4 -8 -2 -19 5 -11 7 -18 19 -15
27 3 8 -3 20 -14 27 -10 7 -42 57 -72 109 -72 131 -170 225 -234 225 -16 0
-53 -10 -82 -22 l-53 -22 0 -358 0 -358 29 0 c37 0 48 -16 28 -38 -8 -9 -24
-34 -36 -55 -21 -37 -21 -48 -21 -567 l0 -530 1470 0 1470 0 -1 798 c0 724 -1
795 -16 775 -12 -18 -19 -20 -34 -13 -10 6 -16 16 -14 23 2 6 6 57 8 112 4 99
5 100 31 103 36 5 33 31 -4 39 -22 4 -32 13 -36 32 -15 69 -38 122 -57 136
-29 20 -126 20 -155 -1 -22 -15 -25 -15 -49 7 -20 20 -35 24 -83 24 -54 0 -62
-3 -95 -35 -37 -36 -55 -81 -55 -142 0 -24 -6 -40 -17 -46 -14 -8 -11 -19 29
-88 66 -116 91 -178 86 -219 -3 -31 -1 -35 18 -35 21 0 39 -22 27 -34 -11 -10
-48 -6 -63 7 -12 10 -12 9 0 -6 16 -21 22 -64 14 -91 -6 -18 -8 -18 -25 5 -10
13 -19 38 -19 56 0 17 -4 35 -10 38 -5 3 -10 12 -10 18 0 7 4 6 10 -3 6 -9 10
-10 10 -3 0 6 -4 14 -9 18 -5 3 -7 21 -4 40 4 24 0 43 -15 67 -11 18 -23 49
-27 68 -9 42 -36 100 -46 100 -4 0 -5 -18 -2 -40 5 -35 2 -43 -23 -63 -16 -12
-31 -21 -33 -20 -3 2 -6 34 -7 73 -1 47 -8 82 -22 108 -11 21 -23 52 -26 69
-8 34 -39 68 -55 59 -5 -3 -11 -2 -13 2 -5 13 -94 71 -133 88 -31 13 -39 12
-72 -1 -21 -9 -51 -28 -67 -43 l-29 -27 7 36 c6 33 3 40 -25 63 -35 30 -58 34
-112 21 -21 -6 -28 -3 -33 11 -17 47 -34 54 -120 54 -72 0 -88 3 -120 25 -43
29 -72 31 -117 9 -56 -28 -106 -109 -107 -171 0 -21 -12 -50 -34 -80 -71 -100
-70 -170 3 -211 39 -22 81 -29 81 -13 0 12 83 -5 122 -25 18 -9 59 -36 90 -61
57 -44 78 -48 78 -15 0 15 2 15 10 2 7 -11 10 4 10 48 l0 63 42 -3 c53 -4 61
-28 25 -66 -13 -15 -30 -37 -36 -50 -7 -12 -16 -20 -22 -17 -15 10 -10 -11 6
-25 8 -7 15 -21 15 -32 0 -24 15 -52 50 -98 25 -32 35 -58 31 -85 -1 -5 -6 -3
-11 5 -8 13 -10 13 -10 -1 0 -9 6 -19 14 -22 7 -3 26 -44 41 -90 31 -97 29
-140 -7 -135 -12 2 -23 11 -24 23 -5 36 -32 122 -48 152 -19 39 -28 86 -14 77
6 -4 8 1 6 12 -2 11 -10 18 -16 16 -7 -1 -11 1 -10 5 1 5 -3 19 -10 33 -6 14
-13 38 -17 54 -5 22 -10 27 -27 23 -22 -6 -31 -3 -121 37 -32 15 -56 22 -53
17 4 -5 32 -21 63 -36 69 -31 90 -49 108 -92 14 -33 15 -116 2 -129 -4 -4 -7
-17 -7 -28 0 -16 2 -18 9 -7 7 11 11 9 20 -8 10 -17 9 -21 -4 -21 -18 0 -19
-9 -4 -47 10 -26 12 -27 19 -8 5 11 9 14 9 7 1 -7 -4 -22 -9 -32 -8 -14 -6
-21 4 -27 8 -4 16 -19 18 -33 2 -14 8 -24 15 -23 31 6 20 -194 -14 -257 -14
-25 -26 -36 -46 -37 -15 -1 -27 3 -27 10 -1 7 -6 2 -13 -11 -13 -22 -14 -22
-29 -5 -8 10 -18 25 -21 33 -4 12 -6 11 -6 -3 -1 -16 -3 -16 -30 -2 -77 39
-98 126 -76 315 10 83 8 246 -2 207 -2 -9 -8 -15 -11 -13 -4 2 -8 -17 -9 -42
-2 -26 -7 -58 -12 -72 -6 -14 -12 -41 -14 -60 -6 -41 -16 -70 -26 -70 -15 0
-21 13 -11 25 6 8 5 35 -5 81 -8 38 -15 73 -15 77 0 5 -4 5 -10 2 -5 -3 -7
-27 -4 -53 4 -34 3 -43 -5 -32 -15 21 -26 5 -45 -64 -16 -55 -16 -59 0 -77 9
-10 30 -19 46 -19 33 0 35 -12 9 -49 -10 -14 -21 -35 -23 -46 -2 -16 2 -19 20
-17 23 3 23 3 8 -27 -22 -42 -20 -48 8 -22 32 30 69 21 60 -14 -5 -20 -1 -24
28 -30 18 -4 36 -13 40 -19 12 -18 9 -46 -4 -44 -13 3 -14 -31 -2 -62 5 -12 8
-10 15 7 8 22 39 23 39 2 0 -5 8 -9 19 -9 34 0 41 -21 27 -81 -15 -67 -22 -79
-44 -79 -17 0 -72 44 -72 58 0 11 -69 2 -76 -9 -8 -14 -47 -11 -80 6 -124 62
-227 343 -185 505 5 19 11 85 13 145 2 61 5 112 8 115 3 3 15 45 27 94 l21 89
-27 23 c-14 13 -31 24 -37 24 -19 0 -44 35 -44 61 0 13 13 41 30 61 16 20 30
47 30 60 -1 12 -1 51 0 86 0 34 -4 71 -10 82 -5 10 -10 34 -10 54 0 30 5 36
40 53 22 10 40 21 40 25 0 6 -33 14 -90 21 -8 1 -30 33 -49 70 -42 86 -77 107
-143 88 -23 -7 -57 -28 -75 -46 -31 -31 -33 -38 -33 -101 l-1 -69 -44 -28
c-44 -28 -64 -64 -50 -88 5 -7 24 -10 56 -6 47 6 49 5 55 -21 18 -82 27 -104
52 -129 16 -15 37 -41 48 -58 30 -47 116 -159 130 -170 29 -23 82 -147 55
-131 -5 4 -12 0 -14 -6 -3 -7 -6 4 -6 25 -1 37 -9 45 -27 27 -7 -7 -17 -3 -32
10 -11 11 -25 20 -29 20 -8 0 -46 35 -69 63 -17 20 -44 73 -59 118 -26 73
-135 207 -169 209 -6 0 -20 10 -33 22 l-23 21 0 -21 c0 -29 -20 -28 -21 1 -1
12 0 27 1 32 1 6 4 19 6 30 3 11 9 41 14 67 5 26 16 64 25 84 8 21 15 51 14
68 -4 56 8 72 70 95 81 29 84 46 13 66 -83 23 -82 23 -83 42 -1 31 -7 54 -29
113 -18 47 -28 61 -62 78 -53 29 -115 29 -159 -1z m1673 -561 c47 -60 89 -138
89 -163 0 -2 4 -16 9 -33 5 -18 5 -30 -1 -30 -5 0 -9 4 -9 8 0 9 -106 122
-115 122 -3 0 5 -19 18 -43 21 -38 23 -46 11 -62 -8 -10 -14 -13 -14 -7 0 7
-4 12 -9 12 -4 0 -2 -23 5 -52 8 -29 14 -60 14 -70 0 -10 5 -18 10 -18 6 0 14
-8 17 -17 4 -9 21 -38 38 -64 30 -46 47 -88 60 -151 3 -18 14 -30 28 -33 18
-5 29 -21 44 -66 23 -66 20 -104 -6 -94 -8 3 -13 3 -9 0 7 -7 -87 -104 -103
-106 -5 -1 -18 -2 -28 -3 -11 0 -23 -5 -27 -9 -11 -11 -14 -38 -3 -31 5 3 7
11 3 17 -3 7 4 1 16 -13 12 -14 18 -18 14 -10 -7 12 -5 13 8 2 20 -16 76 -5
107 22 42 37 69 109 69 186 0 88 11 105 29 49 17 -51 43 -85 43 -56 0 9 5 16
11 15 17 -4 19 30 3 46 -8 8 -14 17 -14 20 0 12 28 5 41 -10 10 -12 25 -15 62
-11 40 3 50 1 62 -17 18 -24 20 -66 4 -66 -6 0 -8 -7 -5 -16 4 -9 1 -24 -6
-32 -10 -12 -10 -14 0 -8 7 4 12 2 12 -5 0 -7 -9 -9 -22 -5 -17 4 -31 -3 -53
-24 -20 -20 -42 -30 -67 -32 -21 -1 -40 -8 -42 -15 -3 -7 -12 -10 -21 -7 -8 4
-17 0 -21 -9 -3 -9 -17 -15 -34 -15 -16 1 -36 -7 -45 -16 -26 -25 -67 -44
-113 -51 -52 -8 -112 20 -182 82 -43 38 -48 48 -59 110 -6 37 -14 115 -16 173
-3 58 -10 128 -17 155 -11 50 -35 115 -42 115 -8 0 5 -94 15 -106 5 -7 14 -36
18 -65 l9 -53 -24 27 c-13 16 -24 37 -24 48 0 10 -5 19 -11 19 -5 0 -7 -4 -4
-10 9 -15 -2 -12 -30 6 -14 9 -31 14 -40 11 -21 -9 -29 12 -12 31 8 9 19 31
24 47 6 17 15 29 20 28 6 -1 13 29 16 67 10 120 86 240 196 311 25 16 48 29
53 29 4 0 27 -24 50 -54z m-388 -82 c5 -33 2 -45 -14 -59 -23 -21 -23 -21 -38
23 -12 36 -7 61 17 79 21 15 27 7 35 -43z m-1425 2 c27 -14 101 -89 101 -103
0 -4 -13 5 -28 20 -54 52 -99 25 -109 -64 -6 -55 -22 -102 -23 -67 0 11 -7 16
-20 15 -23 -1 -28 -17 -5 -17 8 0 15 -4 15 -10 0 -5 -7 -10 -15 -10 -17 0 -18
-9 -15 -96 1 -36 -3 -65 -9 -68 -7 -5 -11 5 -12 26 0 18 -4 94 -8 168 -4 74
-5 143 -1 153 5 16 75 66 93 67 4 0 20 -6 36 -14z m2491 -122 c0 -8 -4 -12
-10 -9 -5 3 -10 10 -10 16 0 5 5 9 10 9 6 0 10 -7 10 -16z m-2433 -57 c13 -21
26 -50 28 -65 37 -240 37 -257 4 -247 -26 8 -59 -3 -59 -20 0 -10 9 -12 36 -8
35 6 36 5 23 -16 -8 -11 -16 -21 -19 -21 -3 0 -16 -10 -30 -21 l-25 -21 38 6
c53 7 44 -16 -10 -27 -36 -7 -42 -12 -47 -40 -12 -60 -13 -107 -4 -107 5 0 8
-12 6 -27 -2 -20 -9 -28 -23 -28 -17 0 -20 6 -19 50 2 84 22 212 39 244 8 17
15 37 15 45 0 8 12 23 27 34 24 18 26 24 24 90 -2 75 -22 167 -46 216 -13 25
-13 27 2 15 8 -8 27 -31 40 -52z m1787 -23 c3 -8 2 -12 -4 -9 -6 3 -10 10 -10
16 0 14 7 11 14 -7z m-1256 -151 c51 -72 72 -200 52 -317 -12 -72 -65 -191
-85 -191 -14 0 -5 106 12 143 10 20 13 46 10 68 -3 19 -1 46 5 60 9 18 8 30
-2 48 -7 14 -10 38 -7 53 4 22 1 32 -13 41 -20 12 -18 40 4 54 6 4 7 10 3 15
-5 4 -12 1 -18 -7 -8 -13 -10 -13 -18 0 -6 8 -6 17 -2 20 4 3 10 13 14 23 9
24 23 21 45 -10z m272 -88 c0 -8 -4 -15 -10 -15 -5 0 -10 7 -10 15 0 8 5 15
10 15 6 0 10 -7 10 -15z m1736 -32 c70 -36 96 -54 100 -72 6 -19 7 -79 4 -181
0 -8 3 -50 6 -92 4 -46 3 -78 -3 -78 -5 0 -19 21 -31 48 -11 26 -25 54 -31 62
-5 8 -15 35 -22 60 -7 25 -16 49 -21 55 -13 15 -9 55 5 55 15 0 53 -33 60 -52
2 -7 8 -10 11 -6 9 8 -23 78 -35 78 -25 0 -90 62 -118 113 -17 31 -29 57 -26
57 3 0 49 -21 101 -47z m114 3 c0 -8 -4 -17 -9 -21 -12 -7 -24 12 -16 25 9 15
25 12 25 -4z m-344 -61 l27 -36 -28 -29 c-33 -34 -43 -30 -49 23 -4 29 -2 37
11 37 14 0 14 2 -2 20 -16 17 -16 20 -2 20 9 0 28 -16 43 -35z m-986 -55 c0
-13 -1 -13 -10 0 -5 8 -10 22 -10 30 0 13 1 13 10 0 5 -8 10 -22 10 -30z
m1068 -3 c16 -44 15 -52 -3 -37 -18 15 -35 5 -35 -20 0 -25 20 -36 34 -18 17
22 48 31 44 12 -2 -8 -7 -14 -12 -14 -5 1 -13 -5 -18 -14 -5 -9 -22 -16 -38
-16 -33 0 -35 8 -24 94 8 57 34 63 52 13z m42 -10 c0 -10 -4 -15 -10 -12 -5 3
-10 18 -10 33 0 21 2 24 10 12 5 -8 10 -23 10 -33z m-55 -167 c3 -5 1 -10 -4
-10 -6 0 -11 5 -11 10 0 6 2 10 4 10 3 0 8 -4 11 -10z m-2505 -61 c0 -5 -4 -9
-10 -9 -5 0 -10 7 -10 16 0 8 5 12 10 9 6 -3 10 -10 10 -16z m2110 -45 c0 -12
-2 -12 -14 -2 -8 7 -12 16 -9 21 7 11 23 -2 23 -19z m434 -65 c10 -28 16 -66
14 -83 -1 -20 2 -30 10 -28 24 4 11 -24 -18 -41 l-30 -18 0 25 c0 14 -4 26
-10 26 -5 0 -7 -13 -4 -29 5 -22 1 -32 -21 -49 -33 -26 -45 -21 -45 18 0 16
-4 31 -10 35 -5 3 -13 20 -19 38 -5 18 -12 39 -16 48 -4 12 3 23 24 39 l31 21
9 -23 c9 -22 10 -22 10 6 1 26 32 66 51 66 4 0 15 -23 24 -51z m86 0 c0 -20 4
-29 13 -26 6 2 11 12 11 21 -2 18 1 19 45 10 37 -8 40 -20 7 -28 -19 -5 -23
-11 -19 -27 3 -11 12 -23 19 -26 16 -6 19 -73 4 -73 -14 0 -13 -33 2 -48 9 -9
9 -12 -3 -12 -9 0 -19 3 -23 7 -4 4 -19 9 -34 10 -15 2 -33 11 -39 20 -17 22
-17 75 -1 91 9 9 10 15 2 20 -6 4 -9 25 -8 47 2 47 1 45 14 45 6 0 10 -14 10
-31z m134 18 c28 -21 16 -41 -12 -22 -22 16 -30 35 -14 35 5 0 16 -6 26 -13z
m-1058 -124 c-3 -38 -8 -107 -12 -155 -4 -60 -10 -88 -20 -92 -23 -9 -25 8 -9
95 8 46 17 114 21 152 4 37 11 67 16 67 6 0 8 -27 4 -67z m687 -43 c3 -11 1
-20 -4 -20 -5 0 -9 9 -9 20 0 11 2 20 4 20 2 0 6 -9 9 -20z m-2453 -69 c0 -11
-4 -23 -10 -26 -6 -4 -10 5 -10 19 0 14 5 26 10 26 6 0 10 -9 10 -19z m2793
-41 c3 -11 1 -20 -4 -20 -5 0 -9 9 -9 20 0 11 2 20 4 20 2 0 6 -9 9 -20z
m-1078 -170 c3 -5 1 -10 -4 -10 -6 0 -11 5 -11 10 0 6 2 10 4 10 3 0 8 -4 11
-10z m720 0 c16 -7 13 -9 -17 -9 -21 -1 -38 4 -38 9 0 12 27 12 55 0z m21 -52
c14 -17 14 -19 2 -10 -9 7 -30 14 -47 14 -39 1 -41 18 -3 18 18 0 37 -9 48
-22z m-36 -18 c0 -5 -9 -10 -20 -10 -11 0 -20 5 -20 10 0 6 9 10 20 10 11 0
20 -4 20 -10z m-460 -101 c0 -20 -15 -26 -25 -9 -9 15 3 43 15 35 5 -3 10 -15
10 -26z m-270 -209 c0 -5 -9 -6 -20 -3 -11 3 -20 9 -20 13 0 5 9 6 20 3 11 -3
20 -9 20 -13z m-14 -20 c15 -6 24 -13 22 -16 -8 -8 -58 7 -58 17 0 11 3 11 36
-1z m2 -36 c12 -4 22 -10 22 -13 0 -10 -59 -1 -66 10 -6 10 11 11 44 3z"/>
<path d="M2800 3199 c0 -5 5 -7 10 -4 6 3 10 8 10 11 0 2 -4 4 -10 4 -5 0 -10
-5 -10 -11z"/>
<path d="M3205 2629 c11 -17 17 -69 8 -69 -4 0 -14 -4 -22 -9 -10 -7 -11 -13
-1 -31 11 -21 12 -21 31 -4 10 9 19 23 19 31 0 7 4 13 9 13 5 0 7 9 4 20 -3
11 -9 17 -14 14 -5 -3 -9 6 -9 20 0 17 -6 26 -16 26 -8 0 -12 -5 -9 -11z"/>
<path d="M2974 2568 l-19 -23 23 19 c21 18 27 26 19 26 -2 0 -12 -10 -23 -22z"/>
<path d="M3370 2710 c0 -5 5 -10 11 -10 5 0 7 5 4 10 -3 6 -8 10 -11 10 -2 0
-4 -4 -4 -10z"/>
<path d="M3455 2350 c-3 -5 -1 -10 4 -10 6 0 11 5 11 10 0 6 -2 10 -4 10 -3 0
-8 -4 -11 -10z"/>
<path d="M3470 2302 c0 -12 19 -26 26 -19 2 2 -2 10 -11 17 -9 8 -15 8 -15 2z"/>
<path d="M3360 2280 c0 -5 5 -10 10 -10 6 0 10 5 10 10 0 6 -4 10 -10 10 -5 0
-10 -4 -10 -10z"/>
<path d="M3376 2232 c-3 -5 1 -15 9 -22 16 -14 20 -3 6 19 -5 8 -11 9 -15 3z"/>
<path d="M3405 2150 c3 -5 8 -10 11 -10 2 0 4 5 4 10 0 6 -5 10 -11 10 -5 0
-7 -4 -4 -10z"/>
<path d="M3577 2213 c-11 -10 -8 -51 4 -59 18 -10 32 13 25 40 -6 26 -16 32
-29 19z"/>
<path d="M3050 3230 c0 -5 5 -10 10 -10 6 0 10 5 10 10 0 6 -4 10 -10 10 -5 0
-10 -4 -10 -10z"/>
<path d="M1150 3224 c0 -6 7 -19 16 -30 14 -18 14 -18 3 6 -14 31 -19 36 -19
24z"/>
<path d="M1315 3109 c-4 -6 -5 -12 -2 -15 2 -3 7 2 10 11 7 17 1 20 -8 4z"/>
<path d="M2135 2940 c3 -5 14 -10 23 -10 15 0 15 2 2 10 -20 13 -33 13 -25 0z"/>
<path d="M2142 2740 c0 -14 2 -19 5 -12 2 6 2 18 0 25 -3 6 -5 1 -5 -13z"/>
<path d="M2420 2409 c0 -5 5 -7 10 -4 6 3 10 8 10 11 0 2 -4 4 -10 4 -5 0 -10
-5 -10 -11z"/>
<path d="M2332 2380 c0 -14 2 -19 5 -12 2 6 2 18 0 25 -3 6 -5 1 -5 -13z"/>
<path d="M2023 2353 c-13 -2 -23 -9 -23 -14 0 -15 53 -7 58 9 2 6 0 11 -5 11
-4 -1 -18 -4 -30 -6z"/>
<path d="M2315 2320 c-4 -17 -5 -34 -2 -36 3 -3 8 9 12 26 4 17 5 34 2 36 -3
3 -8 -9 -12 -26z"/>
<path d="M2415 2290 c-3 -5 -1 -10 4 -10 6 0 11 5 11 10 0 6 -2 10 -4 10 -3 0
-8 -4 -11 -10z"/>
<path d="M2035 2230 c-3 -5 -2 -10 4 -10 5 0 13 5 16 10 3 6 2 10 -4 10 -5 0
-13 -4 -16 -10z"/>
<path d="M2105 2209 c-4 -6 -5 -12 -2 -15 2 -3 7 2 10 11 7 17 1 20 -8 4z"/>
</g>
</svg>
