<?xml version="1.0" standalone="no"?>
<!DOCTYPE svg PUBLIC "-//W3C//DTD SVG 20010904//EN"
 "http://www.w3.org/TR/2001/REC-SVG-20010904/DTD/svg10.dtd">
<svg version="1.0" xmlns="http://www.w3.org/2000/svg"
 width="466.000000pt" height="466.000000pt" viewBox="0 0 466.000000 466.000000"
 preserveAspectRatio="xMidYMid meet">

<g transform="translate(0.000000,466.000000) scale(0.100000,-0.100000)"
fill="#000000" stroke="none">
<path d="M2165 4498 c-16 -5 -46 -14 -65 -20 -147 -44 -304 -217 -332 -368
-26 -141 -26 -366 1 -585 14 -114 61 -325 95 -432 7 -21 5 -23 -39 -21 -41 2
-51 -1 -72 -26 -18 -21 -23 -36 -19 -55 3 -14 9 -60 12 -101 5 -63 11 -81 36
-113 37 -47 58 -97 58 -138 0 -21 9 -39 28 -57 34 -32 39 -49 52 -176 13 -125
30 -273 35 -311 4 -28 16 -138 34 -295 10 -81 30 -122 78 -155 37 -24 42 -25
215 -25 282 0 283 1 323 405 3 33 10 96 15 140 5 44 17 148 26 230 15 133 19
152 40 170 14 12 29 44 38 79 8 33 31 82 50 110 29 44 36 64 46 145 13 109 9
126 -32 151 -25 15 -35 16 -55 7 -39 -17 -45 1 -24 73 63 214 101 482 101 707
0 254 -45 397 -163 517 -66 66 -167 123 -260 145 -56 13 -180 13 -222 -1z
m246 -53 c169 -59 281 -174 322 -330 12 -46 14 -179 3 -280 -6 -66 -18 -212
-35 -455 -5 -58 -11 -112 -14 -120 -3 -8 -8 -78 -12 -155 l-6 -140 23 23 c50
47 80 20 80 -70 -1 -72 -8 -94 -56 -160 -20 -28 -36 -65 -40 -92 -5 -34 -14
-51 -35 -65 -26 -19 -29 -27 -40 -138 -7 -65 -17 -149 -21 -188 -5 -38 -15
-140 -24 -225 -22 -230 -35 -312 -55 -340 -30 -42 -80 -52 -241 -48 -149 3
-174 9 -199 50 -13 20 -39 202 -71 493 -41 376 -41 378 -65 397 -13 10 -29 42
-39 77 -9 33 -27 73 -40 88 -36 44 -43 63 -50 143 -8 96 5 122 53 103 l31 -11
0 46 c0 40 -9 148 -24 307 -3 22 -9 117 -16 210 -6 94 -15 204 -20 245 -17
128 -13 259 11 330 48 147 161 257 314 306 57 18 213 17 266 -1z"/>
<path d="M2055 2907 c-60 -10 -94 -33 -111 -74 -28 -66 -11 -141 40 -173 52
-33 136 -29 180 9 23 20 67 106 59 115 -16 15 -34 2 -59 -43 -32 -59 -68 -79
-121 -65 -78 20 -102 109 -45 167 l32 32 260 0 259 0 28 -28 c40 -39 40 -105
0 -144 -23 -23 -36 -28 -74 -27 -39 1 -50 6 -70 30 -12 16 -23 34 -23 40 0 18
-39 49 -50 38 -13 -14 25 -88 61 -118 37 -32 114 -36 160 -9 38 23 70 88 64
132 -5 41 -48 98 -83 113 -32 13 -436 17 -507 5z"/>
<path d="M2259 2783 c-2 -34 3 -668 5 -671 8 -7 76 41 76 55 0 9 -6 13 -14 10
-8 -3 -17 2 -21 11 -3 8 -8 144 -11 301 -3 157 -8 289 -10 293 -6 10 -24 10
-25 1z"/>
<path d="M2430 1960 c0 -5 7 -10 16 -10 8 0 12 5 9 10 -3 6 -10 10 -16 10 -5
0 -9 -4 -9 -10z"/>
<path d="M2258 1943 c6 -2 18 -2 25 0 6 3 1 5 -13 5 -14 0 -19 -2 -12 -5z"/>
</g>
</svg>
