<?xml version="1.0" standalone="no"?>
<!DOCTYPE svg PUBLIC "-//W3C//DTD SVG 20010904//EN"
 "http://www.w3.org/TR/2001/REC-SVG-20010904/DTD/svg10.dtd">
<svg version="1.0" xmlns="http://www.w3.org/2000/svg"
 width="466.000000pt" height="466.000000pt" viewBox="0 0 466.000000 466.000000"
 preserveAspectRatio="xMidYMid meet">

<g transform="translate(0.000000,466.000000) scale(0.100000,-0.100000)"
fill="#000000" stroke="none">
<path d="M2162 4285 c-45 -23 -95 -58 -133 -95 -56 -55 -63 -59 -130 -70 -85
-15 -188 -64 -248 -120 -24 -23 -62 -50 -85 -62 -92 -47 -203 -197 -241 -326
-9 -29 -15 -101 -17 -182 -1 -120 1 -140 20 -184 26 -58 26 -56 8 -56 -23 0
-56 -63 -56 -108 0 -27 12 -63 35 -107 19 -36 34 -78 34 -93 0 -15 3 -67 7
-117 8 -117 8 -122 -1 -177 -5 -34 -3 -54 8 -77 15 -30 15 -31 -30 -76 -45
-44 -46 -46 -40 -94 8 -66 41 -142 78 -177 35 -33 36 -40 7 -48 -32 -8 -182
-96 -251 -148 -32 -24 -74 -64 -93 -91 -38 -52 -41 -62 -19 -53 22 8 19 -36
-5 -84 -11 -22 -16 -41 -10 -45 10 -6 5 -188 -5 -205 -4 -6 -3 -16 2 -22 4 -7
6 -37 4 -65 l-3 -53 515 0 c403 0 517 3 521 13 5 9 7 9 12 0 4 -10 161 -13
732 -13 400 0 721 4 714 9 -10 6 -10 10 2 20 8 7 12 19 9 27 -3 7 2 17 11 20
9 3 16 17 16 32 0 14 8 34 17 44 15 17 15 20 1 34 -12 12 -21 13 -34 6 -46
-25 -186 -37 -416 -37 -130 1 -240 4 -244 8 -4 4 15 30 43 59 54 58 121 154
160 231 23 46 31 75 32 121 1 17 5 16 34 -11 17 -17 68 -51 112 -74 44 -23 92
-51 107 -61 33 -23 56 -18 103 24 72 63 163 215 186 308 7 30 16 59 21 64 21
25 -8 121 -52 171 -9 11 -22 35 -28 52 -16 49 -67 118 -117 160 -32 26 -45 45
-45 63 0 14 -7 35 -15 47 -21 30 -77 63 -107 63 -35 0 -39 8 -22 41 23 46 34
124 25 175 -9 46 -52 104 -78 104 -7 0 -13 5 -13 10 0 6 4 10 9 10 5 0 24 12
41 27 30 24 32 30 26 70 -3 24 -15 63 -26 88 -11 24 -20 51 -20 59 0 8 -6 27
-14 43 -50 100 -116 251 -116 266 0 6 -11 22 -24 36 -13 15 -31 49 -41 76 -22
61 -58 111 -97 135 -16 9 -50 44 -76 76 -26 33 -62 66 -79 75 -45 22 -93 68
-125 116 -42 64 -97 112 -147 127 -25 8 -63 21 -84 30 -20 9 -72 19 -115 21
-73 5 -81 4 -150 -30z m151 -29 c11 -9 15 -20 10 -31 -6 -16 -2 -17 32 -12
l38 6 -20 -22 c-23 -25 -35 -84 -19 -91 7 -2 6 -8 -3 -17 -10 -11 -15 -11 -18
-2 -4 10 -11 9 -33 -2 -36 -19 -40 -19 -40 0 0 21 -13 19 -35 -5 -10 -11 -22
-17 -26 -14 -14 8 -10 68 6 90 26 34 16 37 -20 5 -20 -17 -40 -31 -45 -31 -5
0 -12 -11 -16 -25 -3 -14 -11 -25 -16 -25 -6 0 -8 -14 -6 -30 5 -31 -5 -49
-17 -30 -14 22 -26 9 -20 -20 6 -27 4 -30 -19 -30 -16 0 -26 -6 -26 -15 0 -8
5 -15 10 -15 6 0 10 -4 10 -9 0 -8 -36 -13 -190 -26 -74 -7 -102 4 -81 29 8
10 29 16 54 16 38 0 39 1 24 18 -29 32 -21 42 27 36 42 -6 44 -5 39 15 -4 16
-1 21 15 21 12 0 24 -4 27 -10 11 -17 25 -11 25 10 0 18 3 19 22 9 18 -10 24
-8 35 7 7 10 13 29 13 43 0 26 92 134 135 159 27 16 106 14 128 -2z m254 -202
c12 -8 30 -14 39 -14 9 0 14 -6 11 -13 -3 -8 9 -25 26 -38 16 -13 40 -34 52
-46 12 -13 29 -23 36 -23 8 0 1 -12 -16 -26 -16 -14 -25 -27 -20 -30 33 -15
40 -23 27 -36 -15 -15 -15 -28 1 -28 14 0 39 -48 28 -54 -4 -3 -29 -8 -57 -11
-48 -6 -49 -6 -74 31 -14 21 -36 48 -49 60 l-24 22 22 13 c27 17 27 35 0 50
-14 7 -19 17 -16 30 4 15 -2 20 -28 25 -19 3 -41 15 -51 25 -9 10 -25 19 -36
19 -32 0 -22 39 15 55 35 16 79 11 114 -11z m-829 -211 c2 -9 -11 -13 -47 -13
-55 0 -63 6 -28 20 29 12 69 8 75 -7z m524 -91 c7 -7 19 -12 28 -12 9 0 25 -9
35 -20 11 -12 36 -31 57 -42 24 -14 41 -33 48 -54 6 -18 31 -52 56 -76 44 -41
104 -117 190 -237 52 -74 94 -203 94 -292 0 -54 -4 -71 -26 -100 -14 -19 -42
-58 -62 -88 -21 -30 -47 -70 -60 -89 -13 -18 -21 -36 -19 -39 3 -2 13 8 22 24
9 15 39 44 67 63 28 19 60 49 72 67 22 35 35 40 53 22 9 -9 20 -5 44 15 23 19
39 26 53 21 12 -4 31 -9 44 -12 12 -3 22 -9 22 -14 0 -5 6 -9 14 -9 8 0 16 -7
20 -15 3 -8 15 -15 26 -15 17 0 19 -4 14 -27 -10 -40 -11 -42 -62 -74 -46 -29
-114 -40 -127 -19 -14 22 -23 7 -29 -47 -4 -32 -15 -83 -26 -113 -13 -38 -14
-49 -4 -36 8 11 14 25 14 32 0 6 6 17 14 23 11 9 14 -3 20 -66 3 -42 6 -119 6
-172 0 -132 16 -232 39 -251 10 -8 28 -30 40 -48 19 -28 21 -40 16 -87 -4 -31
-16 -64 -27 -77 -11 -13 -48 -54 -83 -93 -35 -38 -81 -95 -104 -125 -41 -54
-89 -90 -123 -90 -10 0 -36 -7 -59 -16 -39 -16 -46 -16 -140 5 -95 22 -295 83
-329 101 -12 7 -20 35 -29 112 -6 57 -17 139 -22 183 -6 44 -11 88 -11 98 1 9
-6 17 -14 17 -32 0 -132 62 -187 116 -43 41 -69 78 -97 138 -20 45 -53 106
-72 136 -41 67 -64 120 -78 180 -11 52 -12 207 -2 265 8 40 8 40 51 37 37 -2
42 0 37 15 -3 10 4 29 15 42 19 23 20 23 39 6 10 -9 24 -14 31 -10 8 6 7 10
-5 17 -9 5 -14 14 -10 20 4 6 -9 9 -37 6 -37 -2 -44 0 -43 15 2 24 -4 22 -37
-14 -16 -17 -33 -28 -39 -24 -13 8 -13 91 0 116 16 28 100 27 126 -2 10 -12
39 -30 63 -40 24 -11 56 -33 72 -50 16 -18 31 -30 33 -28 2 2 -5 28 -16 57
-13 34 -32 61 -55 80 -34 25 -43 27 -130 27 l-93 0 0 65 c0 134 48 261 122
325 130 112 506 231 560 177z m558 -178 c0 -18 -14 -18 -30 1 -16 19 -3 40 16
24 8 -6 14 -18 14 -25z m-120 -31 c0 -13 -3 -13 -15 -3 -8 7 -15 19 -15 27 0
13 3 13 15 3 8 -7 15 -19 15 -27z m249 -29 c5 4 12 -2 15 -12 4 -11 17 -24 31
-30 16 -8 26 -23 31 -47 9 -50 -1 -54 -39 -17 -18 18 -39 32 -45 32 -17 0 -45
68 -37 89 6 14 8 14 20 -3 8 -10 18 -15 24 -12z m-1509 -124 c0 -27 -5 -52
-10 -55 -17 -10 -47 4 -53 25 -3 11 -12 20 -21 20 -22 0 -20 29 2 37 9 4 23
15 30 25 10 14 17 16 33 8 15 -8 19 -21 19 -60z m1386 -97 c-11 -11 -19 6 -11
24 8 17 8 17 12 0 3 -10 2 -21 -1 -24z m334 -174 c0 -5 -13 -15 -30 -20 -33
-12 -36 -19 -18 -37 9 -9 8 -12 -5 -12 -10 0 -29 12 -42 26 -41 44 -33 54 42
54 30 0 53 -4 53 -11z m-111 -68 c16 -10 6 -31 -15 -31 -9 0 -25 5 -36 11 -17
9 -18 13 -7 20 18 11 40 11 58 0z m76 -184 c18 -19 0 -47 -31 -47 -17 0 -24 4
-20 13 3 6 9 20 12 30 8 20 21 22 39 4z m245 -283 c0 -8 -5 -12 -10 -9 -6 4
-8 11 -5 16 9 14 15 11 15 -7z m-50 -14 c0 -5 -7 -10 -15 -10 -8 0 -15 5 -15
10 0 6 7 10 15 10 8 0 15 -4 15 -10z m-320 -770 c0 -5 -4 -10 -10 -10 -5 0
-10 5 -10 10 0 6 5 10 10 10 6 0 10 -4 10 -10z m-30 -50 c0 -5 -4 -10 -10 -10
-5 0 -10 5 -10 10 0 6 5 10 10 10 6 0 10 -4 10 -10z m-190 -186 c0 -9 -32 -33
-44 -34 -5 0 -1 9 10 19 19 20 34 26 34 15z m-260 -54 c0 -5 -7 -10 -16 -10
-8 0 -12 5 -9 10 3 6 10 10 16 10 5 0 9 -4 9 -10z m66 -47 c-10 -10 -19 5 -10
18 6 11 8 11 12 0 2 -7 1 -15 -2 -18z m739 -63 c17 -7 15 -9 -12 -9 -18 -1
-33 4 -33 9 0 12 17 12 45 0z m-1435 -30 c0 -5 -5 -10 -11 -10 -5 0 -7 5 -4
10 3 6 8 10 11 10 2 0 4 -4 4 -10z"/>
<path d="M2153 3350 c-29 -17 -53 -47 -53 -66 0 -4 15 6 33 23 17 16 43 37 57
46 35 24 2 21 -37 -3z"/>
<path d="M2246 3175 c-21 -7 -52 -26 -70 -42 -17 -15 -33 -29 -35 -30 -2 -2
-1 -6 2 -10 4 -3 20 5 35 19 24 22 79 48 103 48 5 0 6 -7 3 -15 -7 -18 0 -19
24 -4 14 9 25 8 49 -5 29 -15 32 -14 58 6 l27 21 -23 13 c-31 17 -124 17 -173
-1z"/>
<path d="M2923 2883 c-20 -8 -15 -23 7 -23 11 0 20 7 20 15 0 15 -6 17 -27 8z"/>
<path d="M1977 2714 c-3 -3 -23 -12 -44 -19 -33 -11 -42 -11 -65 3 -31 18 -47
10 -29 -12 7 -8 10 -19 7 -25 -9 -14 27 -71 45 -71 22 0 57 29 72 59 7 15 26
28 47 34 43 11 48 16 30 27 -17 11 -54 13 -63 4z"/>
<path d="M2746 2462 c-36 -42 -36 -44 -7 -17 28 25 58 66 49 65 -2 -1 -21 -22
-42 -48z"/>
<path d="M1986 2493 c-4 -4 -23 -7 -44 -8 -30 0 -40 -6 -59 -35 -13 -19 -31
-43 -39 -53 -9 -11 -14 -20 -12 -21 2 -1 24 -16 51 -34 34 -24 56 -32 80 -30
l32 3 -38 23 c-29 17 -38 28 -35 45 2 18 11 23 45 28 23 3 49 11 57 19 10 7
50 15 94 17 143 8 162 22 51 41 -63 11 -74 10 -100 -5 -29 -17 -31 -17 -40 0
-10 18 -30 22 -43 10z"/>
<path d="M2684 2394 c-18 -14 -18 -15 4 -4 12 6 22 13 22 15 0 8 -5 6 -26 -11z"/>
</g>
</svg>
