<?xml version="1.0" standalone="no"?>
<!DOCTYPE svg PUBLIC "-//W3C//DTD SVG 20010904//EN"
 "http://www.w3.org/TR/2001/REC-SVG-20010904/DTD/svg10.dtd">
<svg version="1.0" xmlns="http://www.w3.org/2000/svg"
 width="466.000000pt" height="466.000000pt" viewBox="0 0 466.000000 466.000000"
 preserveAspectRatio="xMidYMid meet">

<g transform="translate(0.000000,466.000000) scale(0.100000,-0.100000)"
fill="#000000" stroke="none">
<path d="M2431 4547 c-5 -13 -33 -108 -61 -212 -31 -113 -59 -195 -70 -204 -9
-9 -32 -69 -50 -134 -18 -65 -37 -120 -42 -123 -4 -3 -8 -20 -8 -37 l0 -32
-412 3 c-310 2 -418 0 -435 -9 -25 -14 -189 14 -463 77 -162 38 -170 39 -170
21 0 -15 216 -69 445 -112 77 -15 150 -28 163 -31 l22 -4 0 -233 c0 -127 -7
-725 -15 -1327 -11 -860 -12 -1097 -2 -1106 19 -18 1936 -39 1952 -22 9 10 16
350 29 1362 9 742 17 1350 19 1352 1 2 97 16 212 33 246 36 484 77 493 85 15
16 -16 18 -86 7 -191 -30 -481 -72 -629 -90 -145 -18 -198 -20 -509 -14 l-346
6 5 41 c12 88 18 122 22 136 3 8 7 33 11 55 6 41 44 190 95 374 16 57 27 106
25 109 -5 4 -166 51 -179 52 -4 0 -11 -10 -16 -23z m112 -13 c40 -11 67 -24
67 -32 0 -12 -68 -276 -105 -407 -8 -27 -20 -86 -26 -129 -6 -44 -17 -89 -24
-100 -7 -12 -16 -37 -20 -56 -4 -19 -11 -39 -15 -45 -4 -5 -26 -79 -49 -164
-22 -85 -44 -158 -48 -162 -11 -11 -173 31 -173 45 0 7 4 16 9 21 16 18 70
214 86 315 2 14 8 38 14 53 14 37 14 47 -3 47 -20 0 13 108 36 115 10 4 23 33
37 83 11 42 41 149 66 237 25 88 45 167 45 176 0 20 11 31 24 25 6 -2 41 -12
79 -22z m-327 -746 c6 -6 -33 -151 -59 -223 l-15 -40 -294 -1 c-161 0 -298 -1
-304 -2 -7 -1 -14 -56 -19 -158 -6 -129 -4 -159 7 -171 12 -12 146 -16 807
-25 449 -6 796 -7 801 -2 11 11 16 316 6 332 -5 9 -83 12 -290 12 -156 0 -330
3 -388 6 l-105 7 29 109 c21 77 36 116 55 134 l26 26 425 -8 425 -7 -6 -321
c-4 -177 -12 -784 -18 -1351 -7 -566 -15 -1034 -19 -1038 -8 -9 -1931 12
-1942 22 -7 7 20 2625 28 2680 l5 34 420 -5 c230 -2 422 -7 425 -10z m-576
-418 l0 -70 40 0 c34 0 40 -3 40 -21 0 -19 -4 -21 -31 -15 -17 3 -44 6 -60 6
l-29 0 0 85 c0 78 2 85 20 85 18 0 20 -7 20 -70z m140 -20 c0 -73 -3 -90 -15
-90 -12 0 -15 17 -15 90 0 73 3 90 15 90 12 0 15 -17 15 -90z m160 70 c0 -17
-5 -19 -25 -14 -24 6 -24 5 -27 -68 -2 -57 -6 -73 -18 -73 -12 0 -16 16 -18
73 -3 69 -4 72 -27 72 -24 0 -32 10 -18 23 3 4 35 7 70 7 57 0 63 -2 63 -20z
m106 10 c32 0 44 -4 44 -15 0 -11 -12 -15 -45 -15 -33 0 -45 -4 -45 -15 0 -11
11 -15 40 -15 29 0 40 -4 40 -15 0 -11 -11 -15 -40 -15 -36 0 -40 -2 -40 -25
0 -23 4 -25 45 -25 33 0 45 -4 45 -15 0 -12 -14 -15 -65 -15 l-65 0 0 83 c0
87 4 101 28 92 7 -3 34 -5 58 -5z m202 -12 c20 -20 15 -69 -8 -75 -19 -5 -18
-6 5 -38 30 -38 31 -45 6 -45 -10 0 -31 16 -45 35 -15 19 -31 35 -37 35 -5 0
-9 -16 -9 -35 0 -28 -4 -35 -20 -35 -18 0 -20 7 -20 85 l0 85 58 0 c32 0 63
-5 70 -12z m163 -60 c43 -104 43 -108 20 -108 -11 0 -22 9 -26 20 -8 25 -72
29 -81 5 -4 -8 -15 -15 -26 -15 -11 0 -18 4 -16 8 2 5 16 43 33 86 39 99 57
100 96 4z m169 57 c0 -9 -9 -15 -25 -15 -23 0 -25 -4 -25 -47 0 -62 -9 -93
-26 -93 -11 0 -14 17 -14 70 0 68 -1 70 -25 70 -16 0 -25 6 -25 15 0 12 14 15
70 15 56 0 70 -3 70 -15z m52 -51 c2 -49 7 -70 20 -77 31 -20 48 8 48 79 0 50
3 64 15 64 12 0 15 -15 15 -72 0 -83 -15 -108 -64 -108 -40 0 -52 9 -66 45
-14 37 -3 135 16 135 9 0 14 -19 16 -66z m266 44 c18 -15 15 -55 -7 -70 -18
-13 -18 -15 8 -47 l28 -34 33 82 c27 69 36 82 53 79 16 -2 29 -23 53 -85 29
-76 30 -83 13 -83 -10 0 -23 9 -29 20 -7 13 -21 20 -40 20 -19 0 -33 -7 -40
-20 -8 -15 -21 -20 -50 -20 -33 0 -41 5 -60 35 -27 44 -48 45 -52 3 -2 -22 -9
-34 -20 -36 -16 -3 -18 6 -18 81 0 46 2 86 5 89 9 8 109 -4 123 -14z"/>
<path d="M2266 3813 c-14 -14 -3 -21 52 -37 74 -20 82 -20 82 4 0 14 -9 20
-37 25 -21 3 -50 8 -64 10 -15 2 -29 1 -33 -2z"/>
<path d="M1823 3033 c-21 -8 -15 -38 11 -62 24 -23 24 -24 6 -43 -18 -20 -40
-89 -40 -129 0 -12 -13 -37 -30 -56 -37 -42 -38 -52 -3 -45 24 4 25 3 20 -19
-4 -13 -7 -27 -7 -31 0 -5 -4 -8 -9 -8 -4 0 -6 12 -3 26 3 19 1 25 -7 20 -6
-4 -11 -14 -11 -22 0 -8 -4 -14 -10 -14 -5 0 -7 7 -4 15 4 8 2 15 -4 15 -6 0
-18 -24 -28 -52 -25 -73 -22 -170 5 -233 15 -33 20 -57 15 -75 -4 -14 -6 -29
-6 -33 1 -4 -2 -16 -8 -26 -11 -21 5 -81 21 -81 5 0 18 15 29 33 14 22 20 27
20 14 0 -10 7 -25 15 -33 8 -9 15 -11 15 -5 0 6 9 11 20 11 11 0 20 -5 20 -11
0 -6 -7 -8 -15 -5 -9 3 -18 -1 -21 -8 -4 -12 -10 -10 -26 6 l-20 20 -21 -20
c-19 -19 -19 -24 -7 -49 7 -15 13 -31 12 -35 -1 -5 68 -8 154 -8 118 0 155 -3
152 -12 -7 -21 -46 -26 -195 -27 l-142 -1 -11 -37 c-5 -21 -15 -66 -22 -100
-6 -35 -15 -63 -20 -63 -14 0 -10 -110 5 -115 6 -2 301 -6 655 -8 l642 -5 0
64 c0 57 -2 64 -20 64 -13 0 -20 7 -20 19 0 10 -6 36 -13 57 -8 22 -17 58 -20
81 -6 37 -5 42 15 45 27 4 34 23 12 32 -14 5 -15 4 -4 -9 10 -12 9 -15 -6 -15
-11 -1 -93 -2 -184 -3 l-165 -1 -12 24 c-10 21 -13 22 -13 6 0 -10 7 -24 16
-30 15 -11 14 -19 -6 -85 -12 -40 -22 -81 -23 -92 -1 -11 -9 -19 -19 -19 -14
0 -16 6 -11 31 6 29 5 30 -15 18 -15 -10 -24 -10 -34 -1 -11 8 -25 6 -61 -12
-26 -12 -44 -25 -40 -29 3 -4 -35 -7 -85 -7 -54 0 -92 4 -92 10 0 6 18 7 44 4
43 -6 75 10 42 21 -53 17 -51 14 -32 28 39 28 60 224 32 291 -10 24 -22 35
-45 39 -17 4 -38 4 -46 1 -12 -5 -15 2 -15 35 0 36 4 44 30 59 41 23 45 43 21
98 -17 38 -19 50 -9 62 11 13 11 14 -1 7 -11 -6 -13 -4 -8 8 3 10 3 17 -1 17
-14 0 -28 -16 -47 -54 -11 -21 -38 -53 -59 -72 -22 -19 -37 -36 -34 -39 5 -5
56 44 118 115 l22 25 -18 -30 c-40 -68 -67 -104 -74 -100 -4 2 -18 -7 -30 -20
-13 -14 -18 -25 -12 -25 7 0 12 5 12 10 0 6 5 10 10 10 6 0 10 -4 10 -9 0 -12
-38 -25 -65 -24 -16 1 -17 1 -2 -3 23 -7 22 -35 -3 -41 -22 -6 -26 -18 -10
-28 6 -3 10 -10 10 -15 0 -6 -13 4 -29 20 -17 19 -38 30 -55 30 -35 0 -33 -13
9 -41 19 -13 33 -29 30 -36 -2 -7 0 -15 5 -18 10 -6 2 -35 -10 -35 -5 0 -6 10
-2 22 3 14 2 19 -6 14 -7 -4 -12 -13 -12 -21 0 -44 -57 -17 -58 27 -1 32 -29
71 -46 65 -19 -7 -48 14 -42 29 3 9 1 12 -4 9 -6 -3 -10 -3 -10 2 0 9 82 63
96 63 5 0 -9 -12 -29 -26 -21 -14 -36 -28 -33 -31 7 -7 86 46 86 57 0 12 -28
20 -47 14 -13 -4 -14 -3 -5 4 11 7 9 16 -9 46 -12 20 -19 40 -16 43 4 3 11 -7
17 -23 13 -35 59 -77 76 -70 7 3 18 -3 26 -12 9 -11 10 -14 1 -8 -8 4 -13 1
-13 -8 0 -9 -6 -16 -12 -16 -9 0 -10 -3 -2 -8 6 -4 13 -14 16 -22 6 -17 5 -19
24 45 7 21 17 31 36 35 35 6 142 122 127 137 -7 7 -2 13 17 17 22 6 25 9 13
17 -7 5 -18 9 -24 9 -5 0 -3 -5 5 -10 13 -8 12 -10 -2 -10 -10 0 -18 7 -18 15
0 8 8 15 18 16 14 0 14 2 -3 8 -16 7 -12 10 23 15 23 4 42 11 42 16 0 5 -28 2
-61 -6 -34 -8 -70 -12 -80 -9 -22 7 -27 -20 -6 -28 7 -3 5 -6 -5 -6 -10 -1
-18 4 -18 10 0 8 -17 10 -50 7 -31 -3 -50 -1 -50 5 0 7 -4 7 -11 0 -6 -6 -19
-9 -28 -6 -13 5 -13 2 3 -15 11 -12 25 -22 31 -22 7 0 18 -7 25 -15 16 -19 1
-19 -24 0 -11 8 -25 15 -30 15 -6 0 0 -9 13 -19 13 -10 21 -23 17 -29 -3 -6 0
-12 6 -15 7 -2 11 -7 8 -10 -3 -3 -19 3 -35 14 -28 19 -29 20 -5 14 24 -6 24
-5 -5 19 -19 17 -25 26 -15 26 12 1 11 4 -4 15 -12 9 -17 22 -13 35 3 11 1 20
-4 20 -5 0 -9 -4 -9 -10 0 -5 -4 -10 -10 -10 -6 0 -6 10 1 27 6 17 6 30 0 36
-7 7 -14 2 -20 -14 -9 -23 -10 -23 -10 9 -1 36 9 40 35 15 17 -18 61 -43 73
-43 3 0 -2 5 -11 11 -10 5 -18 17 -18 24 0 8 -4 15 -10 15 -16 0 -60 73 -60
100 0 15 11 41 24 59 l24 33 21 -21 21 -21 39 26 c37 24 40 25 76 10 21 -9 47
-16 59 -16 11 0 27 -4 35 -9 12 -8 13 -12 1 -25 -12 -15 -14 -14 -28 5 -9 13
-21 19 -33 16 -11 -3 -17 -1 -13 4 3 5 0 9 -5 9 -13 0 -13 -2 -1 -34 6 -17 17
-26 31 -26 16 0 20 -4 15 -17 -4 -10 7 -1 25 20 27 33 36 38 61 33 31 -6 74 9
82 29 8 23 -5 52 -29 63 -14 6 -58 12 -100 13 -41 1 -78 5 -80 9 -3 5 -13 7
-23 5 -22 -3 -63 18 -104 54 -35 30 -65 42 -85 34z m-83 -403 c0 -5 -5 -10
-11 -10 -5 0 -7 5 -4 10 3 6 8 10 11 10 2 0 4 -4 4 -10z m67 -30 c-1 -11 -5
-20 -9 -20 -4 0 -8 9 -8 20 0 11 4 20 9 20 6 0 9 -9 8 -20z m-77 0 c0 -5 -5
-10 -11 -10 -5 0 -7 5 -4 10 3 6 8 10 11 10 2 0 4 -4 4 -10z m40 -4 c0 -3 -4
-8 -10 -11 -5 -3 -10 -1 -10 4 0 6 5 11 10 11 6 0 10 -2 10 -4z m330 -21 c0
-9 -10 -15 -22 -16 -22 -1 -22 -1 2 -10 25 -9 25 -9 -2 -5 -16 2 -36 -3 -45
-10 -10 -7 -27 -14 -38 -15 -17 -1 -17 -2 -2 -6 18 -5 24 -33 6 -33 -5 0 -8
-4 -4 -9 3 -5 1 -12 -5 -16 -6 -4 -10 4 -10 19 0 14 -4 28 -10 31 -20 12 -9
25 20 25 20 0 30 5 30 15 0 8 3 14 8 13 4 -1 20 2 35 7 21 6 25 10 15 16 -10
7 -9 9 5 9 9 0 17 -7 17 -15z m-120 -7 c0 -5 -8 -8 -17 -9 -15 0 -15 -2 2 -9
13 -6 15 -9 5 -9 -8 0 -25 7 -37 17 l-23 17 35 0 c19 0 35 -3 35 -7z m30 8 c0
-3 -4 -8 -10 -11 -5 -3 -10 -1 -10 4 0 6 5 11 10 11 6 0 10 -2 10 -4z m-280
-10 c0 -3 -4 -8 -10 -11 -5 -3 -10 -1 -10 4 0 6 5 11 10 11 6 0 10 -2 10 -4z
m35 -36 c3 -5 1 -10 -4 -10 -6 0 -11 5 -11 10 0 6 2 10 4 10 3 0 8 -4 11 -10z
m30 0 c3 -5 1 -10 -4 -10 -6 0 -11 5 -11 10 0 6 2 10 4 10 3 0 8 -4 11 -10z
m63 -26 c0 -14 9 -34 21 -45 25 -24 28 -14 4 14 -18 20 -18 20 14 2 l31 -18
-23 -19 c-26 -20 -40 -24 -30 -7 4 6 0 16 -9 22 -18 14 -34 77 -18 77 5 0 10
-12 10 -26z m226 10 c8 -21 -1 -34 -25 -34 -12 0 -19 7 -19 18 0 34 33 45 44
16z m-319 -14 c3 -5 1 -10 -4 -10 -6 0 -11 5 -11 10 0 6 2 10 4 10 3 0 8 -4
11 -10z m35 0 c0 -5 -4 -10 -10 -10 -5 0 -10 5 -10 10 0 6 5 10 10 10 6 0 10
-4 10 -10z m30 0 c0 -5 -4 -10 -10 -10 -5 0 -10 5 -10 10 0 6 5 10 10 10 6 0
10 -4 10 -10z m-100 -4 c0 -3 -4 -8 -10 -11 -5 -3 -10 -1 -10 4 0 6 5 11 10
11 6 0 10 -2 10 -4z m236 -31 c1 -8 -2 -15 -8 -15 -6 0 -8 6 -5 14 3 7 1 19
-4 25 -6 8 -5 8 3 1 6 -5 13 -17 14 -25z m-196 -5 c0 -5 -2 -10 -4 -10 -3 0
-8 5 -11 10 -3 6 -1 10 4 10 6 0 11 -4 11 -10z m64 -52 c8 -5 7 -8 -1 -8 -7 0
-17 9 -23 19 -14 27 -12 41 2 16 6 -11 16 -23 22 -27z m354 6 c-4 -23 -26 -30
-34 -10 -8 20 15 51 29 37 5 -5 7 -17 5 -27z m-408 16 c0 -5 -2 -10 -4 -10 -3
0 -8 5 -11 10 -3 6 -1 10 4 10 6 0 11 -4 11 -10z m-20 -40 c0 -5 -4 -10 -10
-10 -5 0 -10 5 -10 10 0 6 5 10 10 10 6 0 10 -4 10 -10z m37 -46 c-3 -3 -12
-4 -19 -1 -8 3 -5 6 6 6 11 1 17 -2 13 -5z m-32 -14 c6 -9 -21 -70 -31 -70 -2
0 3 15 12 33 l17 32 -22 -20 -23 -20 13 28 c13 28 24 34 34 17z m362 -62 c-2
-13 -4 -3 -4 22 0 25 2 35 4 23 2 -13 2 -33 0 -45z m-342 -8 c-4 -6 -10 -8
-15 -5 -5 3 -11 -4 -15 -15 -3 -11 -10 -20 -15 -20 -5 0 1 18 13 39 17 30 24
36 30 25 4 -8 5 -19 2 -24z m304 26 c16 -20 3 -46 -24 -46 -13 0 -26 7 -29 16
-7 19 10 44 29 44 7 0 18 -6 24 -14z m51 -60 c0 -2 -8 -10 -17 -17 -16 -13
-17 -12 -4 4 13 16 21 21 21 13z m-265 -36 c-4 -6 -1 -17 5 -25 9 -11 9 -15 1
-15 -6 0 -11 5 -11 12 0 9 -3 9 -12 0 -15 -15 -38 -16 -38 -1 0 6 7 9 14 6 9
-4 17 2 21 14 4 10 11 19 16 19 6 0 7 -5 4 -10z m195 6 c0 -2 -7 -6 -15 -10
-8 -3 -15 -1 -15 4 0 6 7 10 15 10 8 0 15 -2 15 -4z m-285 -26 c3 -5 -1 -10
-9 -10 -9 0 -16 5 -16 10 0 6 4 10 9 10 6 0 13 -4 16 -10z m462 -97 c-2 -16
-4 -3 -4 27 0 30 2 43 4 28 2 -16 2 -40 0 -55z m-177 -30 c0 -10 10 -46 21
-79 20 -57 21 -94 2 -94 -5 0 -22 38 -38 86 -25 73 -27 86 -15 94 22 14 30 12
30 -7z m-115 -133 l25 -50 -95 0 c-52 0 -95 2 -95 5 0 2 10 25 22 50 22 44 23
45 70 45 47 0 48 0 73 -50z m881 -7 l25 -43 -126 0 -125 0 20 39 c19 38 23 40
72 44 101 7 106 6 134 -40z m-636 17 c0 -5 -5 -10 -11 -10 -5 0 -7 5 -4 10 3
6 8 10 11 10 2 0 4 -4 4 -10z m-30 -10 c0 -5 -11 -10 -25 -10 -14 0 -25 5 -25
10 0 6 11 10 25 10 14 0 25 -4 25 -10z m263 -47 c-13 -2 -33 -2 -45 0 -13 2
-3 4 22 4 25 0 35 -2 23 -4z m-69 -78 c-6 -16 -24 -21 -24 -7 0 11 11 22 21
22 5 0 6 -7 3 -15z m70 -6 c-3 -5 -14 -9 -26 -9 -17 0 -18 3 -8 14 12 15 44
10 34 -5z m56 7 c0 -3 -4 -8 -10 -11 -5 -3 -10 -1 -10 4 0 6 5 11 10 11 6 0
10 -2 10 -4z m424 -21 c3 -8 1 -15 -4 -15 -6 0 -10 7 -10 15 0 8 2 15 4 15 2
0 6 -7 10 -15z"/>
<path d="M1945 3030 c-3 -5 3 -10 14 -10 12 0 21 5 21 10 0 6 -6 10 -14 10 -8
0 -18 -4 -21 -10z"/>
<path d="M2582 3028 c-17 -17 -15 -46 6 -76 35 -50 35 -51 -2 -73 -25 -14 -36
-28 -35 -42 2 -22 2 -22 6 -1 2 12 21 29 43 40 l39 20 -31 47 c-47 73 -12 109
47 47 22 -23 26 -32 16 -43 -13 -16 -4 -50 10 -41 5 3 7 10 3 15 -3 5 -1 16 5
23 8 9 0 23 -30 54 -42 44 -57 50 -77 30z"/>
<path d="M2276 3016 c2 -6 16 -13 29 -14 33 -2 32 4 -4 16 -23 8 -29 8 -25 -2z"/>
<path d="M2341 2981 c-8 -5 -9 -11 -3 -15 5 -3 12 1 16 9 6 17 6 18 -13 6z"/>
<path d="M2061 2964 c0 -11 3 -14 6 -6 3 7 2 16 -1 19 -3 4 -6 -2 -5 -13z"/>
<path d="M2740 2970 c-11 -7 -6 -10 21 -10 32 0 44 -8 87 -55 28 -30 53 -68
55 -83 l4 -27 2 27 c2 45 -104 158 -149 158 -3 0 -12 -5 -20 -10z"/>
<path d="M2250 2929 c0 -3 9 -9 19 -12 13 -3 18 0 15 7 -5 13 -34 18 -34 5z"/>
<path d="M2260 2908 c0 -4 13 -29 28 -55 16 -27 28 -57 26 -66 -2 -15 0 -16
12 -6 11 9 14 8 14 -3 0 -8 7 -15 15 -15 21 0 19 15 -6 29 -11 7 -27 27 -35
43 -16 34 -53 84 -54 73z"/>
<path d="M2700 2860 c26 -36 86 -96 117 -117 17 -12 26 -12 44 -2 21 11 26 8
56 -26 38 -44 40 -52 16 -58 -15 -3 -14 -4 1 -3 32 2 29 22 -12 68 -37 43 -39
44 -61 29 -23 -15 -25 -14 -53 19 -16 19 -33 34 -38 33 -4 -1 -14 5 -22 15
-12 15 -11 16 5 3 9 -7 17 -9 17 -4 0 5 -21 24 -46 42 l-46 32 22 -31z"/>
<path d="M2381 2864 c0 -11 3 -14 6 -6 3 7 2 16 -1 19 -3 4 -6 -2 -5 -13z"/>
<path d="M2420 2870 c-13 -8 -12 -10 3 -10 9 0 17 5 17 10 0 12 -1 12 -20 0z"/>
<path d="M2653 2850 c8 -22 8 -40 0 -72 -12 -44 -6 -57 31 -71 7 -3 -2 -28
-22 -66 -18 -34 -30 -65 -27 -70 3 -6 1 -12 -4 -15 -5 -4 -12 -2 -16 4 -3 5
-18 10 -32 10 -15 0 -50 8 -79 18 -42 13 -56 24 -69 51 -9 18 -18 31 -21 28
-3 -3 15 -46 40 -97 26 -50 41 -88 35 -84 -18 11 0 -55 27 -103 14 -24 20 -43
15 -43 -6 0 -20 19 -32 41 -15 31 -24 38 -32 30 -14 -14 -44 -14 -52 -1 -9 15
15 42 32 36 16 -7 17 16 1 32 -6 6 -13 18 -14 25 -1 7 -13 39 -28 70 -30 65
-33 80 -11 51 14 -17 14 -15 11 28 -5 56 -15 76 -27 57 -4 -8 -3 -20 4 -28 10
-12 9 -14 -5 -8 -10 3 -18 2 -18 -4 0 -22 -40 13 -49 44 -7 23 -9 26 -10 11
-1 -12 -8 -27 -16 -34 -8 -7 -15 -18 -15 -24 0 -6 4 -4 10 4 13 20 19 10 37
-56 17 -66 44 -124 67 -143 8 -7 12 -19 10 -26 -8 -20 13 -53 45 -70 38 -19
44 -38 24 -79 -14 -30 -14 -39 -2 -68 7 -18 33 -53 56 -77 24 -24 43 -50 43
-58 0 -9 5 -11 13 -6 6 4 20 6 30 5 18 -3 47 19 47 37 0 6 5 11 11 11 7 0 5
-10 -5 -25 -10 -15 -12 -25 -6 -25 14 0 35 20 43 40 5 13 6 13 6 -1 1 -8 -5
-21 -11 -28 -11 -11 -10 -13 2 -9 8 2 19 14 25 26 5 12 13 22 17 22 12 0 10
-13 -6 -36 -14 -20 -13 -20 70 -23 46 -1 84 1 83 6 -6 33 4 59 24 68 29 13 34
65 11 116 -13 31 -15 46 -6 79 21 84 -34 208 -121 271 -22 16 -36 29 -31 29 5
0 24 9 42 20 l33 21 -58 44 c-32 24 -73 66 -92 94 -19 28 -35 51 -37 51 -1 0
3 -13 9 -30z m57 -234 c0 -3 -4 -8 -10 -11 -5 -3 -10 -1 -10 4 0 6 5 11 10 11
6 0 10 -2 10 -4z m-96 -122 c7 -17 -9 -54 -24 -54 -23 0 -40 14 -40 35 0 34
52 50 64 19z m-76 -89 c27 -55 15 -59 -15 -5 -25 42 -27 50 -15 50 4 0 18 -20
30 -45z m72 -65 c0 -6 -4 -10 -9 -10 -18 0 10 -59 30 -65 27 -9 24 -27 -3 -23
-15 2 -22 -2 -20 -10 1 -8 -2 -11 -8 -7 -7 4 -25 8 -41 9 -17 1 -34 8 -39 16
-9 15 4 57 25 80 16 18 65 25 65 10z m60 -118 c0 -7 -16 -15 -85 -41 -17 -6
12 21 37 34 27 15 48 18 48 7z m107 -39 c-3 -10 -5 -2 -5 17 0 19 2 27 5 18 2
-10 2 -26 0 -35z m-229 9 c3 -16 -2 -22 -17 -22 -24 0 -33 13 -25 35 9 23 38
14 42 -13z m71 -74 c-12 -23 -31 -24 -22 -1 5 12 2 15 -10 10 -10 -4 -17 -2
-17 4 0 6 9 9 20 6 14 -4 20 0 20 11 0 14 2 15 9 3 6 -9 6 -22 0 -33z m151 3
c-16 -31 -32 -36 -18 -7 6 14 15 26 20 26 5 0 4 -9 -2 -19z m71 7 c0 -10 2
-10 6 0 2 6 9 12 14 12 5 0 3 -11 -3 -25 -6 -14 -15 -25 -20 -25 -5 0 -6 6 -2
13 6 10 4 10 -7 0 -17 -17 -37 -17 -21 -1 14 14 16 28 3 28 -5 0 -13 -9 -16
-20 -3 -11 -10 -20 -15 -20 -4 0 -3 11 3 25 13 26 56 36 58 13z"/>
<path d="M2593 2839 c-1 -9 7 -25 17 -34 18 -16 20 -16 26 -2 10 27 0 52 -22
53 -12 1 -20 -6 -21 -17z"/>
<path d="M2390 2810 c0 -5 6 -11 13 -13 7 -3 5 -6 -5 -6 -22 -1 -24 -21 -3
-21 12 0 43 38 33 41 -23 6 -38 6 -38 -1z"/>
<path d="M2452 2800 c0 -14 2 -19 5 -12 2 6 2 18 0 25 -3 6 -5 1 -5 -13z"/>
<path d="M2527 2790 c-3 -11 -1 -20 4 -20 5 0 9 9 9 20 0 11 -2 20 -4 20 -2 0
-6 -9 -9 -20z"/>
<path d="M2490 2780 c0 -5 5 -10 11 -10 5 0 7 5 4 10 -3 6 -8 10 -11 10 -2 0
-4 -4 -4 -10z"/>
<path d="M2481 2744 c0 -11 3 -14 6 -6 3 7 2 16 -1 19 -3 4 -6 -2 -5 -13z"/>
<path d="M2366 2733 c-6 -14 -5 -15 5 -6 7 7 10 15 7 18 -3 3 -9 -2 -12 -12z"/>
<path d="M1955 2730 c-3 -5 -2 -10 4 -10 5 0 13 5 16 10 3 6 2 10 -4 10 -5 0
-13 -4 -16 -10z"/>
<path d="M1997 2733 c-3 -5 8 -8 25 -9 20 -1 25 2 16 7 -16 11 -35 11 -41 2z"/>
<path d="M1877 2713 c-4 -3 8 -14 26 -23 24 -13 36 -15 49 -6 10 6 18 15 18
20 0 5 -8 2 -18 -8 -18 -15 -21 -15 -44 4 -14 10 -28 17 -31 13z"/>
<path d="M2544 2682 c16 -17 34 -28 43 -25 7 3 13 6 11 7 -2 2 -21 13 -43 26
l-40 23 29 -31z"/>
<path d="M2275 2640 c3 -5 8 -10 11 -10 2 0 4 5 4 10 0 6 -5 10 -11 10 -5 0
-7 -4 -4 -10z"/>
<path d="M2208 2623 c7 -3 16 -2 19 1 4 3 -2 6 -13 5 -11 0 -14 -3 -6 -6z"/>
<path d="M1978 2603 c7 -3 16 -2 19 1 4 3 -2 6 -13 5 -11 0 -14 -3 -6 -6z"/>
<path d="M2210 2595 c-7 -8 -8 -15 -2 -15 5 0 15 7 22 15 7 8 8 15 2 15 -5 0
-15 -7 -22 -15z"/>
<path d="M2158 2593 c6 -2 18 -2 25 0 6 3 1 5 -13 5 -14 0 -19 -2 -12 -5z"/>
<path d="M2079 2443 c-13 -16 -12 -17 4 -4 9 7 17 15 17 17 0 8 -8 3 -21 -13z"/>
<path d="M2285 2403 c-48 -11 -58 -69 -24 -140 14 -28 26 -42 35 -39 7 3 16 0
20 -6 4 -7 3 -8 -4 -4 -7 4 -12 5 -12 3 0 -7 31 -67 35 -67 5 0 0 24 -8 38 -5
6 -4 12 1 12 6 0 13 -7 16 -16 4 -9 9 -14 13 -11 3 4 -1 17 -10 31 -15 22 -15
25 0 30 9 4 22 -1 30 -11 13 -17 14 -16 8 7 -5 22 -5 23 6 7 17 -28 -6 -48
-26 -21 -8 10 -15 14 -15 8 0 -5 6 -19 14 -29 12 -17 12 -21 -3 -32 -28 -22
10 -16 48 8 37 22 36 37 -1 19 -22 -10 -22 -10 -4 4 13 10 19 29 20 60 1 34
-2 42 -11 34 -14 -12 -16 -7 -7 16 3 9 12 16 20 16 16 0 19 16 4 25 -6 3 -18
-7 -28 -24 -9 -17 -21 -31 -25 -31 -9 0 -1 17 21 42 13 16 12 18 -12 27 -14 6
-26 13 -26 17 0 3 7 4 15 0 12 -4 13 -2 2 14 -15 25 -32 25 -47 3 -11 -17 -11
-17 -6 0 5 17 -1 19 -39 10z m75 -53 c0 -5 -5 -10 -11 -10 -5 0 -7 5 -4 10 3
6 8 10 11 10 2 0 4 -4 4 -10z m-60 -20 c0 -4 -11 -5 -25 -2 -14 2 -25 8 -25
12 0 4 11 5 25 2 14 -2 25 -8 25 -12z m55 -70 c3 -5 1 -10 -4 -10 -6 0 -11 5
-11 10 0 6 2 10 4 10 3 0 8 -4 11 -10z"/>
<path d="M2015 2370 c-3 -5 -1 -10 4 -10 6 0 11 5 11 10 0 6 -2 10 -4 10 -3 0
-8 -4 -11 -10z"/>
<path d="M1863 2324 c-24 -20 -43 -41 -43 -47 0 -7 7 -4 14 6 7 9 18 17 25 17
6 0 11 5 11 10 0 6 5 10 11 10 5 0 7 -4 4 -10 -3 -6 1 -7 10 -4 9 4 14 12 11
19 -2 7 1 18 7 24 26 26 -12 8 -50 -25z"/>
<path d="M1856 2278 c3 -4 9 -8 15 -8 5 0 9 4 9 8 0 5 -7 9 -15 9 -8 0 -12 -4
-9 -9z"/>
<path d="M1896 2235 c-10 -27 -7 -30 9 -9 17 22 20 12 4 -18 -9 -16 -7 -24 5
-36 15 -15 16 -15 16 0 0 9 7 23 15 32 9 9 11 17 5 21 -5 3 -10 1 -10 -4 0 -6
-4 -11 -9 -11 -5 0 -8 7 -7 16 1 23 -20 29 -28 9z"/>
<path d="M2407 2161 c-38 -25 -46 -35 -20 -29 16 4 20 2 16 -10 -4 -10 -2 -13
5 -8 8 5 10 2 6 -8 -7 -18 -44 -22 -44 -5 0 5 5 7 10 4 6 -3 10 -1 10 5 0 7
-7 10 -15 6 -9 -3 -15 0 -15 9 0 8 -4 15 -10 15 -12 0 -12 -3 -1 -32 5 -13 12
-35 15 -50 4 -18 13 -28 24 -28 13 0 14 -2 3 -9 -9 -6 -10 -11 -3 -15 6 -4 9
-13 6 -21 -3 -7 -1 -23 6 -34 9 -17 20 -21 60 -21 41 0 50 3 55 21 5 14 2 25
-6 30 -11 7 -11 9 3 9 12 0 15 6 10 22 -3 14 -1 19 6 14 8 -5 10 -2 6 8 -9 24
-24 19 -24 -8 0 -13 -7 -27 -16 -30 -23 -9 -27 -8 -20 9 9 24 -11 18 -32 -10
-20 -26 -42 -33 -42 -14 0 5 4 8 9 4 5 -3 22 12 37 32 40 54 47 61 40 38 -3
-11 -1 -27 4 -35 8 -12 10 -10 10 9 0 13 7 29 16 36 15 11 15 13 -2 33 -23 27
-30 28 -37 2 -3 -13 -10 -18 -21 -14 -11 4 -16 1 -16 -11 0 -9 -4 -13 -10 -10
-5 3 -10 -2 -10 -12 0 -15 -2 -16 -10 -3 -13 20 -12 30 3 30 6 1 25 11 41 24
29 24 29 24 10 50 -22 30 -21 30 -57 7z m48 -10 c3 -6 -3 -9 -14 -8 -11 0 -17
5 -15 9 7 11 22 10 29 -1z m-62 -91 c3 -11 2 -20 -3 -20 -4 0 -10 9 -13 20 -3
11 -2 20 3 20 4 0 10 -9 13 -20z m37 -40 c0 -5 -2 -10 -4 -10 -3 0 -8 5 -11
10 -3 6 -1 10 4 10 6 0 11 -4 11 -10z m27 -62 c-3 -8 -6 -5 -6 6 -1 11 2 17 5
13 3 -3 4 -12 1 -19z"/>
<path d="M1675 2080 c-8 -13 3 -30 18 -30 8 0 7 3 -2 9 -7 5 -10 14 -7 20 4 6
5 11 2 11 -3 0 -8 -4 -11 -10z"/>
<path d="M1599 1564 c-5 -7 -8 -81 -7 -170 l3 -159 125 -6 c69 -3 402 -8 740
-10 l615 -4 0 170 0 170 -415 7 c-823 13 -1051 14 -1061 2z m168 -96 c28 -26
32 -91 7 -126 -12 -18 -25 -22 -70 -22 l-54 0 0 85 0 85 47 0 c34 0 53 -6 70
-22z m183 2 c0 -18 -5 -19 -45 -13 -41 5 -45 4 -45 -16 0 -18 6 -21 40 -21 29
0 40 -4 40 -15 0 -11 -11 -15 -40 -15 -36 0 -40 -2 -40 -25 0 -23 4 -25 45
-25 33 0 45 -4 45 -15 0 -12 -14 -15 -65 -15 l-65 0 0 90 0 90 65 0 c58 0 65
-2 65 -20z m228 -7 c6 -9 12 -20 12 -25 0 -13 -30 -9 -46 7 -15 14 -43 10 -56
-9 -12 -17 -9 -71 4 -84 17 -17 47 -15 54 3 7 18 44 20 44 3 0 -23 -34 -48
-65 -48 -46 0 -75 27 -82 77 -5 38 -2 45 26 74 27 26 37 30 64 25 18 -3 38
-14 45 -23z m181 -9 c47 -60 8 -149 -64 -147 -53 2 -80 31 -80 89 0 57 28 84
85 84 30 0 43 -6 59 -26z m175 10 c22 -21 20 -51 -3 -71 -20 -16 -19 -17 5
-46 29 -34 30 -47 5 -47 -10 0 -30 17 -45 41 -31 46 -50 47 -54 1 -2 -20 -9
-32 -18 -32 -11 0 -14 18 -14 85 l0 85 54 0 c36 0 60 -5 70 -16z m163 -8 c22
-19 28 -32 28 -66 0 -57 -37 -90 -101 -90 l-44 0 0 90 0 90 44 0 c33 0 52 -6
73 -24z m139 14 c32 0 44 -4 44 -15 0 -11 -12 -15 -45 -15 -33 0 -45 -4 -45
-14 0 -10 13 -16 42 -18 59 -4 63 -28 4 -28 -42 0 -46 -2 -46 -25 0 -23 4 -25
45 -25 33 0 45 -4 45 -15 0 -12 -14 -15 -65 -15 l-65 0 0 83 c0 87 4 101 28
92 7 -3 34 -5 58 -5z m114 -69 l0 -70 42 -3 c23 -2 43 -9 46 -15 3 -10 -14
-13 -62 -13 l-66 0 0 85 c0 78 2 85 20 85 18 0 20 -7 20 -69z"/>
<path d="M1687 1453 c-4 -3 -7 -28 -7 -55 0 -47 1 -48 30 -48 24 0 33 6 41 26
10 28 3 64 -15 76 -14 10 -41 10 -49 1z"/>
<path d="M2258 1425 c-24 -53 26 -109 68 -75 17 15 19 71 2 88 -21 21 -57 14
-70 -13z"/>
<path d="M2446 1435 c-9 -25 -9 -25 30 -25 28 0 35 3 32 18 -4 23 -53 29 -62
7z"/>
<path d="M2620 1391 c0 -54 2 -61 19 -61 28 0 51 27 51 58 0 36 -10 49 -43 57
l-27 7 0 -61z"/>
<path d="M2160 3380 c0 -16 7 -20 30 -20 23 0 30 4 30 20 0 16 -7 20 -30 20
-23 0 -30 -4 -30 -20z"/>
<path d="M2352 3355 c-10 -22 -9 -25 8 -25 21 0 26 16 12 38 -6 9 -12 6 -20
-13z"/>
<path d="M2810 3370 c0 -15 7 -20 29 -20 16 0 31 6 34 14 8 19 -1 26 -35 26
-21 0 -28 -5 -28 -20z"/>
<path d="M3002 3350 c-7 -19 -6 -26 5 -28 21 -5 25 2 14 29 l-9 24 -10 -25z"/>
</g>
</svg>
