<?xml version="1.0" standalone="no"?>
<!DOCTYPE svg PUBLIC "-//W3C//DTD SVG 20010904//EN"
 "http://www.w3.org/TR/2001/REC-SVG-20010904/DTD/svg10.dtd">
<svg version="1.0" xmlns="http://www.w3.org/2000/svg"
 width="466.000000pt" height="466.000000pt" viewBox="0 0 466.000000 466.000000"
 preserveAspectRatio="xMidYMid meet">

<g transform="translate(0.000000,466.000000) scale(0.100000,-0.100000)"
fill="#000000" stroke="none">
<path d="M3294 3135 c-26 -40 -12 -87 47 -163 90 -116 195 -202 392 -322 98
-60 133 -90 90 -76 -35 11 -292 36 -488 47 -134 7 -579 10 -1350 7 l-1150 -3
-60 23 -59 22 -21 -20 c-23 -24 -26 -94 -3 -116 29 -29 143 -37 443 -30 648
15 1830 19 2060 7 361 -18 665 -51 665 -72 0 -15 -132 -86 -315 -168 -99 -45
-217 -98 -262 -119 -97 -44 -114 -67 -89 -126 11 -27 21 -36 39 -36 14 0 30 6
36 14 11 13 171 96 185 96 7 0 90 38 255 116 143 68 206 105 284 166 34 27 59
38 82 38 39 0 65 29 65 70 0 32 -64 110 -90 110 -10 0 -84 41 -164 90 -80 50
-148 90 -151 90 -2 0 -45 27 -94 60 -113 77 -191 154 -241 240 -50 86 -77 100
-106 55z"/>
</g>
</svg>
