<?xml version="1.0" standalone="no"?>
<!DOCTYPE svg PUBLIC "-//W3C//DTD SVG 20010904//EN"
 "http://www.w3.org/TR/2001/REC-SVG-20010904/DTD/svg10.dtd">
<svg version="1.0" xmlns="http://www.w3.org/2000/svg"
 width="466.000000pt" height="466.000000pt" viewBox="0 0 466.000000 466.000000"
 preserveAspectRatio="xMidYMid meet">

<g transform="translate(0.000000,466.000000) scale(0.100000,-0.100000)"
fill="#000000" stroke="none">
<path d="M2100 4155 c-63 -12 -140 -26 -170 -30 -91 -12 -152 -45 -197 -106
-58 -80 -80 -120 -87 -159 -38 -206 -96 -387 -137 -426 l-30 -29 -187 -5
c-180 -6 -189 -7 -245 -34 -31 -16 -68 -42 -82 -58 -22 -26 -25 -39 -25 -106
0 -64 5 -86 28 -129 41 -78 135 -186 242 -275 107 -90 193 -144 307 -194 46
-20 82 -42 87 -54 11 -25 18 -25 40 -2 14 17 15 26 5 70 -11 44 -10 54 5 77
17 26 61 53 71 43 3 -3 -4 -26 -16 -52 -26 -60 -20 -80 21 -71 22 5 32 3 36
-9 15 -39 84 1 84 49 0 28 -3 29 -31 15 -15 -8 -19 -7 -19 5 0 8 -9 15 -21 15
-28 0 -15 17 20 25 61 13 149 -31 110 -56 -11 -7 -12 -12 -1 -29 14 -24 16
-76 2 -85 -5 -3 -10 -14 -10 -23 0 -12 13 -3 42 27 66 67 107 75 168 29 26
-19 50 -18 50 2 0 5 -25 21 -56 36 -50 24 -60 25 -94 15 -20 -6 -40 -11 -44
-11 -3 0 -6 27 -6 60 0 82 -26 121 -107 162 -53 26 -71 30 -116 26 -30 -2 -73
-14 -96 -26 -23 -12 -43 -22 -45 -22 -7 0 -26 99 -26 133 0 52 53 153 91 172
124 65 673 80 876 26 96 -26 153 -101 172 -225 6 -39 13 -85 17 -103 5 -27 1
-37 -36 -77 -47 -51 -37 -60 30 -26 22 11 53 20 70 20 24 0 40 9 63 35 39 44
90 48 134 11 25 -22 28 -31 28 -85 -1 -34 -6 -66 -13 -73 -14 -14 -16 -44 -4
-52 12 -7 310 131 405 187 163 97 257 194 273 280 5 29 1 49 -21 92 -32 65
-102 124 -221 183 -75 38 -319 122 -456 157 -76 20 -86 28 -92 69 -43 273 -55
317 -106 390 -17 25 -63 71 -103 102 -178 139 -326 170 -577 119z"/>
<path d="M2225 2883 c-107 -32 -144 -92 -90 -143 14 -13 25 -34 25 -47 0 -15
8 -27 24 -32 13 -5 26 -16 28 -23 8 -20 73 -52 92 -45 14 5 15 11 6 27 -10 18
-8 20 18 20 19 0 38 10 56 31 32 35 26 47 -25 58 -18 4 -34 12 -37 19 -6 18
70 15 116 -4 32 -13 35 -17 20 -25 -26 -14 -22 -25 13 -39 26 -11 33 -11 47 3
15 16 14 19 -13 48 -17 17 -45 38 -63 46 -41 17 -33 33 17 33 41 0 79 29 66
50 -25 40 -201 54 -300 23z"/>
<path d="M2415 2644 c26 -62 14 -94 -45 -120 -38 -17 -53 -34 -30 -34 18 0 94
42 105 57 6 8 31 25 55 37 60 30 65 49 11 40 -30 -5 -46 -2 -59 8 -33 29 -46
33 -37 12z"/>
<path d="M2851 2636 c-7 -8 -13 -27 -14 -42 -2 -20 5 -31 28 -44 20 -11 29
-24 28 -38 -2 -12 5 -22 17 -25 20 -5 20 -11 11 115 0 10 -14 24 -30 32 -25
13 -31 13 -40 2z"/>
<path d="M1914 2262 c8 -16 22 -34 30 -41 9 -8 16 -24 16 -36 0 -17 -14 -29
-64 -54 -70 -34 -81 -50 -67 -99 12 -41 -6 -54 -30 -21 -68 92 -82 98 -59 29
12 -38 11 -43 -25 -122 -41 -91 -115 -221 -165 -290 -54 -74 -162 -181 -229
-225 -42 -28 -58 -45 -49 -48 8 -3 233 -5 499 -3 479 3 484 3 526 25 23 13 44
27 48 33 3 5 -5 41 -19 80 -26 70 -26 70 -6 90 11 11 26 20 33 20 48 0 211
172 268 283 16 31 26 57 23 57 -3 0 -36 -26 -73 -58 -36 -33 -109 -88 -161
-124 -87 -59 -102 -65 -159 -71 -35 -3 -68 -10 -74 -16 -18 -18 -43 -13 -106
24 -59 35 -101 76 -101 100 0 19 40 32 133 44 48 5 92 13 97 16 6 3 10 22 10
40 0 39 5 36 -117 54 -47 7 -80 8 -97 1 -35 -13 -79 4 -74 28 3 14 16 17 83
18 44 0 140 4 213 9 116 7 134 10 143 27 17 32 4 45 -57 53 -76 9 -95 17 -143
61 -45 40 -50 52 -23 61 35 13 52 34 41 54 -13 25 -47 24 -76 -3 -21 -20 -27
-21 -55 -10 -22 8 -36 8 -50 1 -16 -9 -25 -6 -47 15 -37 36 -56 35 -37 -2z"/>
<path d="M2746 2218 c-10 -15 -22 -70 -30 -134 -16 -131 -42 -198 -127 -331
-87 -137 -122 -194 -184 -298 -50 -85 -52 -90 -33 -98 11 -4 286 -6 611 -5
554 3 592 4 595 20 6 31 -37 77 -101 109 -34 17 -71 38 -82 48 -11 10 -42 31
-70 48 -210 127 -228 142 -301 236 -41 53 -101 151 -142 232 -40 77 -83 153
-96 169 l-23 30 -17 -26z"/>
</g>
</svg>
