<?xml version="1.0" standalone="no"?>
<!DOCTYPE svg PUBLIC "-//W3C//DTD SVG 20010904//EN"
 "http://www.w3.org/TR/2001/REC-SVG-20010904/DTD/svg10.dtd">
<svg version="1.0" xmlns="http://www.w3.org/2000/svg"
 width="466.000000pt" height="466.000000pt" viewBox="0 0 466.000000 466.000000"
 preserveAspectRatio="xMidYMid meet">

<g transform="translate(0.000000,466.000000) scale(0.100000,-0.100000)"
fill="#000000" stroke="none">
<path d="M3012 3805 c-53 -16 -107 -57 -127 -95 -33 -63 -11 -152 48 -196 l24
-18 -31 -21 c-17 -11 -41 -36 -54 -55 -21 -30 -23 -44 -20 -107 3 -62 7 -76
34 -110 17 -21 44 -46 60 -55 42 -25 166 -41 249 -33 153 14 235 87 235 209 0
69 -20 110 -69 147 l-31 23 29 30 c40 43 51 68 51 119 0 79 -64 146 -161 166
-67 15 -184 13 -237 -4z m188 -133 c11 -13 20 -36 20 -49 0 -33 -42 -73 -78
-73 -85 0 -116 113 -40 145 39 16 74 8 98 -23z m-25 -244 c56 -25 73 -116 31
-165 -19 -22 -32 -28 -66 -28 -55 0 -90 37 -90 96 0 50 13 74 48 93 33 19 44
19 77 4z"/>
<path d="M3789 3794 c-24 -46 -108 -113 -170 -135 l-59 -22 0 -79 c0 -78 1
-79 23 -73 17 5 106 46 180 83 4 2 7 -96 7 -217 l0 -221 100 0 100 0 0 345 0
345 -83 0 c-80 0 -84 -1 -98 -26z"/>
<path d="M2155 2111 c-91 -17 -135 -63 -135 -141 0 -32 6 -48 28 -69 26 -26
125 -71 158 -71 28 0 82 -28 93 -49 16 -29 -17 -61 -63 -61 -40 0 -86 33 -86
62 0 19 -4 20 -70 16 -39 -3 -73 -8 -76 -11 -3 -3 -3 -19 1 -36 9 -44 63 -97
110 -110 51 -14 168 -14 218 0 115 31 161 163 85 240 -28 27 -56 38 -206 78
-47 13 -61 33 -42 56 27 32 120 5 120 -35 0 -11 91 -13 128 -4 17 5 21 11 16
28 -10 36 -39 70 -75 88 -40 20 -146 30 -204 19z"/>
<path d="M3775 2111 c-91 -17 -135 -63 -135 -141 0 -32 6 -48 28 -69 26 -26
125 -71 158 -71 28 0 82 -28 93 -49 16 -29 -17 -61 -63 -61 -40 0 -86 33 -86
62 0 19 -4 20 -70 16 -39 -3 -73 -8 -76 -11 -3 -3 -3 -19 1 -36 9 -44 63 -97
110 -110 51 -14 168 -14 218 0 115 31 161 163 85 240 -28 27 -56 38 -206 78
-47 13 -61 33 -42 56 27 32 120 5 120 -35 0 -11 91 -13 128 -4 17 5 21 11 16
28 -10 36 -39 70 -75 88 -40 20 -146 30 -204 19z"/>
<path d="M760 1875 l0 -235 60 0 60 0 0 173 c0 98 4 166 9 159 4 -8 28 -86 52
-173 l44 -160 59 3 60 3 45 164 46 165 3 -167 2 -167 65 0 65 0 0 235 0 235
-103 0 -102 0 -40 -141 c-21 -78 -41 -135 -44 -128 -3 8 -21 70 -41 139 l-35
125 -103 3 -102 3 0 -236z"/>
<path d="M1432 1938 c4 -190 10 -213 68 -261 41 -35 89 -47 185 -47 119 1 184
36 220 122 11 29 15 76 15 198 l0 160 -80 0 -80 0 0 -165 c0 -152 -2 -167 -20
-185 -31 -31 -102 -28 -129 6 -19 24 -21 40 -21 185 l0 159 -81 0 -81 0 4
-172z"/>
<path d="M2540 1875 l0 -235 210 0 210 0 0 50 0 49 -132 3 -133 3 0 45 0 45
123 3 122 3 0 44 0 44 -122 3 -123 3 0 35 0 35 133 3 132 3 0 49 0 50 -210 0
-210 0 0 -235z"/>
<path d="M3052 1938 c4 -190 10 -213 68 -261 41 -35 89 -47 185 -47 119 1 184
36 220 122 11 29 15 76 15 198 l0 160 -80 0 -80 0 0 -165 c0 -152 -2 -167 -20
-185 -31 -31 -102 -28 -129 6 -19 24 -21 40 -21 185 l0 159 -81 0 -81 0 4
-172z"/>
<path d="M3798 1499 c-21 -6 -51 -26 -68 -45 -26 -30 -30 -43 -30 -90 0 -50 4
-60 33 -89 22 -22 56 -40 102 -54 84 -26 115 -45 115 -71 0 -53 -83 -69 -119
-24 -12 15 -21 33 -21 42 0 12 -11 14 -61 9 -33 -3 -63 -8 -66 -11 -4 -3 -1
-25 6 -48 26 -84 101 -125 216 -115 107 8 164 57 173 148 9 95 -25 135 -151
174 -108 35 -123 47 -91 79 24 24 53 19 84 -14 25 -27 34 -30 89 -30 l61 0 -6
28 c-11 43 -34 78 -67 97 -36 21 -145 29 -199 14z"/>
<path d="M800 1492 c0 -4 35 -113 78 -242 l79 -235 78 0 78 0 79 235 c43 129
78 238 78 242 0 5 -30 8 -68 8 l-67 0 -49 -177 -49 -177 -51 177 -50 177 -68
0 c-37 0 -68 -3 -68 -8z"/>
<path d="M1330 1255 l0 -245 65 0 65 0 0 245 0 245 -65 0 -65 0 0 -245z"/>
<path d="M1560 1255 l0 -245 70 0 70 0 0 100 c0 76 3 100 13 100 26 0 47 -27
87 -112 l41 -88 75 0 c74 0 75 1 68 23 -16 51 -75 156 -98 175 l-26 20 30 12
c94 39 93 216 -2 249 -17 6 -98 11 -179 11 l-149 0 0 -245z m246 137 c6 -4 14
-17 18 -29 11 -35 -24 -63 -79 -63 l-45 0 0 50 0 50 48 0 c26 0 52 -4 58 -8z"/>
<path d="M2010 1440 l0 -60 70 0 70 0 0 -185 0 -185 65 0 65 0 0 185 0 185 70
0 70 0 0 60 0 60 -205 0 -205 0 0 -60z"/>
<path d="M2490 1322 c0 -164 2 -181 23 -222 28 -57 73 -87 142 -95 116 -15
193 17 233 95 20 41 22 58 22 222 l0 178 -64 0 -64 0 -4 -170 c-3 -159 -4
-171 -25 -191 -31 -32 -80 -30 -110 5 -22 26 -23 34 -23 192 l0 164 -65 0 -65
0 0 -178z"/>
<path d="M3021 1263 c-44 -131 -81 -241 -81 -245 0 -5 31 -8 69 -8 l69 0 9 38
9 37 81 3 81 3 7 -41 7 -40 73 0 73 0 -81 245 -82 245 -76 0 -76 0 -82 -237z
m194 -30 l7 -33 -47 0 c-40 0 -47 3 -42 18 2 9 13 48 23 86 l19 69 16 -54 c9
-30 20 -69 24 -86z"/>
<path d="M3470 1255 l0 -245 65 0 65 0 0 245 0 245 -65 0 -65 0 0 -245z"/>
</g>
</svg>
