<?xml version="1.0" standalone="no"?>
<!DOCTYPE svg PUBLIC "-//W3C//DTD SVG 20010904//EN"
 "http://www.w3.org/TR/2001/REC-SVG-20010904/DTD/svg10.dtd">
<svg version="1.0" xmlns="http://www.w3.org/2000/svg"
 width="466.000000pt" height="466.000000pt" viewBox="0 0 466.000000 466.000000"
 preserveAspectRatio="xMidYMid meet">

<g transform="translate(0.000000,466.000000) scale(0.100000,-0.100000)"
fill="#000000" stroke="none">
<path d="M1825 4130 c3 -5 8 -10 11 -10 2 0 4 5 4 10 0 6 -5 10 -11 10 -5 0
-7 -4 -4 -10z"/>
<path d="M2775 4120 c3 -5 8 -10 11 -10 2 0 4 5 4 10 0 6 -5 10 -11 10 -5 0
-7 -4 -4 -10z"/>
<path d="M1770 4114 c0 -8 32 -33 43 -34 4 0 -2 9 -13 20 -21 21 -30 25 -30
14z"/>
<path d="M1690 4080 c8 -5 20 -10 25 -10 6 0 3 5 -5 10 -8 5 -19 10 -25 10 -5
0 -3 -5 5 -10z"/>
<path d="M2740 4081 c0 -6 5 -13 10 -16 6 -3 10 1 10 9 0 9 -4 16 -10 16 -5 0
-10 -4 -10 -9z"/>
<path d="M2770 4078 c0 -4 5 -10 10 -13 6 -3 10 -13 10 -21 0 -10 -7 -13 -23
-9 -17 5 -26 0 -35 -17 -18 -37 -17 -50 6 -97 26 -53 26 -51 7 -51 -7 0 -19 8
-24 18 -20 34 -11 -6 14 -60 13 -29 26 -64 28 -77 2 -12 8 -26 14 -29 5 -4 15
-17 22 -29 6 -13 21 -23 31 -23 11 0 20 -4 20 -10 0 -5 -5 -10 -11 -10 -17 0
-79 40 -79 51 0 6 -4 7 -10 4 -5 -3 -10 -2 -10 3 0 6 -7 12 -15 16 -13 4 -14
2 -5 -14 6 -11 14 -20 19 -20 14 0 72 -60 66 -69 -7 -12 -56 -8 -80 6 -11 6
-17 15 -12 19 4 4 16 -1 27 -11 11 -10 20 -13 20 -7 0 6 -5 14 -10 17 -6 4 -8
10 -6 14 3 4 -4 8 -15 8 -10 1 -19 -2 -19 -7 0 -5 -9 -12 -20 -15 -15 -5 -19
-12 -15 -26 4 -12 2 -19 -6 -19 -7 0 5 -18 26 -40 40 -41 42 -56 3 -20 -27 25
-49 10 -30 -20 14 -22 3 -27 -17 -7 -12 10 -13 9 -7 -7 5 -13 2 -17 -8 -13
-13 5 -13 2 -4 -19 6 -13 18 -23 27 -22 9 2 15 -3 13 -10 -3 -18 35 -65 42
-53 4 5 -4 17 -16 25 -12 9 -19 19 -15 23 11 11 52 -39 49 -60 -2 -10 8 -33
22 -51 26 -35 25 -46 -6 -46 -16 0 -17 -2 -6 -14 7 -7 19 -11 25 -9 7 3 13 0
13 -6 0 -6 6 -11 13 -11 12 0 37 -109 37 -165 0 -31 -14 -39 -33 -20 -9 8 -20
15 -26 15 -6 0 -11 7 -11 15 0 8 -3 15 -8 15 -19 0 -74 135 -70 175 1 17 -1
36 -6 43 -6 10 -1 11 21 6 28 -6 28 -6 -10 29 -21 19 -39 45 -40 58 -1 23 -13
39 -31 39 -4 0 -6 -9 -3 -20 4 -17 2 -18 -14 -9 -23 12 -26 -3 -4 -21 8 -7 15
-20 15 -28 0 -9 12 -29 27 -44 l27 -28 -32 6 c-18 4 -32 3 -32 0 0 -18 22 -46
36 -46 8 0 12 5 9 10 -3 6 -3 10 2 10 4 0 13 -16 19 -35 6 -19 7 -35 3 -35 -5
0 -9 4 -9 8 0 11 -66 42 -74 35 -3 -3 -1 -14 5 -25 14 -26 6 -32 -20 -18 -18
9 -21 8 -21 -10 0 -11 -4 -20 -10 -20 -5 0 -10 -9 -10 -20 0 -11 7 -20 15 -20
8 0 15 -4 15 -10 0 -6 -9 -6 -26 0 -37 14 -49 13 -34 -5 10 -12 10 -15 -4 -15
-9 0 -16 -8 -16 -20 0 -11 -7 -20 -15 -20 -26 0 -16 -19 12 -22 14 -2 28 -9
31 -16 3 -10 -5 -12 -34 -7 -37 6 -38 5 -20 -9 11 -9 26 -16 33 -16 7 0 13 -7
13 -16 0 -12 -5 -14 -17 -9 -26 12 -87 13 -94 3 -3 -5 -14 -5 -24 -2 -18 7
-18 8 0 14 18 6 17 8 -8 25 -15 10 -31 14 -35 10 -4 -4 -1 -10 6 -12 6 -3 12
-9 12 -15 0 -6 -8 -4 -18 5 -10 10 -22 17 -26 17 -15 0 -55 -38 -48 -45 4 -5
-1 -5 -10 -2 -27 10 -21 -8 7 -23 14 -7 25 -17 25 -21 0 -9 -41 7 -79 30 -19
12 -50 15 -133 13 -91 -2 -108 0 -108 13 0 8 -4 15 -10 15 -5 0 -10 -5 -10
-11 0 -6 -20 15 -46 47 -25 33 -49 61 -55 62 -5 2 -9 9 -9 15 -1 7 -15 23 -32
37 -16 14 -47 40 -67 58 -20 18 -49 40 -66 49 -35 19 -136 24 -142 7 -3 -8 17
-12 62 -13 63 -1 115 -20 115 -43 0 -5 -16 -25 -36 -43 -28 -27 -43 -33 -69
-31 -33 3 -65 25 -65 45 0 5 -4 13 -10 16 -5 3 -8 0 -5 -7 3 -7 -4 -19 -15
-26 -12 -7 -20 -8 -20 -2 0 5 5 10 10 10 6 0 10 5 10 12 0 6 -8 4 -19 -6 -29
-26 -78 -37 -85 -20 -3 8 -2 13 2 11 4 -2 15 5 25 15 18 19 18 20 1 16 -10 -2
-31 9 -46 24 -16 16 -33 28 -38 28 -18 0 -10 -22 15 -46 25 -23 33 -44 16 -44
-5 0 -11 9 -14 19 -2 10 -14 24 -26 30 -19 11 -21 9 -21 -22 0 -40 25 -66 72
-76 26 -5 34 -12 36 -31 7 -69 29 -139 55 -177 l29 -42 -21 -30 c-12 -16 -28
-45 -37 -63 -8 -18 -24 -48 -35 -67 -11 -18 -24 -52 -29 -75 -5 -22 -15 -70
-23 -106 -8 -36 -14 -74 -12 -85 17 -137 24 -157 78 -240 96 -145 207 -217
381 -247 60 -10 219 1 261 18 14 6 10 -4 -17 -37 -35 -43 -48 -70 -53 -112 -7
-67 -19 -114 -36 -144 -11 -19 -19 -38 -19 -44 0 -12 62 -8 71 5 4 5 13 5 20
0 18 -12 62 -13 70 -2 3 5 18 2 34 -6 16 -9 32 -12 35 -8 3 4 10 11 15 15 6 5
3 6 -8 3 -11 -3 -16 -2 -12 4 3 6 16 8 28 5 12 -2 56 -6 97 -9 41 -3 90 -10
108 -15 34 -10 62 -6 62 10 0 5 9 9 19 9 11 0 28 15 40 33 11 17 32 48 45 67
14 19 25 41 25 48 1 7 12 28 25 45 32 43 49 110 42 168 -8 66 -20 93 -50 112
-26 17 -36 47 -16 47 6 0 10 -8 10 -17 0 -14 3 -14 12 -5 9 9 10 15 2 20 -6 4
-20 36 -32 72 -38 120 -38 113 22 198 68 97 116 151 116 132 0 -11 3 -11 12
-2 10 10 10 14 0 21 -10 6 4 26 52 76 36 38 66 70 66 72 0 2 8 12 18 22 13 14
38 20 110 24 61 4 92 2 92 -5 0 -5 6 -8 13 -5 10 4 14 -7 15 -39 2 -34 -3 -48
-19 -62 -12 -9 -38 -32 -58 -49 -20 -18 -40 -33 -44 -33 -4 0 -26 -16 -47 -37
-22 -20 -54 -44 -70 -54 -17 -10 -30 -23 -30 -29 0 -5 -5 -10 -10 -10 -6 0
-21 -9 -32 -20 -59 -55 -141 -113 -134 -95 13 30 20 71 11 63 -13 -12 -54
-172 -47 -183 4 -5 11 11 17 36 9 43 18 53 120 135 61 49 128 102 150 118 22
16 45 34 50 40 6 6 28 24 50 40 22 16 57 45 78 65 34 32 37 40 37 88 0 40 -4
53 -15 53 -22 0 -18 36 10 105 14 33 25 67 25 75 0 9 4 20 10 26 5 5 11 19 13
30 3 23 62 172 125 314 10 25 30 74 42 110 13 36 27 69 32 75 13 14 9 134 -7
200 -8 33 -15 75 -15 93 0 28 -6 35 -44 55 -24 12 -94 48 -157 81 -155 80
-158 80 -167 55 -7 -18 -10 -16 -28 20 -18 38 -44 55 -44 29 0 -6 -10 -2 -23
10 -16 15 -33 20 -60 19 -20 -1 -37 -5 -37 -9z m116 -50 c33 -23 59 -56 50
-65 -2 -3 -18 9 -35 26 -17 17 -34 31 -39 31 -9 0 -52 46 -52 56 0 4 10 -1 23
-10 12 -9 36 -26 53 -38z m-75 -11 c-13 -13 -26 -3 -16 12 3 6 11 8 17 5 6 -4
6 -10 -1 -17z m69 -42 c19 -19 42 -35 51 -35 10 0 19 -10 21 -25 5 -26 -6 -34
-19 -12 -4 6 -29 29 -55 50 -44 36 -59 57 -40 57 4 0 23 -16 42 -35z m-67 -12
c-5 -12 -2 -15 8 -11 9 4 20 -2 27 -13 7 -10 16 -18 20 -16 4 1 25 -12 47 -30
37 -31 38 -33 22 -51 -9 -10 -17 -24 -17 -30 0 -21 -14 -13 -58 33 -50 51 -41
61 13 14 38 -34 63 -32 27 1 -12 12 -22 28 -23 38 0 10 -3 12 -6 5 -3 -9 -16
-5 -41 14 -20 15 -39 28 -40 29 -2 2 -1 12 3 23 3 12 10 19 15 16 5 -3 6 -13
3 -22z m-47 -26 c8 -4 14 -13 14 -19 0 -6 -9 -3 -20 7 -11 10 -20 25 -19 34 0
14 1 14 6 1 3 -8 12 -19 19 -23z m8 -96 c3 -5 0 -11 -7 -14 -8 -3 -14 1 -14 9
0 16 13 19 21 5z m74 -26 c-3 -3 -9 2 -12 12 -6 14 -5 15 5 6 7 -7 10 -15 7
-18z m-54 -30 c9 -14 15 -29 12 -34 -3 -5 4 -17 16 -27 21 -19 21 -19 14 11
-7 29 -7 29 8 10 20 -26 20 -31 0 -39 -22 -9 -54 21 -54 51 0 14 -6 23 -15 23
-8 0 -15 7 -15 15 0 23 16 18 34 -10z m106 0 c20 -24 6 -28 -15 -5 -10 11 -13
20 -8 20 6 0 16 -7 23 -15z m10 -50 l25 -27 -30 -23 c-31 -26 -46 -26 -25 0 7
8 19 15 27 15 8 0 11 5 8 11 -4 6 -14 8 -22 5 -8 -4 -11 -1 -7 5 3 6 -5 22
-17 36 -21 22 -21 24 -4 15 11 -5 31 -22 45 -37z m-155 -156 c14 -22 -3 -18
-26 7 -23 25 -23 26 -2 15 12 -6 25 -16 28 -22z m161 -10 c1 -5 2 -13 3 -19 0
-5 8 -10 16 -10 18 0 19 -11 3 -29 -11 -11 -10 -13 0 -7 7 5 16 -2 22 -19 15
-40 12 -45 -17 -29 -16 7 -33 14 -40 14 -6 0 -21 12 -32 26 -17 22 -24 24 -35
15 -8 -7 -16 -25 -18 -39 -2 -21 -9 -28 -31 -30 -17 -2 -25 -8 -21 -14 4 -7 2
-8 -4 -4 -9 5 -9 13 -2 27 6 11 8 25 4 31 -5 7 -2 9 8 6 9 -4 21 4 32 22 9 16
25 32 36 35 11 4 20 11 20 16 0 11 42 29 50 22 3 -3 6 -9 6 -14z m-191 -69 c3
-5 1 -10 -4 -10 -6 0 -11 5 -11 10 0 6 2 10 4 10 3 0 8 -4 11 -10z m20 -39
c-3 -6 -11 -11 -17 -11 -6 0 -6 6 2 15 14 17 26 13 15 -4z m145 -12 c0 -5 -4
-7 -10 -4 -5 3 -10 2 -10 -4 0 -6 12 -8 29 -5 22 5 32 1 50 -21 17 -23 21 -40
20 -104 -1 -82 -27 -178 -47 -173 -7 1 -12 -8 -12 -20 0 -13 -16 -38 -35 -57
l-35 -34 0 37 c0 23 5 39 15 42 8 4 15 12 15 20 0 8 -6 11 -15 8 -12 -5 -14 2
-11 34 2 25 0 43 -7 45 -7 2 -9 7 -5 11 3 4 16 2 28 -4 14 -8 19 -15 12 -19
-7 -4 -8 -12 -1 -21 8 -13 10 -13 19 0 15 22 13 28 -17 47 -16 10 -31 22 -35
28 -4 5 -8 6 -8 2 0 -5 -5 -5 -11 -1 -8 4 -7 9 2 16 11 8 12 10 1 15 -10 4 -9
10 5 26 19 22 20 22 -31 1 -9 -3 -19 3 -26 16 -15 28 -4 39 14 14 14 -18 15
-18 35 6 11 14 20 30 20 35 0 6 -3 4 -6 -3 -4 -10 -8 -10 -19 -1 -8 6 -14 17
-14 23 0 6 5 4 10 -4 5 -8 10 -10 10 -5 0 18 44 12 62 -8 25 -28 38 -81 39
-162 1 -53 3 -63 9 -40 12 46 10 146 -3 185 -8 24 -19 36 -35 38 -13 2 -26 10
-28 17 -3 8 -12 11 -20 8 -8 -3 -14 0 -14 5 0 10 19 18 48 21 6 0 12 -4 12
-10z m-80 -89 c0 -5 -2 -10 -4 -10 -3 0 -8 5 -11 10 -3 6 -1 10 4 10 6 0 11
-4 11 -10z m-155 -170 c3 -6 -1 -7 -9 -4 -18 7 -21 14 -7 14 6 0 13 -4 16 -10z
m22 -51 c11 -4 24 -12 28 -18 7 -13 -12 -6 -64 21 -35 18 -17 17 36 -3z m-279
-199 c12 -6 33 -14 47 -20 28 -11 31 -22 12 -38 -10 -9 -27 2 -73 44 -32 31
-48 49 -34 40 14 -9 35 -21 48 -26z m-288 20 c8 -5 11 -10 5 -10 -5 0 -17 5
-25 10 -8 5 -10 10 -5 10 6 0 17 -5 25 -10z m209 -11 c6 8 11 9 15 3 3 -6 0
-12 -6 -15 -8 -3 -6 -7 7 -12 29 -11 85 -54 85 -66 0 -15 -13 -10 -45 17 -16
15 -47 38 -67 52 -21 13 -38 29 -38 35 0 6 9 2 21 -9 16 -14 22 -15 28 -5z
m695 -71 c10 -32 22 -60 27 -64 25 -15 2 -24 -60 -24 -54 0 -70 3 -75 16 -4 9
-2 22 2 28 5 6 12 23 15 37 8 32 56 85 66 73 4 -5 16 -35 25 -66z m-899 52 c3
-6 -1 -7 -9 -4 -18 7 -21 14 -7 14 6 0 13 -4 16 -10z m-39 -10 c43 -17 24 -19
-31 -5 -35 10 -42 14 -23 14 15 1 39 -4 54 -9z m127 -31 c26 -17 47 -32 47
-34 0 -9 -58 18 -85 40 -42 35 -17 31 38 -6z m107 16 c11 -13 10 -14 -4 -9 -9
3 -16 2 -16 -4 0 -6 6 -13 13 -15 9 -4 9 -6 0 -6 -16 -1 -24 14 -17 33 8 20 8
20 24 1z m-164 -20 c16 -12 16 -14 3 -15 -9 0 -22 7 -29 15 -16 19 0 19 26 0z
m-61 -5 c3 -5 2 -10 -4 -10 -5 0 -13 5 -16 10 -3 6 -2 10 4 10 5 0 13 -4 16
-10z m-55 -10 c0 -5 8 -7 18 -3 13 5 14 3 5 -7 -9 -10 -16 -9 -34 4 -19 13
-20 16 -6 16 9 0 17 -4 17 -10z m-40 -20 c0 -5 -7 -7 -15 -4 -8 4 -12 10 -9
15 6 11 24 2 24 -11z m295 10 c3 -5 1 -10 -4 -10 -6 0 -11 5 -11 10 0 6 2 10
4 10 3 0 8 -4 11 -10z m74 -11 c-7 -4 -10 -11 -7 -15 4 -3 0 -13 -8 -22 -14
-13 -17 -13 -31 1 -14 13 -14 18 -2 30 8 7 20 12 27 9 6 -2 12 1 12 8 0 6 5 8
11 4 8 -4 7 -9 -2 -15z m-69 -29 c11 -7 12 -12 3 -21 -8 -8 -14 -6 -22 10 -12
22 -5 27 19 11z m-196 -22 c-3 -5 -12 -4 -20 3 -19 16 -18 18 6 12 11 -3 17
-9 14 -15z m348 -810 c-16 -6 -16 -7 1 -7 17 -1 57 -34 57 -48 0 -4 -5 -2 -12
5 -7 7 -16 12 -22 12 -6 0 -5 -5 2 -12 7 -7 12 -16 12 -21 0 -5 -7 -2 -15 7
-8 8 -15 17 -15 21 0 3 -10 19 -22 36 -19 26 -20 31 -8 39 12 8 11 10 -5 10
-16 0 -17 2 -5 10 10 6 19 2 32 -18 17 -25 17 -27 0 -34z m-120 -32 c30 -21
15 -21 -20 1 l-27 16 27 -28 c23 -24 29 -26 43 -15 14 12 14 15 -1 31 -27 30
-11 22 29 -15 37 -34 40 -54 6 -35 -13 6 -19 6 -19 -1 0 -5 6 -10 14 -10 8 0
18 -5 22 -11 5 -9 -1 -10 -20 -5 -15 4 -25 3 -22 -2 3 -5 -13 -24 -35 -43 -22
-19 -47 -40 -55 -47 -7 -7 -18 -11 -23 -7 -5 3 -12 1 -15 -4 -3 -5 1 -11 9
-15 8 -3 15 -10 15 -16 0 -7 -7 -7 -22 1 -16 9 -23 9 -26 0 -2 -6 -12 -11 -23
-11 -10 0 -19 -4 -19 -10 0 -5 -11 -10 -25 -10 -14 0 -25 -4 -25 -10 0 -5 -6
-10 -14 -10 -8 0 -17 -6 -19 -12 -4 -9 -13 -5 -27 12 -16 18 -20 20 -16 7 5
-15 2 -17 -15 -12 -15 5 -19 4 -15 -4 4 -6 13 -11 20 -11 17 0 65 -39 50 -40
-6 0 -17 6 -24 14 -6 8 -18 12 -26 9 -8 -3 -21 0 -29 7 -14 11 -14 15 2 32 9
10 18 25 19 33 2 16 36 64 45 65 4 0 9 -7 13 -15 3 -8 0 -15 -7 -15 -14 -1 22
-30 37 -30 5 0 1 7 -10 15 -22 17 -3 21 27 5 10 -6 19 -7 19 -2 0 5 -15 14
-32 20 -31 10 -32 11 -10 17 27 9 27 13 5 38 -17 19 -17 20 4 15 13 -4 26 -2
29 3 3 6 15 7 27 4 21 -6 21 -6 3 9 -22 18 -22 18 22 35 17 8 32 16 33 20 4
34 12 49 36 68 26 22 28 22 35 4 3 -10 17 -26 30 -35z m-198 12 c-16 -18 -32
-34 -36 -36 -5 -2 -8 -10 -8 -18 0 -9 -4 -13 -9 -9 -17 10 -21 -12 -6 -25 8
-7 15 -18 15 -24 0 -6 -5 -3 -11 7 -5 9 -17 17 -25 17 -12 0 -12 -4 -4 -20 9
-16 8 -18 -5 -14 -8 4 -15 1 -15 -6 0 -6 -4 -9 -9 -6 -22 14 68 137 114 156
31 13 31 12 -1 -22z m401 -48 c3 -5 -1 -10 -10 -10 -9 0 -13 5 -10 10 3 6 8
10 10 10 2 0 7 -4 10 -10z m20 -40 c8 -13 -25 -13 -45 0 -12 8 -9 10 12 10 15
0 30 -4 33 -10z m-50 -20 c4 -6 -5 -10 -20 -10 -15 0 -24 4 -20 10 3 6 12 10
20 10 8 0 17 -4 20 -10z m-105 -88 c-21 -4 -29 -42 -8 -42 6 0 9 -2 6 -5 -10
-10 -38 7 -38 22 0 9 10 24 22 35 17 14 23 16 30 6 5 -9 1 -14 -12 -16z m70
-12 c8 -5 12 -11 9 -14 -3 -3 -14 1 -25 9 -21 16 -8 20 16 5z m90 -4 c0 -3 -4
-8 -10 -11 -5 -3 -10 -1 -10 4 0 6 5 11 10 11 6 0 10 -2 10 -4z m-210 -35 c0
-16 -6 -32 -12 -34 -18 -8 10 -27 39 -27 12 0 25 -5 29 -11 5 -9 -1 -10 -22
-3 -16 5 -62 7 -102 6 -52 -2 -72 0 -67 8 4 6 15 8 26 5 12 -4 21 -1 25 9 3 9
16 17 28 17 17 1 18 2 3 6 -16 4 -15 7 8 29 34 32 45 30 45 -5z m59 -38 c2 -2
-5 -3 -17 -3 -14 0 -22 6 -22 16 0 14 3 15 18 3 9 -7 19 -15 21 -16z m36 -3
c3 -5 2 -10 -4 -10 -5 0 -13 5 -16 10 -3 6 -2 10 4 10 5 0 13 -4 16 -10z m55
-10 c0 -5 -4 -10 -9 -10 -6 0 -13 5 -16 10 -3 6 1 10 9 10 9 0 16 -4 16 -10z
m-495 -20 c3 -5 1 -10 -4 -10 -6 0 -11 5 -11 10 0 6 2 10 4 10 3 0 8 -4 11
-10z m140 -8 c-3 -3 -11 0 -18 7 -9 10 -8 11 6 5 10 -3 15 -9 12 -12z"/>
<path d="M2845 3300 c-3 -5 -1 -10 4 -10 6 0 11 5 11 10 0 6 -2 10 -4 10 -3 0
-8 -4 -11 -10z"/>
<path d="M2870 3269 c0 -5 5 -7 10 -4 6 3 10 8 10 11 0 2 -4 4 -10 4 -5 0 -10
-5 -10 -11z"/>
<path d="M2320 2830 c0 -5 5 -10 10 -10 6 0 10 5 10 10 0 6 -4 10 -10 10 -5 0
-10 -4 -10 -10z"/>
<path d="M2270 1930 c0 -5 5 -10 10 -10 6 0 10 -5 10 -10 0 -6 -12 -8 -27 -5
-16 3 -22 2 -15 -1 18 -8 15 -24 -5 -24 -13 0 -14 -3 -6 -11 8 -8 17 -6 34 10
13 11 29 21 37 21 12 0 11 4 -3 20 -20 22 -35 26 -35 10z"/>
<path d="M2210 1846 c0 -8 7 -16 15 -20 10 -4 15 1 15 14 0 11 -7 20 -15 20
-8 0 -15 -6 -15 -14z"/>
<path d="M2195 1810 c-3 -5 -1 -10 4 -10 6 0 11 5 11 10 0 6 -2 10 -4 10 -3 0
-8 -4 -11 -10z"/>
<path d="M2138 1783 c7 -3 16 -2 19 1 4 3 -2 6 -13 5 -11 0 -14 -3 -6 -6z"/>
<path d="M2040 1730 c20 -13 33 -13 25 0 -3 6 -14 10 -23 10 -15 0 -15 -2 -2
-10z"/>
<path d="M2000 4062 c6 -13 14 -21 18 -18 3 4 -2 14 -12 24 -18 16 -18 16 -6
-6z"/>
<path d="M1750 4055 c7 -8 17 -15 22 -15 6 0 5 7 -2 15 -7 8 -17 15 -22 15 -6
0 -5 -7 2 -15z"/>
<path d="M1560 4037 c0 -13 41 -69 47 -63 3 2 0 11 -6 18 -7 7 -18 22 -26 33
-8 11 -15 16 -15 12z"/>
<path d="M1815 4015 c17 -13 35 -24 40 -24 6 0 -3 11 -20 24 -16 14 -34 25
-40 25 -5 0 4 -11 20 -25z"/>
<path d="M1770 4021 c0 -5 5 -13 10 -16 6 -3 10 -2 10 4 0 5 -4 13 -10 16 -5
3 -10 2 -10 -4z"/>
<path d="M1646 4003 c-7 -7 53 -35 99 -48 30 -7 29 -8 -22 -23 -55 -15 -70
-32 -29 -32 13 0 26 -3 29 -7 2 -5 2 -2 1 5 -2 8 13 12 55 12 59 0 191 -39
222 -66 8 -8 19 -14 22 -14 4 0 25 -11 47 -25 47 -29 47 -29 47 -9 0 22 -208
122 -357 170 -41 14 -82 29 -91 34 -9 5 -20 6 -23 3z"/>
<path d="M1437 3983 c-8 -17 2 -80 19 -118 10 -22 23 -66 29 -97 l11 -57 -37
-31 c-21 -16 -43 -30 -48 -30 -6 0 -11 -5 -11 -11 0 -7 -8 -18 -17 -25 -17
-13 -17 -13 0 -14 9 0 17 5 17 10 0 6 7 10 15 10 8 0 15 -4 15 -9 0 -5 -7 -14
-15 -21 -18 -15 -20 -34 -3 -24 8 5 9 1 5 -12 -6 -18 -6 -18 6 0 26 40 49 66
57 66 5 0 7 -7 4 -15 -4 -8 -1 -15 5 -15 7 0 14 7 17 15 4 10 19 15 43 15 26
0 32 -3 21 -10 -13 -8 -12 -11 5 -24 11 -8 22 -10 23 -5 6 14 22 11 22 -5 0
-8 -8 -17 -17 -20 -15 -6 -15 -8 -3 -17 10 -6 12 -11 4 -16 -18 -13 -24 -53
-8 -53 8 0 14 -5 14 -11 0 -5 4 -8 9 -5 5 3 21 -13 37 -35 19 -28 33 -39 46
-36 10 3 15 1 12 -4 -3 -5 2 -12 10 -15 9 -3 16 -11 16 -17 0 -5 11 -24 23
-41 13 -17 32 -53 42 -81 36 -99 123 -188 167 -172 8 3 4 8 -12 15 -49 22 -81
64 -59 78 6 3 8 17 5 30 -4 14 -2 24 4 24 6 0 8 -4 5 -10 -3 -5 -2 -10 3 -10
6 0 10 -6 9 -12 -1 -46 6 -59 46 -82 30 -17 51 -23 71 -19 24 5 28 3 23 -10
-4 -10 -2 -14 6 -11 7 2 26 -9 42 -26 16 -16 33 -30 39 -30 5 0 0 11 -13 23
-13 15 -19 30 -15 40 3 10 1 17 -5 17 -6 0 -11 -5 -11 -11 0 -5 -5 -7 -11 -3
-8 4 -7 9 2 15 8 5 10 9 5 9 -5 0 -3 6 3 14 7 9 24 13 42 11 l29 -4 -15 29
c-18 35 -19 48 -3 32 17 -17 28 -15 21 5 -5 12 -2 15 13 11 10 -2 33 1 49 9
29 12 27 13 -27 9 -32 -2 -56 0 -53 4 7 11 -22 21 -40 14 -8 -4 -13 -10 -10
-14 3 -5 1 -11 -4 -14 -5 -3 -11 1 -14 8 -7 19 16 38 48 40 30 1 27 21 -4 20
-11 0 -21 5 -21 13 0 7 7 13 15 13 8 0 15 5 15 10 0 13 -6 13 -31 -1 -15 -7
-24 -7 -33 1 -18 14 -31 -17 -15 -37 27 -31 -1 -21 -42 17 -38 34 -41 40 -22
40 12 0 25 -5 28 -10 4 -6 11 -8 16 -4 6 4 6 11 -2 20 -9 11 -8 14 7 14 18 1
18 1 0 15 -11 8 -15 15 -9 15 7 0 11 9 10 20 -1 11 -5 20 -10 20 -4 0 -6 4 -2
10 3 5 13 6 22 3 15 -6 15 -5 3 8 -12 14 -16 14 -30 0 -10 -9 -17 -18 -17 -21
-1 -21 -8 -28 -42 -50 -22 -13 -38 -28 -35 -32 3 -4 1 -8 -5 -8 -14 0 -21 14
-13 26 9 14 54 39 65 36 4 -1 7 6 7 17 0 10 7 24 15 31 8 7 15 19 15 26 0 10
16 14 63 14 35 0 67 -3 70 -7 4 -3 42 -8 85 -10 56 -2 72 0 60 7 -9 6 -15 16
-12 23 8 22 -39 37 -61 20 -19 -14 -19 -14 -1 -11 10 2 21 -3 23 -9 7 -19 -43
-16 -62 4 -13 13 -18 14 -25 3 -6 -9 -10 -6 -15 11 -9 27 -7 35 6 32 5 -2 9 4
9 12 0 8 5 15 11 15 5 0 7 5 4 10 -4 6 7 10 27 10 31 1 32 2 14 15 -10 8 -22
12 -26 10 -5 -3 -10 2 -14 10 -3 8 -12 15 -20 15 -22 0 -128 56 -156 82 -13
13 -42 31 -64 41 -22 10 -43 21 -46 26 -3 4 -25 17 -50 29 -36 17 -59 20 -113
18 -38 -2 -74 -9 -80 -15 -6 -6 -16 -11 -21 -11 -6 0 5 13 24 30 37 31 31 41
-8 14 -12 -8 -27 -12 -34 -8 -7 4 -8 3 -4 -4 4 -7 1 -12 -8 -12 -9 0 -16 7
-16 15 0 8 5 15 11 15 5 0 7 5 4 10 -5 8 -12 7 -22 -2 -13 -11 -21 -6 -49 27
-19 22 -42 57 -52 77 -16 35 -36 48 -45 31z m648 -353 c3 -5 1 -10 -4 -10 -6
0 -11 5 -11 10 0 6 2 10 4 10 3 0 8 -4 11 -10z m57 -27 c-10 -4 -10 -8 -1 -19
9 -11 7 -14 -10 -14 -30 0 -29 35 2 37 12 0 16 -1 9 -4z m18 -53 c0 -5 -4 -10
-10 -10 -5 0 -10 5 -10 10 0 6 5 10 10 10 6 0 10 -4 10 -10z m-43 -17 c-4 -3
0 -15 10 -25 21 -24 8 -23 -23 1 -22 17 -23 20 -7 24 10 3 20 5 22 6 2 0 1 -2
-2 -6z m-457 -53 c0 -5 -2 -10 -4 -10 -3 0 -8 5 -11 10 -3 6 -1 10 4 10 6 0
11 -4 11 -10z m108 -135 c-3 -3 -9 2 -12 12 -6 14 -5 15 5 6 7 -7 10 -15 7
-18z m137 -23 c-2 -3 -11 1 -20 8 -8 7 -15 9 -15 6 0 -4 -5 -4 -11 0 -8 4 -7
9 2 15 13 8 54 -19 44 -29z m195 -62 c6 -11 7 -20 3 -20 -5 0 -14 9 -21 20 -7
11 -8 20 -2 20 5 0 14 -9 20 -20z m-260 0 c0 -5 -2 -10 -4 -10 -3 0 -8 5 -11
10 -3 6 -1 10 4 10 6 0 11 -4 11 -10z m205 -20 c3 -5 1 -10 -4 -10 -6 0 -11 5
-11 10 0 6 2 10 4 10 3 0 8 -4 11 -10z m-178 -9 c-1 -3 4 -16 11 -29 10 -16
10 -27 2 -40 -10 -15 -11 -14 -7 5 4 16 1 20 -10 16 -12 -5 -14 -1 -8 15 4 13
2 22 -4 22 -6 0 -11 4 -11 8 0 5 7 9 14 9 8 0 14 -3 13 -6z m260 -87 c-9 -9
-28 6 -21 18 4 6 10 6 17 -1 6 -6 8 -13 4 -17z m-170 -16 c-3 -7 -5 -2 -5 12
0 14 2 19 5 13 2 -7 2 -19 0 -25z m143 7 c9 -10 9 -15 1 -15 -6 0 -11 5 -11
10 0 6 -5 10 -11 10 -6 0 -8 -7 -4 -17 5 -14 3 -15 -6 -6 -11 11 -5 33 10 33
5 0 14 -7 21 -15z m-92 -15 c31 -29 27 -41 -8 -29 -19 7 -30 18 -30 30 0 24
11 24 38 -1z m42 -10 c0 -5 -2 -10 -4 -10 -3 0 -8 5 -11 10 -3 6 -1 10 4 10 6
0 11 -4 11 -10z"/>
<path d="M1800 3981 c0 -6 4 -13 10 -16 6 -3 7 1 4 9 -7 18 -14 21 -14 7z"/>
<path d="M1890 3960 c14 -10 27 -17 29 -14 6 5 -31 33 -44 33 -5 1 1 -8 15
-19z"/>
<path d="M1625 3950 c3 -5 8 -10 11 -10 2 0 4 5 4 10 0 6 -5 10 -11 10 -5 0
-7 -4 -4 -10z"/>
<path d="M1730 3840 c-8 -5 -11 -12 -8 -16 4 -3 14 1 23 10 18 17 9 21 -15 6z"/>
<path d="M1915 3830 c10 -11 23 -20 28 -20 6 0 1 9 -11 20 -12 11 -24 20 -28
20 -4 0 1 -9 11 -20z"/>
<path d="M2692 3830 c7 -10 14 -18 15 -16 6 6 -9 36 -18 36 -5 0 -4 -9 3 -20z"/>
<path d="M2130 3802 c0 -6 9 -12 20 -15 11 -3 20 -3 20 -1 0 2 -9 8 -20 14
-11 6 -20 7 -20 2z"/>
<path d="M2710 3794 c0 -13 18 -39 24 -34 2 3 -2 14 -10 24 -8 11 -14 16 -14
10z"/>
<path d="M2190 3772 c0 -10 81 -45 88 -37 2 2 -13 12 -34 21 -22 10 -42 20
-46 22 -5 2 -8 -1 -8 -6z"/>
<path d="M2165 3736 c22 -19 42 -32 45 -29 6 6 -60 63 -75 63 -5 0 8 -15 30
-34z"/>
<path d="M2225 3690 c3 -5 8 -10 11 -10 2 0 4 5 4 10 0 6 -5 10 -11 10 -5 0
-7 -4 -4 -10z"/>
<path d="M2260 3667 c0 -10 41 -49 46 -45 2 3 -7 15 -21 28 -14 13 -25 20 -25
17z"/>
<path d="M2338 3587 c12 -13 19 -27 15 -31 -4 -4 1 -4 10 0 17 6 16 8 -4 30
-12 13 -27 24 -32 24 -6 0 -1 -10 11 -23z"/>
<path d="M1536 3572 c-2 -4 4 -13 15 -20 21 -13 22 -12 13 12 -7 17 -20 21
-28 8z"/>
<path d="M2257 3549 c4 -13 11 -27 16 -31 13 -8 37 1 37 15 0 6 -3 7 -7 4 -3
-4 -17 2 -29 14 l-23 21 6 -23z"/>
<path d="M2220 3550 c0 -5 5 -10 11 -10 5 0 7 5 4 10 -3 6 -8 10 -11 10 -2 0
-4 -4 -4 -10z"/>
<path d="M2186 3523 c-11 -11 -7 -20 9 -20 8 0 15 4 15 8 0 11 -16 20 -24 12z"/>
<path d="M2315 3512 c-9 -9 -5 -23 5 -17 6 3 10 2 10 -2 0 -5 9 -9 20 -9 11 0
20 3 20 6 0 8 -48 28 -55 22z"/>
<path d="M2440 3500 c-8 -5 -10 -10 -5 -10 6 0 17 5 25 10 8 5 11 10 5 10 -5
0 -17 -5 -25 -10z"/>
<path d="M2525 3470 c3 -5 11 -10 16 -10 6 0 7 5 4 10 -3 6 -11 10 -16 10 -6
0 -7 -4 -4 -10z"/>
<path d="M1568 3426 c-3 -31 -2 -35 7 -22 16 21 29 21 21 -1 -6 -14 -3 -14 15
3 20 18 20 19 3 23 -10 2 -24 10 -30 19 -9 13 -12 9 -16 -22z"/>
<path d="M2356 3425 c25 -19 40 -19 24 0 -7 8 -20 15 -28 15 -13 0 -12 -3 4
-15z"/>
<path d="M2440 3420 c8 -5 20 -10 25 -10 6 0 3 5 -5 10 -8 5 -19 10 -25 10 -5
0 -3 -5 5 -10z"/>
<path d="M2405 3400 c3 -5 8 -10 11 -10 2 0 4 5 4 10 0 6 -5 10 -11 10 -5 0
-7 -4 -4 -10z"/>
<path d="M2270 3375 c33 -19 49 -19 24 0 -10 8 -26 14 -34 14 -9 0 -4 -6 10
-14z"/>
<path d="M2138 3363 c7 -3 16 -2 19 1 4 3 -2 6 -13 5 -11 0 -14 -3 -6 -6z"/>
<path d="M2490 3356 c0 -2 7 -7 16 -10 8 -3 12 -2 9 4 -6 10 -25 14 -25 6z"/>
<path d="M2096 3318 c6 -9 64 -7 64 3 0 4 -15 7 -34 6 -19 -1 -32 -5 -30 -9z"/>
<path d="M2260 3293 c0 -10 4 -14 8 -8 4 6 11 13 16 18 5 4 2 7 -7 7 -10 0
-17 -8 -17 -17z"/>
<path d="M1312 3280 c-18 -30 -14 -36 8 -12 21 22 25 32 12 32 -4 0 -13 -9
-20 -20z"/>
<path d="M1483 3276 c4 -10 7 -24 7 -32 0 -8 4 -14 9 -14 14 0 6 53 -9 58 -9
3 -11 -1 -7 -12z"/>
<path d="M2179 3279 c-10 -6 -10 -11 0 -23 14 -17 36 -23 27 -7 -3 5 6 12 20
15 15 4 24 9 21 12 -9 9 -55 11 -68 3z"/>
<path d="M2315 3260 c10 -11 20 -18 23 -16 5 6 -23 36 -34 36 -4 0 1 -9 11
-20z"/>
<path d="M1416 3256 c3 -9 1 -16 -5 -16 -6 0 -11 5 -11 10 0 6 -7 10 -15 10
-24 0 -17 -14 12 -27 36 -17 40 -17 66 8 l22 21 -23 -7 c-13 -4 -29 -2 -38 6
-12 10 -13 9 -8 -5z"/>
<path d="M2227 3143 c-4 -3 -7 -11 -7 -17 0 -6 5 -5 12 2 6 6 9 14 7 17 -3 3
-9 2 -12 -2z"/>
<path d="M2197 3104 c-8 -8 3 -34 15 -34 7 0 6 5 -1 13 -6 8 -8 17 -4 20 3 4
4 7 1 7 -2 0 -7 -3 -11 -6z"/>
<path d="M2280 3081 c0 -6 4 -13 10 -16 6 -3 7 1 4 9 -7 18 -14 21 -14 7z"/>
<path d="M2400 3076 c0 -2 8 -10 18 -17 15 -13 16 -12 3 4 -13 16 -21 21 -21
13z"/>
<path d="M2235 3060 c3 -5 11 -10 16 -10 6 0 7 5 4 10 -3 6 -11 10 -16 10 -6
0 -7 -4 -4 -10z"/>
<path d="M1914 3031 c20 -22 26 -25 26 -13 0 4 -10 13 -22 21 -23 14 -23 14
-4 -8z"/>
<path d="M2140 3035 c7 -9 15 -13 17 -11 7 7 -7 26 -19 26 -6 0 -6 -6 2 -15z"/>
<path d="M2350 3041 c0 -5 7 -11 15 -15 9 -3 15 0 15 9 0 8 -7 15 -15 15 -8 0
-15 -4 -15 -9z"/>
<path d="M2393 3029 c3 -15 12 -25 23 -26 10 -2 13 0 6 3 -6 3 -10 9 -7 14 3
4 -2 13 -10 20 -13 11 -15 9 -12 -11z"/>
<path d="M2691 2516 c-6 -16 -10 -31 -7 -33 7 -8 28 37 23 50 -3 7 -10 -1 -16
-17z"/>
<path d="M2667 2457 c-4 -10 -7 -26 -7 -35 1 -15 2 -15 11 1 6 10 9 25 7 35
-3 16 -4 15 -11 -1z"/>
<path d="M2541 1671 c-14 -25 1 -36 28 -21 14 7 22 7 26 -1 5 -6 22 -8 46 -4
26 5 39 3 39 -4 0 -8 6 -9 19 -2 10 6 33 8 52 5 19 -3 65 1 102 10 38 9 108
16 158 16 61 0 89 4 89 12 0 11 -31 10 -347 -7 -29 -1 -68 -6 -87 -9 -19 -4
-37 -2 -40 3 -3 5 -15 7 -26 4 -11 -3 -27 0 -34 6 -12 10 -17 8 -25 -8z"/>
</g>
</svg>
