<?xml version="1.0" standalone="no"?>
<!DOCTYPE svg PUBLIC "-//W3C//DTD SVG 20010904//EN"
 "http://www.w3.org/TR/2001/REC-SVG-20010904/DTD/svg10.dtd">
<svg version="1.0" xmlns="http://www.w3.org/2000/svg"
 width="466.000000pt" height="466.000000pt" viewBox="0 0 466.000000 466.000000"
 preserveAspectRatio="xMidYMid meet">

<g transform="translate(0.000000,466.000000) scale(0.100000,-0.100000)"
fill="#000000" stroke="none">
<path d="M1855 3987 c-168 -56 -275 -206 -275 -386 0 -164 86 -303 229 -370
48 -22 69 -26 146 -26 77 1 98 5 146 28 202 97 283 351 180 556 -35 68 -123
154 -188 182 -60 26 -182 34 -238 16z m166 -131 c53 -19 107 -64 136 -114 37
-63 45 -188 16 -253 -29 -64 -66 -104 -125 -133 -93 -47 -174 -31 -254 48
-112 113 -113 279 -1 390 72 71 146 92 228 62z"/>
<path d="M3448 3985 c-68 -22 -164 -100 -204 -165 -116 -192 -64 -443 117
-560 145 -94 325 -75 448 48 62 62 90 116 111 212 14 65 15 84 3 145 -26 138
-102 244 -215 299 -71 35 -187 44 -260 21z m188 -134 c128 -58 187 -199 145
-346 -27 -92 -134 -175 -226 -175 -84 0 -168 57 -210 145 -55 112 -26 263 65
335 78 62 151 75 226 41z"/>
<path d="M768 3979 c-13 -7 -18 -23 -18 -52 0 -46 13 -67 42 -67 17 0 18 -16
18 -254 l0 -253 -30 -6 c-29 -6 -30 -8 -30 -61 0 -40 4 -55 16 -60 9 -3 74 -6
145 -6 116 0 131 2 149 20 27 27 26 75 -2 94 -13 9 -43 16 -70 16 l-48 0 0
192 c0 105 3 189 6 185 4 -3 39 -77 79 -164 l72 -158 57 -3 56 -3 51 108 c28
59 60 131 71 158 12 28 25 54 30 60 4 5 8 -77 8 -183 l0 -192 -50 0 c-77 0
-115 -53 -76 -106 13 -17 29 -19 151 -22 112 -3 140 -1 161 12 48 32 21 116
-38 116 -17 0 -18 17 -18 255 0 241 1 255 18 255 47 0 69 73 32 110 -17 17
-33 20 -117 20 l-98 0 -89 -196 -90 -196 -41 89 c-22 48 -63 136 -90 195 l-50
108 -95 0 c-52 0 -103 -5 -112 -11z"/>
<path d="M2380 3983 c-70 -25 -42 -123 35 -123 l35 0 0 -255 c0 -248 -1 -255
-20 -255 -28 0 -60 -35 -60 -65 0 -14 9 -34 20 -45 18 -18 33 -20 153 -20 154
0 177 9 177 65 0 43 -29 65 -88 65 -25 0 -45 5 -48 13 -2 7 -3 95 -2 197 l3
183 174 -261 173 -262 64 0 64 0 0 314 0 314 38 19 c31 15 37 24 40 55 5 59
-18 68 -169 68 -113 0 -129 -2 -153 -21 -57 -45 -20 -109 64 -109 l50 0 0
-191 c0 -104 -3 -188 -8 -185 -4 2 -82 117 -172 255 l-165 251 -95 -1 c-52 0
-102 -3 -110 -6z"/>
<path d="M3531 3070 c-56 -44 -101 -87 -101 -94 0 -18 27 -46 45 -46 17 0 201
144 208 164 7 17 -19 56 -38 56 -8 0 -59 -36 -114 -80z"/>
<path d="M1004 2822 c-62 -22 -101 -51 -136 -104 -35 -52 -44 -101 -29 -157
28 -104 90 -144 286 -185 125 -27 164 -46 179 -89 22 -62 -56 -112 -179 -112
-104 0 -159 27 -192 97 -25 52 -53 67 -89 48 -32 -18 -47 -69 -42 -150 2 -49
9 -74 22 -89 23 -26 60 -27 84 -3 16 17 20 16 77 -8 49 -20 77 -25 150 -25
106 0 159 14 216 58 63 48 80 76 86 145 5 49 2 69 -16 106 -40 82 -100 111
-333 161 -63 13 -82 22 -103 47 -29 34 -27 58 9 97 46 52 138 66 212 32 44
-20 74 -54 74 -83 0 -26 36 -58 65 -58 14 0 34 9 45 20 17 17 20 33 20 120 0
87 -3 103 -20 120 -27 27 -55 25 -79 -6 l-20 -26 -28 20 c-62 44 -172 54 -259
24z"/>
<path d="M1656 2809 c-29 -23 -33 -55 -12 -85 12 -16 30 -20 113 -24 l98 -5 0
-250 0 -250 -98 -5 c-83 -4 -101 -8 -113 -24 -20 -28 -17 -63 6 -86 19 -19 33
-20 268 -20 279 0 292 3 292 65 0 52 -27 65 -132 65 l-88 0 2 253 3 252 91 5
c103 6 124 17 124 66 0 61 -14 64 -286 64 -229 0 -243 -1 -268 -21z"/>
<path d="M2392 2814 c-27 -19 -30 -75 -5 -95 9 -8 43 -16 77 -19 l61 -5 3
-252 2 -253 -58 0 c-73 0 -102 -18 -102 -65 0 -64 4 -65 382 -65 l338 0 0 25
0 24 25 -24 c23 -24 29 -25 157 -25 154 0 178 9 178 64 0 42 -20 59 -75 66
l-43 5 15 38 15 37 162 0 162 0 17 -35 c9 -20 17 -38 17 -40 0 -3 -17 -5 -38
-5 -53 0 -82 -23 -82 -65 0 -56 23 -65 175 -65 71 0 135 4 140 8 6 4 10 30 10
57 0 53 -7 65 -41 65 -18 0 -38 43 -150 320 l-128 320 -172 0 c-158 0 -173 -2
-198 -21 -31 -25 -34 -61 -6 -89 16 -16 33 -20 83 -20 35 0 66 -2 68 -5 3 -2
-39 -117 -94 -255 -92 -231 -101 -250 -123 -250 -14 0 -36 -11 -49 -25 l-25
-24 0 108 c0 94 -3 112 -21 135 -25 31 -61 34 -89 6 -17 -17 -20 -33 -20 -110
l0 -90 -145 0 -145 0 0 255 0 255 63 0 c68 0 78 4 96 37 16 31 14 41 -14 68
-24 25 -26 25 -212 25 -154 0 -193 -3 -211 -16z m1192 -298 l45 -106 -104 0
-104 0 35 83 c20 45 43 99 51 121 19 45 16 49 77 -98z"/>
<path d="M2645 1597 c-107 -36 -197 -114 -236 -204 -47 -111 -46 -291 2 -388
45 -89 146 -166 242 -181 20 -4 40 -11 43 -15 7 -12 139 -12 162 0 9 5 44 17
77 27 67 21 155 95 155 131 0 30 -38 73 -65 73 -13 0 -44 -18 -70 -40 -57 -49
-77 -55 -190 -55 -77 0 -98 4 -140 26 -30 15 -62 42 -80 68 -28 39 -30 50 -33
143 -5 122 10 169 73 227 53 49 108 65 193 57 80 -7 142 -39 155 -81 14 -43
36 -65 66 -65 54 0 71 33 71 137 0 89 -14 123 -54 138 -25 8 -31 6 -52 -18
l-24 -28 -56 27 c-66 32 -175 42 -239 21z"/>
<path d="M3443 1596 c-68 -22 -127 -61 -181 -121 -145 -159 -132 -424 28 -569
45 -40 130 -86 160 -86 11 0 20 -4 20 -10 0 -6 28 -10 65 -10 37 0 65 4 65 10
0 6 9 10 20 10 65 0 206 112 244 195 62 131 58 285 -9 401 -32 55 -113 127
-181 160 -66 32 -167 41 -231 20z m161 -137 c50 -14 124 -83 149 -139 29 -64
27 -169 -2 -232 -59 -122 -195 -180 -306 -129 -46 20 -111 88 -130 135 -42
100 -23 216 48 293 69 75 146 98 241 72z"/>
<path d="M785 1588 c-27 -15 -35 -28 -35 -60 0 -39 32 -68 75 -68 l35 0 0
-250 0 -250 -33 0 c-48 0 -77 -24 -77 -65 0 -62 12 -65 296 -65 273 0 316 6
379 55 49 37 67 78 68 149 1 72 -19 115 -76 167 l-39 36 27 41 c56 85 40 179
-42 252 -70 62 -113 70 -352 70 -135 -1 -213 -5 -226 -12z m470 -143 c48 -19
63 -59 37 -94 -33 -45 -68 -56 -189 -59 l-113 -4 0 86 0 86 115 0 c78 0 127
-5 150 -15z m6 -305 c19 -5 50 -24 68 -42 26 -26 31 -38 29 -67 -5 -59 -42
-71 -220 -71 l-148 0 0 95 0 95 118 0 c64 0 133 -5 153 -10z"/>
<path d="M1666 1579 c-17 -13 -26 -30 -26 -49 0 -51 38 -70 141 -70 l89 0 0
-250 0 -250 -89 0 c-74 0 -92 -3 -115 -21 -31 -25 -34 -61 -6 -89 19 -19 33
-20 268 -20 279 0 292 3 292 65 0 52 -27 65 -132 65 l-88 0 0 250 0 250 88 0
c104 0 132 13 132 63 -1 73 -17 77 -293 77 -222 0 -236 -1 -261 -21z"/>
</g>
</svg>
