<?xml version="1.0" standalone="no"?>
<!DOCTYPE svg PUBLIC "-//W3C//DTD SVG 20010904//EN"
 "http://www.w3.org/TR/2001/REC-SVG-20010904/DTD/svg10.dtd">
<svg version="1.0" xmlns="http://www.w3.org/2000/svg"
 width="466.000000pt" height="466.000000pt" viewBox="0 0 466.000000 466.000000"
 preserveAspectRatio="xMidYMid meet">

<g transform="translate(0.000000,466.000000) scale(0.100000,-0.100000)"
fill="#000000" stroke="none">
<path d="M1960 4133 c-25 -2 -52 -6 -60 -9 -8 -3 -49 -7 -90 -8 -69 -1 -80 -4
-140 -41 -59 -36 -133 -103 -216 -195 -121 -134 -153 -219 -160 -430 -4 -130
6 -261 28 -346 13 -54 16 -103 6 -106 -4 -2 -2 -15 6 -29 7 -14 13 -50 13 -81
-1 -71 35 -163 78 -203 23 -21 44 -60 69 -124 76 -197 140 -309 244 -427 137
-156 171 -199 186 -236 18 -45 6 -72 -43 -97 -22 -12 -42 -30 -46 -40 -4 -12
-35 -34 -78 -55 -68 -32 -313 -116 -384 -131 -18 -4 -33 -11 -33 -16 0 -6 -5
-7 -10 -4 -11 7 -174 -55 -269 -103 -30 -15 -61 -36 -68 -48 -13 -21 -13 -21
123 -23 128 -2 136 -1 129 16 -4 10 -10 30 -13 46 -4 26 -3 27 46 27 58 0 80
-24 37 -40 -15 -6 -25 -17 -25 -30 0 -20 2 -20 1089 -20 959 0 1090 2 1095 15
3 8 13 15 22 15 13 0 14 -3 4 -15 -10 -12 -9 -15 8 -15 11 0 22 6 25 13 4 10
7 10 18 0 7 -7 26 -13 41 -13 24 0 28 4 28 30 0 23 -5 31 -25 36 -32 8 -32 17
0 38 24 16 25 20 25 130 0 110 -1 113 -25 126 -14 7 -25 17 -25 22 0 5 11 6
25 2 22 -5 25 -3 25 21 0 23 -3 26 -22 21 -13 -3 -26 -6 -30 -6 -5 0 -8 -7 -8
-15 0 -20 -13 -19 -41 5 l-24 19 23 1 c14 0 22 5 20 13 -6 15 -45 22 -61 9 -8
-7 -23 -2 -47 15 l-35 25 35 -6 c19 -4 47 -8 61 -11 15 -2 46 -9 70 -14 27 -6
48 -6 53 -1 15 15 4 19 -75 26 -65 6 -89 14 -204 73 -102 52 -156 87 -250 166
-95 79 -131 103 -170 113 -27 7 -55 18 -62 25 -15 16 -44 284 -37 341 4 25 3
53 -2 63 -9 20 -11 62 -13 288 l-1 160 26 23 c14 13 33 22 42 20 29 -6 92
-100 92 -137 0 -130 -66 -347 -110 -358 -24 -6 -16 -23 10 -23 11 0 24 10 31
21 23 45 59 164 59 200 0 20 7 42 15 49 11 9 15 33 15 86 0 82 -20 127 -79
176 -16 14 -28 28 -25 30 7 7 -17 111 -29 126 -11 14 -34 99 -48 182 -6 30
-16 64 -23 75 -7 11 -16 37 -20 57 -6 34 -33 100 -56 138 -5 8 -11 23 -14 33
-4 11 -15 21 -25 24 -11 3 -29 24 -42 46 -23 44 -128 137 -153 137 -9 0 -20 9
-26 19 -6 12 -25 22 -52 26 -46 7 -77 17 -147 47 -30 14 -54 18 -81 13 -28 -5
-50 -1 -83 14 -25 12 -52 20 -59 19 -7 -1 -33 -3 -58 -5z m245 -183 c14 -5 47
-29 73 -53 63 -58 99 -81 149 -95 61 -18 83 -59 83 -152 0 -62 -3 -74 -22 -90
l-23 -18 23 -24 c12 -13 22 -30 22 -38 0 -8 23 -35 50 -60 49 -46 50 -47 50
-107 0 -34 3 -69 7 -79 5 -13 -6 -10 -51 15 -38 22 -64 31 -79 27 -18 -4 -27
1 -41 24 -9 17 -27 35 -39 42 -47 25 -271 7 -338 -28 -40 -20 -98 -93 -105
-132 -4 -22 -14 -36 -26 -40 -27 -7 -20 -46 10 -50 14 -2 27 -15 37 -38 23
-55 61 -99 125 -142 70 -49 128 -66 190 -58 82 11 137 35 174 77 33 35 36 45
36 97 0 65 12 87 53 96 15 3 38 9 52 12 17 4 25 2 25 -7 0 -7 10 -33 22 -57
28 -60 32 -112 16 -267 -17 -161 -10 -303 14 -319 25 -16 65 11 80 53 l12 36
7 -53 c6 -46 3 -61 -23 -115 -42 -88 -87 -152 -161 -229 -70 -74 -118 -100
-213 -117 -34 -7 -76 -18 -92 -27 -17 -8 -40 -17 -50 -19 -11 -2 -41 -13 -68
-26 -40 -18 -68 -22 -149 -23 l-100 0 -45 39 c-97 87 -168 171 -245 295 -41
66 -105 193 -105 209 0 6 -11 34 -25 61 -14 27 -25 56 -25 64 0 8 -12 26 -27
40 -15 14 -24 28 -20 32 4 4 15 0 25 -9 10 -10 23 -17 29 -17 18 0 41 -35 45
-68 l3 -32 68 34 c99 50 177 111 177 139 0 12 7 32 15 45 25 35 57 172 52 220
-4 38 -2 44 24 59 50 30 30 64 -25 44 -23 -9 -34 -6 -81 25 l-55 37 -72 -17
c-87 -21 -207 -77 -250 -118 -17 -16 -32 -27 -33 -26 -1 2 -13 59 -25 127 -19
104 -22 145 -17 249 4 91 10 129 21 141 29 32 126 215 126 239 0 16 11 15 44
-2 32 -16 93 -11 152 15 25 10 59 19 74 19 69 0 267 68 380 130 40 23 49 24
85 10z m-888 -452 c-3 -7 -5 -2 -5 12 0 14 2 19 5 13 2 -7 2 -19 0 -25z m1073
-224 c0 -23 -25 -44 -53 -44 -23 0 -52 50 -40 69 26 41 93 23 93 -25z m100
-45 c0 -6 -4 -7 -10 -4 -5 3 -10 11 -10 16 0 6 5 7 10 4 6 -3 10 -11 10 -16z
m40 -36 c31 -15 32 -17 15 -30 -25 -18 -32 -17 -45 6 -10 19 -13 41 -7 41 2 0
19 -7 37 -17z m-715 -103 c9 -15 -4 -50 -19 -50 -7 0 -20 8 -29 18 -13 14 -14
21 -5 30 15 15 45 16 53 2z m1003 -922 l-4 -68 -142 -138 c-79 -76 -168 -154
-199 -173 -31 -19 -69 -46 -85 -61 -15 -14 -36 -25 -45 -23 -10 2 -27 4 -38 4
-26 1 -108 76 -103 93 4 13 36 27 142 65 31 10 73 39 110 73 34 31 86 73 116
92 65 41 73 51 127 143 39 65 77 156 91 215 9 39 34 -143 30 -222z m194 -263
c0 -5 -5 -11 -11 -13 -6 -2 -11 4 -11 13 0 9 5 15 11 13 6 -2 11 -8 11 -13z
m116 -67 c-7 -19 -38 -22 -38 -4 0 10 9 16 21 16 12 0 19 -5 17 -12z m292 -38
c0 -5 -4 -10 -10 -10 -5 0 -10 5 -10 10 0 6 5 10 10 10 6 0 10 -4 10 -10z
m-1598 -105 c0 -5 -5 -11 -11 -13 -6 -2 -11 4 -11 13 0 9 5 15 11 13 6 -2 11
-8 11 -13z m1272 -14 c10 -15 -20 -45 -38 -38 -14 5 -15 11 -6 27 11 20 35 27
44 11z m-1328 -65 c-35 -31 -36 -34 -22 -60 7 -15 22 -33 31 -40 16 -11 15
-14 -16 -34 -35 -22 -54 -20 -45 4 3 8 1 14 -5 14 -16 0 -32 52 -19 60 7 4 11
10 11 14 -3 19 0 26 12 26 7 0 29 16 47 35 19 20 36 31 38 25 2 -6 -12 -25
-32 -44z m1400 39 c5 -11 10 -13 19 -5 9 7 16 6 25 -5 7 -8 22 -15 33 -15 15
0 18 -3 10 -11 -7 -7 -17 -8 -25 -3 -18 11 -40 11 -56 0 -18 -13 -45 15 -36
37 8 21 23 22 30 2z m-1568 -48 c25 -16 11 -27 -35 -27 -45 0 -46 0 -28 20 17
19 38 22 63 7z m1383 0 c-1 -12 -15 -9 -19 4 -3 6 1 10 8 8 6 -3 11 -8 11 -12z
m50 -30 c-13 -13 -26 -3 -16 12 3 6 11 8 17 5 6 -4 6 -10 -1 -17z m59 3 c0 -5
-4 -10 -10 -10 -5 0 -10 5 -10 10 0 6 5 10 10 10 6 0 10 -4 10 -10z m212 -5
c0 -13 -29 -31 -38 -23 -7 8 18 38 29 35 5 -1 9 -7 9 -12z m-1637 -5 c3 -5 -1
-10 -9 -10 -9 0 -16 5 -16 10 0 6 4 10 9 10 6 0 13 -4 16 -10z m1500 -20 c3
-5 1 -10 -4 -10 -6 0 -11 5 -11 10 0 6 2 10 4 10 3 0 8 -4 11 -10z m-71 -16
c17 -6 22 -24 8 -24 -5 0 -17 7 -28 15 -19 15 -8 20 20 9z m-1434 -24 c0 -5
-13 -11 -29 -15 -16 -3 -35 -12 -41 -20 -6 -8 -18 -11 -26 -8 -9 3 -14 -2 -14
-16 0 -11 -9 -25 -21 -31 -24 -13 -38 -5 -21 12 7 7 12 16 12 21 0 12 -53 -2
-62 -16 -6 -9 -14 -8 -34 3 -44 24 -40 37 13 37 69 0 134 13 162 33 23 17 61
16 61 0z m300 -36 c0 -23 -14 -32 -24 -16 -8 13 5 52 15 46 5 -3 9 -16 9 -30z
m1220 22 c0 -8 -4 -17 -9 -21 -12 -7 -24 12 -16 25 9 15 25 12 25 -4z m-1492
-24 c14 -10 -37 -52 -63 -52 -25 0 -17 28 13 44 32 18 33 18 50 8z m-618 -46
c0 -3 -4 -8 -10 -11 -5 -3 -10 -1 -10 4 0 6 5 11 10 11 6 0 10 -2 10 -4z"/>
<path d="M1499 3230 c-67 -20 -117 -76 -99 -110 15 -27 23 -25 67 15 21 19 50
37 65 40 15 4 30 11 33 16 4 5 32 9 63 9 53 0 55 1 39 17 -19 19 -122 27 -168
13z"/>
<path d="M2057 2702 c-35 -38 -12 -62 33 -35 37 21 41 53 7 53 -13 0 -31 -8
-40 -18z"/>
<path d="M1850 2640 c-31 -31 -25 -59 15 -76 19 -7 44 -14 55 -14 11 0 20 -4
20 -8 0 -4 -27 -34 -60 -67 -56 -55 -60 -62 -60 -105 0 -70 10 -77 59 -42 23
17 53 48 67 69 15 21 37 47 51 58 32 26 37 81 10 108 -17 17 -17 20 -3 36 24
27 19 34 -20 27 -19 -4 -41 -3 -47 1 -7 5 -24 14 -40 21 -23 10 -30 9 -47 -8z"/>
<path d="M2051 2594 c-28 -20 -27 -39 4 -69 16 -16 36 -25 57 -25 45 0 98 -20
141 -53 30 -23 40 -26 57 -17 11 6 31 8 45 4 35 -9 69 20 54 47 -14 26 -117
93 -164 107 -70 20 -169 23 -194 6z"/>
<path d="M2095 2485 c-5 -2 -21 -6 -35 -9 -28 -6 -80 -48 -80 -64 0 -6 -4 -12
-9 -14 -4 -1 -12 -14 -16 -27 -7 -22 -5 -23 24 -16 30 6 43 -6 21 -20 -17 -10
-2 -24 20 -18 15 4 20 0 20 -16 0 -25 17 -27 63 -8 18 8 49 17 70 21 43 8 44
12 15 43 -18 19 -19 23 -5 23 22 0 32 20 16 31 -12 8 -11 12 4 23 24 19 21 26
-12 26 -16 0 -36 7 -45 15 -14 14 -29 17 -51 10z"/>
<path d="M2830 3085 c-16 -19 0 -19 26 0 16 12 16 14 3 15 -9 0 -22 -7 -29
-15z"/>
<path d="M2826 2955 c-3 -8 -1 -15 4 -15 6 0 10 7 10 15 0 8 -2 15 -4 15 -2 0
-6 -7 -10 -15z"/>
<path d="M2866 2926 c3 -13 1 -27 -5 -30 -12 -8 -15 -58 -5 -69 8 -8 34 3 34
15 0 5 -3 7 -7 5 -5 -3 -6 19 -5 49 3 35 0 54 -7 54 -7 0 -9 -9 -5 -24z"/>
<path d="M2846 2784 c-9 -23 -7 -44 3 -44 17 0 40 30 35 45 -8 20 -30 19 -38
-1z"/>
</g>
</svg>
