<?xml version="1.0" standalone="no"?>
<!DOCTYPE svg PUBLIC "-//W3C//DTD SVG 20010904//EN"
 "http://www.w3.org/TR/2001/REC-SVG-20010904/DTD/svg10.dtd">
<svg version="1.0" xmlns="http://www.w3.org/2000/svg"
 width="466.000000pt" height="466.000000pt" viewBox="0 0 466.000000 466.000000"
 preserveAspectRatio="xMidYMid meet">
<metadata>
Created by potrace 1.16, written by Peter Selinger 2001-2019
</metadata>
<g transform="translate(0.000000,466.000000) scale(0.100000,-0.100000)"
fill="#000000" stroke="none">
<path d="M2140 4310 c-12 -8 -12 -10 3 -16 9 -3 29 -3 43 0 33 9 59 -10 42
-31 -16 -20 -20 -121 -6 -163 6 -19 12 -48 13 -65 1 -16 7 -93 13 -170 13
-161 24 -299 26 -335 1 -14 6 -24 11 -23 6 1 11 -26 12 -59 1 -56 7 -77 17
-67 10 9 15 349 6 349 -6 0 -10 4 -10 10 0 5 7 7 16 3 14 -5 15 2 10 56 -2 33
-1 61 4 61 4 0 5 56 3 124 -5 110 -4 127 12 142 17 17 17 18 -6 26 -26 9 -57
67 -62 116 -2 15 -7 33 -11 40 -9 14 -114 16 -136 2z"/>
<path d="M2398 4294 c-5 -4 1 -13 12 -21 24 -17 26 -58 4 -71 -23 -13 -17
-201 8 -226 28 -27 38 -19 38 33 0 32 6 55 16 65 11 11 14 26 10 49 -3 17 -3
26 0 20 11 -25 26 -13 24 20 -1 17 -1 37 0 42 1 6 2 14 1 18 -1 4 6 10 14 13
19 7 19 28 2 42 -17 14 -119 27 -129 16z"/>
<path d="M2098 4268 c-10 -15 -18 -43 -18 -63 0 -29 -4 -35 -21 -35 -12 0 -39
-17 -60 -39 -22 -21 -39 -36 -39 -32 0 3 -14 14 -31 24 -33 18 -89 23 -89 7 0
-5 -6 -10 -13 -10 -70 0 -116 -101 -67 -145 11 -10 20 -15 20 -12 0 4 8 -1 19
-10 18 -18 18 -19 -2 -55 -23 -43 -24 -43 -51 -23 -23 17 -40 20 -31 5 3 -5 2
-10 -4 -10 -5 0 -12 4 -15 9 -3 5 -15 7 -26 4 -24 -6 -27 14 -6 43 14 18 15
18 21 2 4 -10 11 -18 16 -18 13 0 11 34 -3 49 -9 10 -9 12 -1 7 6 -3 14 -2 18
4 3 5 -5 12 -19 16 -31 7 -78 -17 -96 -50 -9 -17 -22 -26 -37 -26 -43 0 -102
-45 -103 -78 0 -9 -10 -11 -33 -7 -24 5 -37 2 -46 -9 -24 -29 8 -49 35 -21 17
17 60 20 69 5 3 -5 -2 -24 -12 -42 -10 -18 -18 -49 -18 -68 0 -31 -4 -35 -28
-38 -15 -2 -27 -9 -27 -16 0 -7 25 -50 56 -97 30 -46 64 -102 74 -124 10 -22
35 -69 55 -105 20 -36 38 -72 40 -81 2 -10 14 -34 27 -55 13 -22 32 -59 43
-84 10 -25 25 -52 32 -61 7 -8 13 -28 13 -43 0 -14 7 -29 15 -32 8 -4 15 -12
15 -19 0 -19 47 -122 59 -130 6 -3 11 -17 11 -31 0 -13 4 -24 9 -24 4 0 14
-20 21 -45 9 -32 18 -45 31 -45 12 0 16 -5 13 -15 -4 -8 -1 -15 5 -15 6 0 11
-4 11 -10 0 -5 -7 -10 -15 -10 -16 0 -20 -16 -6 -24 16 -10 40 28 34 57 -3 15
-9 27 -13 27 -4 0 -10 8 -13 18 -3 9 -14 40 -25 68 -13 39 -15 51 -5 47 7 -3
16 -16 19 -29 3 -13 10 -24 15 -24 5 0 9 -7 9 -16 0 -19 60 -135 75 -146 6 -4
16 -6 24 -3 10 4 12 -2 9 -25 -3 -17 -1 -33 4 -36 16 -10 38 25 38 59 0 22 6
37 15 41 26 9 17 27 -10 20 -19 -5 -25 -2 -25 10 0 9 -8 35 -19 59 -10 23 -23
56 -29 72 -6 17 -14 39 -18 50 -9 26 -9 25 -18 58 -5 15 -12 27 -16 27 -5 0
-12 15 -15 33 -4 17 -10 36 -13 41 -3 5 -6 22 -7 38 -2 16 -10 37 -19 47 -9
10 -16 27 -16 39 0 11 -4 24 -10 27 -5 3 -10 17 -10 31 0 14 -6 35 -14 47 -8
12 -24 59 -36 105 -12 46 -33 108 -46 138 -13 30 -24 66 -24 80 0 29 -22 113
-51 191 -11 32 -15 55 -9 58 6 4 13 -7 16 -24 4 -17 13 -36 20 -42 22 -18 28
15 9 55 -9 19 -15 45 -13 58 2 18 13 3 46 -63 23 -47 42 -95 42 -106 0 -11 6
-26 13 -32 8 -6 22 -37 32 -68 10 -32 24 -71 31 -88 7 -16 27 -86 44 -155 18
-69 35 -127 39 -130 3 -3 8 -14 9 -25 2 -11 15 -42 28 -68 13 -27 24 -58 24
-70 0 -12 14 -60 30 -107 24 -70 28 -94 23 -142 -4 -39 -2 -58 5 -58 6 0 12
17 14 38 3 36 3 36 15 -18 22 -103 26 -115 37 -122 16 -11 56 -10 56 2 0 6 5
10 11 10 23 0 38 -29 38 -76 1 -27 3 -70 5 -95 4 -52 -8 -84 -23 -60 -8 12
-12 12 -25 2 -13 -11 -16 -11 -16 3 0 21 -19 21 -26 -1 -3 -10 -10 -27 -14
-38 -5 -11 -11 -27 -13 -35 -4 -9 -6 -6 -6 8 -1 12 4 31 11 42 7 10 10 22 7
25 -10 9 -39 -6 -39 -20 0 -27 -15 -22 -16 4 -2 48 -13 81 -27 75 -14 -5 -15
-54 -1 -76 9 -15 6 -69 -5 -80 -4 -5 -5 8 -3 27 4 32 2 35 -21 35 -14 0 -28
-6 -30 -12 -3 -8 -6 -5 -6 5 -1 25 -26 16 -26 -9 0 -15 -6 -18 -33 -16 -24 3
-32 -1 -32 -13 0 -9 -5 -13 -10 -10 -6 4 -18 -3 -28 -15 l-17 -21 -16 33 c-25
51 -39 101 -41 145 -1 33 4 46 27 67 32 29 36 31 53 14 6 -6 15 -8 19 -4 5 4
-4 18 -19 31 -16 13 -28 31 -28 40 0 8 -4 15 -10 15 -14 0 -12 -38 3 -43 6 -2
8 -8 4 -13 -15 -15 -39 29 -33 60 5 21 3 27 -8 23 -17 -7 -66 46 -66 72 0 10
-6 21 -13 24 -7 2 -22 25 -34 49 -13 24 -34 57 -47 73 -14 16 -23 32 -20 36 2
4 0 10 -6 14 -5 3 -10 15 -10 26 0 10 -4 19 -9 19 -4 0 -6 11 -3 25 2 15 0 25
-7 25 -6 0 -12 -10 -12 -22 -1 -17 -2 -19 -6 -5 -2 9 -9 17 -14 17 -5 0 -9 6
-9 13 0 8 -11 24 -25 37 -13 12 -22 26 -20 30 3 4 -2 13 -10 20 -8 7 -15 18
-15 25 0 7 -7 18 -15 25 -8 7 -15 21 -15 31 0 11 -4 19 -9 19 -5 0 -19 21 -31
48 -124 264 -130 275 -150 257 -11 -10 -17 -21 -15 -25 3 -4 -2 -10 -10 -14
-23 -8 -19 -39 4 -33 14 3 26 -9 52 -52 18 -31 39 -64 47 -73 8 -9 11 -22 6
-29 -5 -9 -2 -10 9 -6 18 7 48 -56 52 -113 2 -19 4 -39 5 -45 4 -20 0 -35 -11
-35 -14 0 -39 26 -39 40 0 20 -40 100 -50 100 -12 0 -41 56 -33 64 3 3 -3 14
-14 23 -11 10 -24 33 -27 51 -4 17 -12 32 -17 32 -5 0 -9 14 -9 30 0 45 -24
75 -62 78 -18 2 -37 7 -42 12 -6 6 -17 10 -27 10 -12 0 -15 7 -13 26 3 33 9
39 57 54 42 13 49 30 12 30 -35 0 -102 -63 -107 -100 -4 -24 -1 -30 13 -30 25
0 61 -41 53 -60 -14 -34 -15 -113 -2 -122 9 -7 7 -8 -7 -3 -11 4 -39 11 -62
15 -38 6 -42 5 -48 -17 -3 -13 -10 -23 -16 -23 -5 0 -21 -7 -35 -16 -20 -14
-22 -19 -12 -32 10 -12 10 -16 1 -19 -8 -3 -10 -11 -5 -21 5 -9 8 -30 7 -47
-2 -22 -7 -29 -19 -27 -9 2 -19 -4 -22 -13 -3 -8 -12 -15 -19 -15 -7 0 -15 -6
-18 -12 -3 -10 -7 -10 -20 0 -23 20 -58 -4 -51 -35 7 -28 2 -28 -34 -5 l-27
17 18 -28 c14 -22 16 -31 6 -43 -13 -16 4 -44 28 -44 8 0 11 -5 8 -10 -4 -6
-15 -8 -26 -5 -10 4 -19 2 -19 -3 0 -5 -8 -12 -19 -15 -15 -3 -18 0 -14 17 4
21 4 21 -8 1 -7 -11 -19 -25 -27 -31 -11 -8 -12 -15 -4 -30 9 -17 5 -26 -19
-52 -16 -17 -29 -35 -29 -40 0 -5 -13 -15 -28 -21 -16 -7 -36 -25 -45 -40 -21
-37 -23 -111 -3 -111 8 0 18 5 21 10 6 10 55 15 55 5 0 -2 -5 -16 -12 -30 -11
-24 -16 -26 -50 -21 -24 4 -38 2 -38 -4 0 -6 -5 -8 -11 -5 -7 5 -9 -15 -8 -59
2 -54 5 -67 21 -71 10 -4 18 -13 18 -21 0 -16 16 -19 25 -5 8 14 93 -41 88
-56 -3 -7 11 -20 31 -30 20 -9 36 -19 36 -23 0 -3 21 -17 48 -30 26 -14 49
-28 52 -31 3 -3 73 -45 155 -94 83 -49 152 -93 153 -97 2 -4 10 -8 18 -8 8 0
14 -4 14 -9 0 -5 13 -12 29 -16 16 -3 32 -13 35 -21 3 -8 12 -14 21 -14 8 0
15 -4 15 -8 0 -5 22 -19 50 -32 27 -13 50 -26 50 -30 0 -3 19 -16 43 -28 51
-27 160 -93 167 -101 9 -12 61 -31 81 -31 14 0 25 12 36 38 15 37 78 102 99
102 17 0 60 37 53 44 -8 9 -57 -10 -75 -29 -8 -8 -21 -12 -29 -9 -19 8 -19 24
-1 24 8 0 16 7 19 14 3 8 22 18 42 22 29 5 39 13 47 36 14 40 45 55 64 31 14
-17 14 -17 12 2 -2 13 4 21 17 23 11 2 36 16 55 31 34 26 125 61 159 61 10 0
28 11 41 25 22 23 24 23 36 7 13 -16 15 -16 32 6 13 16 21 19 28 12 8 -8 16
-7 27 4 13 14 15 13 20 -3 10 -39 137 -69 159 -37 4 6 11 1 15 -12 11 -28 93
-70 93 -47 0 8 -4 17 -10 20 -5 3 -10 13 -10 20 0 12 5 12 25 3 25 -11 29 -18
25 -52 -1 -13 3 -17 13 -13 7 3 27 -5 43 -19 16 -13 23 -23 17 -24 -22 0 -14
-15 17 -33 16 -10 35 -23 42 -30 8 -7 27 -19 43 -27 18 -9 39 -33 51 -59 12
-24 23 -38 26 -31 3 9 15 6 46 -13 47 -31 63 -55 64 -100 1 -39 8 -53 18 -37
5 8 10 3 14 -14 7 -29 39 -36 53 -12 4 8 12 15 16 15 5 0 34 24 66 53 32 29
78 70 102 92 74 64 191 170 219 196 14 14 57 52 95 85 38 33 79 69 90 80 11
11 56 52 100 90 44 38 82 73 85 77 3 4 17 9 30 11 20 3 26 12 32 45 4 23 12
50 17 61 18 32 13 85 -10 109 -18 20 -19 24 -5 38 24 23 21 100 -4 121 -13 12
-20 30 -20 55 0 20 -5 40 -10 43 -6 4 -4 12 5 21 8 9 15 28 15 44 0 16 7 33
16 38 37 21 24 145 -15 141 -32 -3 -36 2 -38 41 -2 28 1 40 11 40 17 0 26 22
26 64 0 48 -36 79 -88 75 -29 -2 -47 2 -61 15 -18 16 -21 17 -26 4 -7 -18 -82
-54 -91 -45 -4 4 5 11 19 16 15 6 35 19 47 31 l20 20 -31 0 c-27 0 -30 2 -19
15 10 12 10 15 -2 15 -8 0 -19 -5 -26 -12 -7 -7 -29 -12 -50 -13 -29 0 -37 -4
-36 -17 1 -10 -4 -18 -12 -18 -8 0 -14 -4 -14 -10 0 -5 5 -10 10 -10 15 0 -2
-27 -49 -79 -23 -24 -41 -49 -41 -57 0 -7 -8 -19 -18 -26 -27 -19 -67 -77 -59
-85 4 -3 17 3 30 15 24 23 43 30 32 12 -3 -5 -2 -10 3 -10 14 0 22 25 15 49
-4 18 -1 21 18 19 15 -2 23 2 21 10 -3 15 77 94 89 86 9 -5 2 -16 -32 -52 -32
-35 -32 -69 1 -39 7 6 -1 -6 -18 -28 -18 -22 -32 -49 -32 -60 0 -23 -81 -115
-101 -115 -7 0 -9 -3 -6 -7 4 -3 -1 -12 -11 -19 -14 -10 -18 -10 -25 4 -5 12
-6 10 -3 -6 6 -33 -70 -118 -90 -101 -11 9 -14 8 -14 -4 0 -14 -16 -30 -69
-67 -11 -8 -21 -19 -21 -25 0 -9 -56 -65 -66 -65 -11 0 -2 29 11 34 8 3 15 15
15 26 0 11 5 20 10 20 6 0 10 8 11 18 0 10 3 12 6 5 8 -21 17 -15 32 18 12 27
12 33 0 40 -11 8 -10 13 9 28 22 20 29 41 13 41 -11 0 -51 -48 -51 -61 0 -11
-58 -67 -64 -62 -3 3 -8 -6 -11 -20 -4 -15 -14 -32 -22 -39 -8 -7 -19 -22 -24
-35 -12 -33 -29 -28 -29 7 0 17 4 30 9 30 10 0 34 60 27 67 -10 10 -46 -19
-46 -37 0 -11 -6 -20 -13 -20 -7 0 -20 -12 -30 -27 -28 -46 -69 -91 -61 -68 4
11 16 32 26 47 10 14 18 28 18 31 0 3 13 20 30 38 16 18 28 35 26 37 -3 2 4
12 15 23 10 10 19 24 19 29 0 15 -30 12 -30 -2 -1 -7 -12 -26 -25 -43 -19 -23
-25 -26 -25 -12 0 9 -5 17 -11 17 -6 0 -10 -10 -9 -22 4 -44 0 -56 -17 -54
-13 1 -18 -6 -17 -21 0 -13 -3 -23 -8 -23 -4 0 -8 7 -8 15 0 9 -6 18 -12 20
-15 6 -17 59 -4 72 5 5 6 3 2 -4 -4 -7 -3 -13 3 -13 5 0 8 14 6 31 -2 19 1 32
10 35 8 3 17 14 20 25 4 10 13 19 21 19 8 0 13 4 10 9 -3 5 2 19 12 32 10 13
21 32 25 42 3 9 11 17 16 17 5 0 12 12 15 26 4 14 16 35 26 47 11 11 20 26 20
33 0 7 11 21 25 32 14 11 25 27 25 36 0 9 5 16 10 16 6 0 10 7 10 15 0 23 41
75 53 68 6 -4 8 0 4 10 -6 15 11 39 76 109 15 16 27 35 27 41 0 6 9 20 20 32
11 11 32 34 48 51 16 17 35 34 43 36 11 5 11 8 -4 20 -19 14 -31 87 -21 121 3
10 16 22 29 27 20 8 22 15 21 70 -1 79 -18 94 -93 87 -41 -4 -53 -2 -53 8 0 7
-12 23 -27 35 -22 17 -38 21 -80 18 -33 -2 -53 1 -53 8 0 5 -15 25 -34 43 -25
24 -41 32 -62 29 -17 -2 -29 -9 -30 -18 -1 -27 8 -32 26 -15 11 10 24 13 39 7
21 -7 20 -8 -12 -42 -21 -21 -37 -51 -42 -75 -5 -22 -9 -44 -11 -50 -1 -5 -14
-41 -28 -79 -14 -37 -26 -76 -26 -85 0 -9 -14 -45 -30 -80 -26 -55 -33 -73
-39 -111 -1 -3 -5 1 -10 9 -6 9 -11 10 -15 2 -4 -6 -2 -11 3 -11 17 0 13 -32
-9 -68 -11 -18 -20 -42 -20 -53 0 -13 -4 -18 -12 -13 -6 4 -8 3 -4 -4 3 -6 1
-23 -6 -39 -6 -15 -13 -32 -13 -38 -1 -5 -12 -32 -23 -58 -12 -27 -22 -55 -22
-62 0 -7 -7 -15 -14 -18 -8 -3 -20 -25 -27 -49 -6 -24 -19 -54 -29 -68 -9 -14
-20 -32 -23 -40 -3 -9 -6 -10 -6 -2 -1 6 -8 12 -17 12 -9 0 -14 6 -11 13 2 6
12 11 21 11 19 -2 18 -5 24 98 2 21 6 25 22 21 14 -4 20 0 20 11 0 9 -7 16
-16 16 -15 0 -15 2 0 25 9 13 16 33 16 45 0 11 7 20 15 20 8 0 15 5 15 10 0 6
-4 10 -8 10 -4 0 -6 17 -3 38 2 20 6 31 8 25 6 -18 23 -16 23 2 0 8 -5 15 -12
15 -9 0 -9 3 0 12 7 7 12 20 12 30 0 10 5 18 10 18 6 0 10 8 10 18 0 24 51
142 62 142 4 0 6 11 2 25 -5 20 -3 24 10 19 9 -3 16 -1 16 5 0 6 -4 11 -10 11
-5 0 -10 8 -10 18 0 13 2 14 9 3 12 -18 24 3 16 28 -3 10 0 25 7 32 8 8 20 34
28 59 8 25 17 47 20 50 3 3 21 35 40 72 33 64 33 68 17 86 -10 11 -15 26 -11
36 3 9 1 16 -5 16 -6 0 -11 14 -11 30 0 19 -9 40 -24 55 -13 13 -21 26 -19 29
10 10 -48 26 -94 26 -39 0 -44 -2 -33 -15 12 -14 5 -55 -9 -55 -11 0 -31 -46
-31 -71 0 -10 -5 -27 -10 -37 -11 -18 -38 -131 -47 -196 -5 -33 -3 -38 11 -33
23 9 21 -6 -19 -125 -19 -57 -37 -123 -41 -146 -4 -23 -10 -42 -14 -42 -4 0
-10 -15 -13 -32 -10 -69 -29 -153 -37 -163 -4 -5 -11 -26 -14 -45 -9 -46 -27
-81 -38 -74 -4 3 -8 -2 -8 -11 0 -9 4 -14 9 -11 12 8 1 -77 -11 -85 -5 -3 -12
-26 -16 -50 -5 -37 -7 -40 -12 -19 -5 19 -8 11 -13 -33 -5 -37 -17 -72 -32
-95 -14 -20 -25 -42 -25 -49 0 -7 -6 -10 -14 -7 -8 3 -17 -2 -20 -14 -4 -10
-12 -19 -19 -19 -9 0 -11 27 -9 106 1 58 0 116 -3 129 -6 26 -25 30 -26 5 0
-11 -3 -13 -6 -5 -2 6 -9 12 -14 12 -10 0 -12 -60 -3 -84 8 -21 24 -20 25 2 0
14 2 14 8 -3 9 -21 4 -38 -8 -31 -4 3 -7 -14 -6 -37 1 -23 -1 -53 -4 -67 -5
-26 -10 -7 -27 108 -5 32 -11 42 -25 42 -15 0 -19 7 -19 32 0 18 -11 66 -25
108 -42 130 -58 184 -65 225 -4 22 -16 78 -25 125 -15 69 -29 266 -17 230 7
-20 23 -9 38 25 18 44 28 45 22 3 -6 -38 -1 -58 14 -58 6 0 8 7 4 15 -3 8 -1
15 4 15 6 0 10 -42 10 -100 0 -89 9 -123 23 -87 3 7 6 5 6 -5 1 -18 21 -26 21
-9 0 4 -7 48 -15 96 -9 49 -12 91 -7 94 10 7 11 54 1 61 -12 9 -20 120 -9 120
13 0 13 33 -1 47 -8 8 -8 17 1 33 8 16 10 59 6 144 -6 126 -12 166 -27 166 -5
0 -9 9 -9 21 0 12 -8 23 -19 26 -16 4 -21 15 -23 51 l-3 46 -17 -26z m1247
-468 c9 -27 -1 -40 -31 -40 -15 0 -24 -6 -24 -15 0 -18 17 -20 23 -2 4 10 7
10 18 0 10 -10 11 -15 1 -25 -14 -14 -72 -18 -72 -5 0 4 -5 7 -11 7 -7 0 -9
-10 -5 -25 4 -14 2 -33 -3 -42 -5 -10 -30 -61 -55 -113 -43 -90 -52 -128 -21
-83 37 53 109 123 126 123 26 0 24 -22 -6 -50 -23 -22 -140 -187 -178 -252
-10 -18 -33 -50 -52 -72 -18 -23 -43 -61 -55 -86 -13 -25 -45 -72 -72 -105
-28 -32 -54 -69 -58 -80 -4 -11 -17 -41 -28 -65 -11 -25 -23 -53 -26 -63 -3
-10 -11 -15 -17 -11 -14 8 -58 -44 -59 -69 0 -14 -5 -17 -22 -12 -13 4 -26 10
-30 14 -9 8 30 91 43 91 5 0 9 11 9 25 0 31 22 105 32 105 3 0 14 26 23 57 9
31 23 62 30 68 7 5 27 37 44 69 17 33 36 65 42 73 6 7 8 13 5 13 -8 0 45 94
56 98 5 2 6 8 3 12 -3 5 3 18 15 30 11 11 20 24 20 30 0 5 7 7 15 4 9 -4 15 0
15 10 0 9 -4 16 -10 16 -11 0 7 49 24 65 6 6 20 27 31 48 11 21 28 45 38 54 9
9 17 22 17 29 0 7 14 25 30 41 17 15 30 34 30 42 0 8 3 11 7 8 12 -13 31 28
26 57 -5 25 -4 28 15 22 13 -5 30 -1 44 8 30 21 45 20 53 -4z m-255 -35 c0 -3
-4 -13 -9 -23 -42 -76 -71 -156 -61 -162 14 -9 4 -50 -12 -50 -6 0 -6 6 2 15
7 9 10 18 6 22 -10 11 -17 -2 -22 -47 -5 -41 -33 -109 -34 -82 0 17 -20 15
-20 -3 0 -8 5 -15 10 -15 16 0 11 -23 -10 -50 -12 -15 -18 -18 -14 -7 3 9 2
17 -4 17 -12 0 -23 -38 -11 -42 5 -2 2 -16 -6 -32 -8 -15 -15 -36 -16 -45 0
-10 -2 -11 -6 -3 -6 14 -23 16 -23 2 0 -11 -33 -88 -56 -132 -8 -14 -14 -34
-14 -43 0 -9 -5 -13 -11 -10 -10 7 -3 61 11 80 14 19 62 160 67 198 3 20 9 37
14 37 4 0 6 6 3 14 -3 7 2 16 10 19 10 4 16 19 16 40 0 22 9 43 25 61 14 15
25 31 25 37 0 5 4 9 9 9 9 0 39 52 91 158 11 23 25 42 30 42 6 0 10 -2 10 -5z
m-1564 -159 c3 -14 12 -27 20 -30 8 -3 14 -12 14 -21 0 -8 5 -15 10 -15 6 0
10 -9 10 -19 0 -11 6 -26 13 -33 18 -20 67 -121 67 -140 0 -9 7 -21 16 -26 12
-6 15 -18 12 -36 -3 -14 -2 -26 1 -26 7 0 32 -52 27 -57 -8 -8 -36 10 -36 24
0 9 -6 13 -15 9 -8 -3 -15 -4 -15 -2 0 2 -7 20 -16 41 -8 20 -10 34 -5 30 7
-3 11 3 11 16 0 18 -3 20 -12 11 -9 -9 -17 -4 -35 20 -18 25 -22 39 -17 67 6
28 4 33 -9 28 -9 -3 -18 1 -22 11 -3 9 -1 18 4 20 14 5 14 32 1 52 -9 13 -11
13 -21 0 -8 -12 -9 -10 -4 9 4 14 3 21 -2 18 -6 -4 -8 4 -5 18 2 15 0 25 -7
25 -6 0 -11 7 -11 15 0 24 19 17 26 -9z m-356 -323 c0 -4 9 -14 20 -21 12 -7
25 -24 30 -37 5 -14 16 -25 24 -25 8 0 17 -8 21 -17 9 -28 68 -89 73 -75 4 14
35 -14 45 -40 9 -24 22 -23 47 5 l22 22 -7 -37 c-4 -22 -3 -42 4 -50 50 -59
90 -139 84 -168 -3 -16 3 -33 14 -45 10 -11 18 -27 18 -35 0 -8 9 -15 20 -16
41 -2 45 -5 45 -28 0 -13 7 -26 15 -30 8 -3 15 -12 15 -19 0 -8 7 -20 15 -27
8 -7 15 -21 15 -32 0 -10 10 -23 23 -28 22 -9 22 -9 -3 -9 -28 -1 -53 30 -44
54 3 8 1 15 -6 15 -6 0 -18 7 -26 15 -9 8 -20 15 -25 15 -14 0 -11 -26 6 -40
8 -7 12 -16 9 -21 -3 -5 0 -9 5 -9 6 0 11 -6 11 -14 0 -8 9 -17 19 -21 10 -3
21 -17 24 -31 4 -24 2 -23 -30 12 -19 22 -45 55 -58 74 -13 19 -38 54 -54 78
-17 23 -28 42 -25 42 4 0 -10 20 -30 44 -29 35 -32 43 -16 39 34 -9 21 11 -19
30 -26 12 -40 26 -43 42 -3 13 -1 22 3 19 5 -3 9 0 9 5 0 6 -7 11 -15 11 -8 0
-17 11 -21 25 -3 13 -15 27 -27 31 -19 6 -19 8 -4 19 19 13 23 35 7 35 -5 0
-10 -4 -10 -10 0 -5 -4 -10 -10 -10 -5 0 -10 7 -10 15 0 9 -9 15 -25 15 -14 0
-25 -6 -25 -12 0 -7 -11 4 -25 24 -14 20 -25 42 -25 49 0 6 -13 25 -30 41 -32
30 -37 44 -19 50 8 3 8 10 -2 26 -14 23 -39 30 -39 11 0 -5 -4 -7 -10 -4 -5 3
-10 15 -10 26 0 11 -4 18 -8 15 -4 -2 -8 3 -8 13 0 12 6 17 18 13 10 -2 18 1
18 8 0 7 5 6 15 -4 8 -8 15 -18 15 -23z m-132 -77 c2 -10 19 -32 38 -48 19
-17 34 -36 34 -43 0 -7 11 -16 25 -19 14 -4 25 -13 25 -21 0 -8 6 -15 13 -15
7 0 20 -12 29 -27 9 -16 44 -56 77 -91 34 -35 59 -68 56 -73 -4 -5 -2 -9 2 -9
5 0 25 -21 45 -48 20 -26 46 -58 58 -72 12 -14 17 -26 11 -28 -6 -2 -11 -10
-11 -19 0 -9 6 -12 19 -8 13 4 24 -2 36 -21 16 -25 16 -26 -4 -19 -15 5 -21 2
-21 -9 0 -9 9 -16 21 -16 11 0 17 -5 14 -10 -3 -6 1 -13 9 -16 9 -3 16 -12 16
-19 0 -6 9 -20 20 -30 11 -10 17 -22 13 -27 -3 -6 -2 -13 3 -17 5 -3 18 -17
29 -30 l20 -24 -22 12 c-13 6 -28 21 -34 34 -7 12 -20 29 -31 38 -10 9 -18 19
-18 23 0 4 -13 21 -30 39 -16 18 -30 37 -30 42 0 6 -16 27 -35 47 -38 39 -44
58 -20 58 8 0 15 -7 15 -15 0 -8 7 -15 15 -15 23 0 18 16 -11 35 -21 14 -28
14 -34 4 -7 -10 -11 -10 -24 0 -9 8 -16 18 -16 23 0 5 -6 15 -12 23 -29 30
-48 56 -48 65 0 6 -5 10 -10 10 -6 0 -20 15 -31 34 -21 36 -48 53 -58 37 -3
-5 -15 -11 -25 -13 -15 -2 -32 17 -73 80 -52 80 -52 82 -28 82 14 0 25 5 25
10 0 6 -5 10 -11 10 -14 0 -39 25 -39 39 0 6 -4 11 -10 11 -5 0 -10 -7 -10
-15 0 -8 5 -15 10 -15 6 0 10 -8 10 -17 0 -16 -1 -16 -16 -1 -20 19 -27 100
-10 110 16 11 30 4 34 -16z m2715 -216 c-3 -11 -9 -20 -14 -20 -5 0 -9 -7 -9
-16 0 -9 -8 -18 -17 -21 -17 -4 -53 -67 -53 -91 0 -7 -4 -12 -10 -12 -5 0 -32
-22 -60 -49 -27 -26 -52 -46 -55 -43 -3 3 -5 0 -5 -7 0 -19 -62 -81 -82 -81
-10 0 -18 -5 -18 -11 0 -5 5 -7 10 -4 6 3 10 1 10 -4 0 -6 -4 -11 -10 -11 -5
0 -10 -6 -10 -13 0 -7 -14 -23 -30 -36 -17 -12 -28 -26 -25 -30 9 -16 -20 -19
-34 -4 -11 12 -10 15 8 20 13 3 21 13 21 27 0 25 67 112 93 119 19 6 24 27 5
27 -7 0 -5 7 5 18 52 54 87 96 87 103 0 5 6 9 13 9 15 0 48 36 40 44 -4 3 -2
6 3 6 5 0 34 23 64 50 59 53 81 63 73 30z m-1348 -351 c4 -6 13 -8 21 -5 7 3
16 2 18 -3 9 -13 99 -12 109 1 7 10 10 10 14 1 2 -7 11 -13 19 -13 15 0 17 -8
14 -52 -2 -32 5 -35 27 -12 12 12 18 13 23 3 5 -6 17 -9 28 -7 14 4 29 -3 46
-23 15 -16 30 -29 35 -29 5 0 11 -8 13 -17 2 -12 14 -18 40 -19 20 -2 51 -10
68 -19 17 -9 35 -13 40 -10 10 6 14 -6 11 -37 -2 -15 21 -34 44 -37 6 -1 10
-13 10 -28 0 -14 6 -28 13 -30 6 -3 12 3 12 14 0 13 2 15 9 5 5 -8 17 -11 33
-7 23 6 27 3 33 -24 4 -17 13 -31 20 -31 7 0 15 -7 19 -15 4 -11 13 -14 31 -9
21 5 25 3 25 -15 0 -14 6 -21 20 -21 32 0 29 -4 -62 -100 -38 -40 -52 -49 -62
-41 -7 6 -20 9 -29 5 -8 -3 -18 -1 -22 5 -3 6 -1 11 4 11 16 0 13 20 -4 26 -8
3 -22 -1 -30 -10 -16 -15 -35 -21 -35 -11 0 3 6 15 13 26 10 17 10 23 0 26 -7
3 -13 11 -13 19 0 8 -5 14 -11 14 -7 0 -8 11 -4 31 6 28 5 30 -17 27 -12 -2
-22 -9 -20 -16 1 -6 -3 -12 -9 -12 -7 0 -18 -8 -25 -17 -12 -17 -13 -16 -14 6
0 19 -4 23 -24 19 -23 -5 -24 -2 -19 23 6 32 -10 39 -26 12 -11 -20 -8 -23
-26 34 -4 12 -8 14 -17 5 -18 -18 -31 -14 -25 8 3 13 0 20 -9 20 -8 0 -14 -7
-14 -16 0 -8 -4 -13 -9 -10 -5 3 -7 15 -4 26 4 15 0 20 -13 20 -23 1 -54 23
-54 39 0 15 -17 14 -23 -1 -3 -8 -8 -6 -13 7 -4 11 -12 24 -18 28 -8 6 -7 10
2 14 6 2 12 15 12 28 0 12 7 28 15 35 21 18 19 40 -5 40 -12 0 -20 -7 -20 -16
0 -9 -16 -38 -35 -64 -19 -26 -35 -56 -35 -66 0 -23 -6 -16 -14 19 -5 20 -3
27 9 27 8 0 15 7 15 15 0 21 -22 19 -48 -5 -12 -12 -22 -16 -22 -10 0 14 -47
13 -52 -2 -3 -8 -11 -7 -28 5 -31 21 -40 21 -40 0 0 -9 -3 -13 -7 -10 -8 9 -4
131 5 135 5 1 6 17 5 35 -3 28 0 34 29 48 42 21 45 21 53 8z m-662 -187 c8 2
25 -8 38 -22 19 -20 23 -34 21 -68 -2 -24 1 -49 7 -55 7 -9 0 -12 -27 -12 -33
0 -37 -3 -37 -25 0 -20 -7 -27 -37 -34 -42 -10 -53 -27 -38 -59 10 -21 10 -21
-6 1 -19 25 -54 30 -54 7 0 -9 -9 -15 -25 -15 -27 0 -34 -17 -10 -26 8 -4 15
-12 15 -20 0 -10 -13 -14 -46 -14 -28 0 -43 -4 -39 -10 7 -11 -35 -31 -48 -23
-4 2 -10 -3 -13 -11 -3 -9 -12 -16 -20 -16 -8 0 -15 -8 -15 -17 -1 -14 -2 -14
-5 -3 -3 8 -18 23 -34 32 -17 10 -29 21 -28 25 4 17 -14 53 -28 53 -16 0 -17
-5 -5 -47 7 -26 6 -35 -9 -48 -21 -19 -44 -11 -36 12 4 9 -1 21 -11 29 -17 12
-16 13 5 14 16 0 22 6 22 24 0 13 7 27 16 30 9 4 14 13 10 21 -4 11 2 15 20
15 14 0 22 4 19 10 -3 6 4 10 16 10 17 0 20 5 17 25 -4 20 1 28 26 40 29 15
32 15 49 -6 10 -12 21 -19 24 -15 4 4 3 10 -2 14 -19 13 -14 40 6 35 13 -4 19
0 19 12 0 14 6 16 36 10 34 -6 36 -5 31 14 -4 16 0 21 14 21 10 0 19 -4 19
-10 0 -5 7 -7 15 -4 20 8 30 45 15 54 -17 11 -5 41 14 34 8 -3 24 4 36 16 16
16 24 19 35 10 7 -6 20 -10 28 -8z"/>
<path d="M2558 4174 c-5 -4 -8 -17 -8 -29 0 -11 -5 -26 -12 -33 -7 -7 -13 -72
-15 -189 -2 -98 -7 -223 -12 -278 -4 -55 -6 -137 -3 -183 3 -70 7 -83 21 -80
10 2 17 15 18 38 5 65 25 174 48 255 13 44 26 96 29 115 3 20 15 52 26 73 11
20 20 49 20 64 0 16 7 41 15 57 9 16 13 36 10 43 -2 8 3 25 11 39 9 13 14 27
10 31 -11 11 -56 -51 -56 -78 0 -29 -19 -39 -77 -39 -33 0 -33 0 -33 51 0 28
5 59 11 70 11 22 9 86 -3 73z"/>
<path d="M1305 3733 c-11 -2 -30 -6 -42 -8 -26 -6 -83 -61 -83 -81 0 -9 4 -13
10 -9 5 3 19 -15 30 -40 11 -25 25 -43 30 -40 6 4 10 1 10 -6 0 -7 3 -9 6 -6
4 4 -5 25 -20 48 -20 30 -25 44 -17 52 6 6 11 21 11 34 0 13 5 23 11 23 6 0 9
-7 5 -15 -3 -9 3 -19 14 -25 21 -11 90 -112 90 -131 0 -6 9 -24 21 -40 11 -16
18 -29 15 -29 -2 0 11 -23 30 -51 19 -28 34 -55 34 -59 0 -5 10 -30 22 -57 12
-26 20 -54 19 -60 -1 -7 3 -13 9 -13 15 0 12 52 -5 76 -8 12 -17 37 -20 55 -3
19 -13 57 -21 84 -9 28 -17 61 -19 74 -2 13 -13 37 -24 52 -12 16 -26 40 -31
54 -6 15 -14 24 -19 21 -5 -3 -24 1 -43 8 -62 26 -75 66 -22 66 15 0 24 6 24
15 0 8 -1 14 -2 14 -2 -1 -12 -3 -23 -6z"/>
<path d="M3435 3700 c-17 -7 -17 -9 -2 -9 9 -1 17 -5 17 -11 0 -12 60 -70 72
-70 5 0 8 -12 6 -27 -2 -19 -12 -32 -33 -42 -31 -15 -105 -68 -117 -85 -4 -6
-4 -14 -2 -18 3 -5 -11 -31 -31 -59 -20 -28 -34 -56 -32 -62 2 -6 -7 -23 -20
-37 -13 -14 -26 -35 -29 -47 -4 -13 -9 -21 -14 -18 -10 6 -39 -30 -112 -137
-35 -51 -66 -94 -70 -96 -5 -2 -8 -14 -8 -27 0 -15 -7 -26 -20 -30 -15 -5 -19
-12 -15 -25 4 -12 0 -22 -11 -28 -9 -5 -14 -14 -10 -21 13 -20 23 -12 40 29 9
22 20 40 24 40 5 0 17 16 28 35 10 19 22 35 27 35 5 0 6 9 2 19 -4 14 -1 18
11 17 9 0 19 5 22 13 3 9 0 11 -8 6 -9 -5 -11 -4 -6 3 4 7 14 12 23 12 9 0 13
6 10 14 -4 10 -1 13 8 10 13 -5 75 73 75 95 0 5 6 14 13 18 7 4 18 21 25 36 7
16 17 25 23 22 6 -4 9 0 7 11 -2 12 4 20 16 22 23 5 48 27 39 36 -4 3 -1 6 5
6 6 0 39 25 74 55 35 30 65 50 66 45 2 -6 -25 -39 -60 -74 -34 -34 -79 -84
-98 -110 -19 -27 -50 -64 -67 -82 -18 -19 -33 -41 -33 -49 0 -24 14 -17 33 15
10 17 24 30 31 30 8 0 17 8 20 18 13 35 31 59 44 54 7 -2 12 5 12 17 0 23 15
28 23 9 3 -8 6 -6 6 5 1 16 83 107 96 107 4 0 13 7 22 16 14 14 13 18 -11 43
-32 34 -38 111 -8 111 9 0 23 9 30 20 15 25 32 26 32 2 0 -22 19 -42 38 -42
11 0 13 8 9 30 -9 40 -64 89 -102 90 -22 1 -35 9 -50 32 -23 36 -32 40 -60 28z"/>
</g>
</svg>
